/* XPM */
static char * text_xpm[] = {
"64 64 2 1",
" 	c #00C6FF",
".	c #000000",
"                                                                ",
"                                                                ",
"                                                                ",
"                                                                ",
"                                                                ",
"                                                                ",
"                                         .                      ",
"                                         .                      ",
"                                         .                      ",
"             .                           ..                     ",
"            ...                           .                     ",
"            . .                           .                     ",
"           .. ..             .            .                     ",
"          ..   .             .             .                    ",
"         .     .             .             .                    ",
"        ..     ..            .             .                    ",
"        ...     .            .              .                   ",
"      ..  ........           .              .                   ",
"      .          .           .              .                   ",
"     .           ..          .              .                   ",
"                  .          .        .      .                  ",
"                  .          .    .....      .                ..",
"                   .         .  ...          ..           ..... ",
"                   ..        ....             .        ....     ",
"                    .        ..               .    .....        ",
"                    .                         .. ...            ",
"                    ..                         ...              ",
"                     .                                          ",
"                     .                                          ",
"                                                                ",
"                                                                ",
"                                                                ",
"                                                                ",
"      ...                                                       ",
"        ..                                                      ",
"          ..                                                    ",
"            ...   .                                             ",
"      .        ....                      .   .........          ",
"      .           .....    ...           .   .                  ",
"      .           .        . ..          .   .                  ",
"      .           .        .  .          .   .                  ",
"      .           .        .  ..         .   .                  ",
"      .           .        .   ..       ..   .                  ",
"      .           .        .    .       .   .............       ",
"      .           .        .     .      .    .                  ",
"      .......     .        .     .     ..    .                  ",
"      .           .        .     ..    .     .                  ",
"      .           .        .      .   ..     .                  ",
"      .           .        .      ..  .      .                  ",
"      .           .        .       . ..      .          ........",
"      .           .                ...       .       ...        ",
"      .           .                 ..       ........           ",
"      .           .                                             ",
"                 .......                                        ",
"                .                                               ",
"                                                                ",
"                                                                ",
"                                                                ",
"                                                                ",
"                                                                ",
"                                                                ",
"                                                                ",
"                                                                ",
"                                                                "};
