/* XPM */
static char * ceil_xpm[] = {
"64 64 111 2",
"  	c #3E3E3E",
". 	c #333333",
"+ 	c #191919",
"@ 	c #101010",
"# 	c #111111",
"$ 	c #1B1B1B",
"% 	c #131313",
"& 	c #222222",
"* 	c #212121",
"= 	c #2C2C2C",
"- 	c #292929",
"; 	c #171717",
"> 	c #1C1C1C",
", 	c #1D1D1D",
"' 	c #1A1A1A",
") 	c #1E1E1E",
"! 	c #0E0E0E",
"~ 	c #3A3A3A",
"{ 	c #474747",
"] 	c #3B3B3B",
"^ 	c #0B0B0B",
"/ 	c #0F0F0F",
"( 	c #121212",
"_ 	c #262626",
": 	c #252525",
"< 	c #242424",
"[ 	c #151515",
"} 	c #303030",
"| 	c #2B2B2B",
"1 	c #3D3D3D",
"2 	c #393939",
"3 	c #2D2D2D",
"4 	c #0D0D0D",
"5 	c #181818",
"6 	c #5B5B5B",
"7 	c #505050",
"8 	c #484848",
"9 	c #353535",
"0 	c #5E5E5E",
"a 	c #383838",
"b 	c #4D4D4D",
"c 	c #787878",
"d 	c #4B4B4B",
"e 	c #161616",
"f 	c #232323",
"g 	c #141414",
"h 	c #282828",
"i 	c #272727",
"j 	c #424242",
"k 	c #313131",
"l 	c #202020",
"m 	c #0A0A0A",
"n 	c #414141",
"o 	c #2E2E2E",
"p 	c #3C3C3C",
"q 	c #1F1F1F",
"r 	c #343434",
"s 	c #535353",
"t 	c #404040",
"u 	c #434343",
"v 	c #4C4C4C",
"w 	c #373737",
"x 	c #5A5A5A",
"y 	c #595959",
"z 	c #4E4E4E",
"A 	c #525252",
"B 	c #2F2F2F",
"C 	c #494949",
"D 	c #363636",
"E 	c #0C0C0C",
"F 	c #5F5F5F",
"G 	c #4F4F4F",
"H 	c #5D5D5D",
"I 	c #646464",
"J 	c #767676",
"K 	c #545454",
"L 	c #323232",
"M 	c #070707",
"N 	c #585858",
"O 	c #606060",
"P 	c #444444",
"Q 	c #515151",
"R 	c #454545",
"S 	c #2A2A2A",
"T 	c #6A6A6A",
"U 	c #616161",
"V 	c #3F3F3F",
"W 	c #5C5C5C",
"X 	c #464646",
"Y 	c #6C6C6C",
"Z 	c #555555",
"` 	c #6E6E6E",
" .	c #707070",
"..	c #4A4A4A",
"+.	c #686868",
"@.	c #848484",
"#.	c #7C7C7C",
"$.	c #818181",
"%.	c #757575",
"&.	c #656565",
"*.	c #6B6B6B",
"=.	c #6D6D6D",
"-.	c #565656",
";.	c #797979",
">.	c #575757",
",.	c #8B8B8B",
"'.	c #696969",
").	c #777777",
"!.	c #676767",
"~.	c #8A8A8A",
"{.	c #737373",
"  . + @ # $ + % & * = - ; > , ' ) ! ! % ' ~ { ] ; ! ^ / ( ) _ $ : < < ) > ; @ [ [ : } | 1 } | ' + > 2 3 : < ; ( @ 4 5 6 7 8 9 9 ",
"0 0 a ; # % $ + & , & & * 5 % ; > @ ' 5 - b c d : e 5 % $ , + # [ f f * f f f 5 e g , h i j = ) / + ' k k l 5 ; # m ( @ h < - n ",
"[ o d p   i f q q l < r = } r k i $ r ] s t u d v q l f ; + * ; ( + , & , * | : [ g % 5 w p k : ' % 5 > l l e e / / / ^ + 5 % @ ",
"@ # q p x y z u - = o n s A B + 3 o ; 5 $ l + < C < = D > [ 5 $ & + ' ) q , * 3 l g ' e ~ ~ u r # # g e + & l > # / @ E g [ ' @ ",
"/ @ < 3 3 % $ B b F G H I J ~ B 1 . q ) _ > l 3 K | & o D ' : - & & l , * o = B & e ; [ & D w 0 L % ; : _ f + [ @ M M 4 @ @ # g ",
"# % , N O l ( / @ h w P Q 0 l l ) f 9 r R } h 3 j A f f i l _ } = f h S f q } ] & [ % 4 [ = ~ 8 R / e $ _ * , ) % + + % / @ ! / ",
"( ) 3 T 7 , [ @ ( ( > < ) ; e ; e e i < < S 9 D 7 U n f & = B w = S < : B B B a S * e g ' + o V p & e [ & e % @ ( % g 5 % g ' e ",
"K f > q C < > $ . : % * _ ) , , $ e f 2 > + - < | 2 W X h ' _ S d p | | - S t 9 h _ < & & ' ) B p & p > , $ ; + & > $ q * ) R Y ",
"] S ( % { O U Z P C v L a 9 2 L | } 3 B f ; q , | o D Y O ~ ) * = . 3 = 9 p p B o _ B D f > ) : r o A z a _ q i S k ~ w { 3 o u ",
"X p a S b ` k $ a j S X L = r K b z | = > > _ f | | h p  .x & = f S . o ~ b 8 < ) < h r r 5 g 5 l _ - 5 $ > ; ; $ e l ; o P D t ",
"Q q f i L u ~ r z D ; & f , > < L ..9 | * & D . = h h i u I r 8 1 . L R D { 8 . - , , < } 9 $ ; , , : h @ $ * w n R t k ~ b b   ",
"> + , i L 9 D a 2 i ' ' q l [ $ , & 1 o & h o L w < 5 ) L 8 +.{ N v p t ..9 k } o p L & : : S & $ q q . = @ < 1 ] l > g e + , ' ",
"g g B r _ < | S h S i > + ; ( / ; * o 1 R 2 < & _ _ ' e * o Z @.z Q z P C k = } i f w ] a i S . w , > f U x | ) , q $ ; [ % ( # ",
"5 < a 5 , $ q : _ , ; ' g 5 * 5 l - D L V   < f $ & q 5 ' : j H #.$.z W ] B 3 | - & l S - a _ L ~ ] S $ i T  .< S - * ' e e [ g ",
"} ] i g @ % 5 & ' [ [ ; $ + > + $ = _ : f | = f * & & + $ l ~ W %.&.2 7 y ~ - o S i ) * < = 2 9 L 3 2 | & . *.j | o h < * ) & f ",
"z P ; 5 ' 5 * & * e ( % ( ( ; 5 ) 5 q ' q , * q i * $ . B D 1 Y F ] : 9 I Q F n : < ) q f f h 3 k _ k w - ) < C p 3 r | B 3 } a ",
"y 0 _ : D V 9 : h ' [ e ' l i _ q e ; $ 5 [ $ ; + - - . Z y H =.u > : : = -.-.7 t L } h S : _ _ h } i f - h * D s ~ D } o S h a ",
"T ;.j S D L & | - = ) + $ , f ) : [ ( % ( 5 + & > > o n 8 { C V : g ) f i 7 G 3 L 2 2 f l f l l i h | f * _ : B j >.2 = 3 h f p ",
",.-.S . : f : & l S - l > f L ] 9 o o $ e ; 5 $ $ [ f a D & & f ; % + & . & ] 9 u t   } - q 5 $ i | $ l > , h . 1 s Q D = 9 n I ",
"'.q ) | q q h } q q * l _ h i 3 | 3 B q l $ % $ ' [ > f . + + $ ' ; ' ) < L i } r 9 | _ ) : l ) i : % e g 5 f h L X 7 7 . X I ).",
"| ; 5 ) $ $ l : = ) & < > | & > + ' & B + > ) ) & * * < } > l l > $ $ l l f = . 3 . o f ' + , f r r q 5 + e e f | | n C Z a R x ",
"& , 5 + ' ) ) , + ' $ < , 3 < * q , h L q ' ) * l l _ B - $ q _ | , , _ a o L 1 } | o - ; ' [ $ | V l l , 5 ( + < q > o | < e $ ",
"5 ; ' + ) l q , q : i 5 ' _ , * + % e q 3 | ~ V - < l | a q , i * f r i V w 1 D } B 3 i 5 % # [ > _ * _ q f ) ) i S * ' 5 * + g ",
"^ e q * q h i + % % e e 5 ' * $ 5 5 ' l - 9 7 ] r r w w t f ' _ & > . { R B _ L 9 = S S > e [ # @ , h < * $ & & & } : i > ; < e ",
"< # ' & h f i 3 | , e ; 5 > h * > ) _ & & D t h r . i h h X } | * ) - i 2 X & - o B i - > [ , ( % [ * . l 5 + [ $ - D S & ( ( _ ",
"6 m ! 5 B ..| i - ~ L : : * q : * f D 7 B D G k = < : B & q ' ) * f _ q , k   = & $ , f & & * + ( [ ; = ] 5 @ $ % [ ' * > $ # i ",
" .L ( [ g n R !.p 2 D a L f ' , 2 a = x : . 2 r ~ B & B k 3 h e % 5 ( @ ( e < < e @ ( # ; [ > > ' % e 5 i | 5 ' ) l ) * 3 < ) . ",
"U K # [ @ l ] X 1 f f - f * ) ' d 7 >.'.&.V V ] ] ] r } 9 2 r ~ + @ + % @ @ # > - & ( # ( g @ ( ' - < ; l . a | i _ , : V j D w ",
"A ~...> ( ; r _ h - e [ & < L j w P 7 8 b G ~ 2   p 9 k ~ r 9 o & % e + ! ( ; [ , , | q f S # @ + < i 3 ] X { r i : : h & _ k i ",
"} I {.R 5 @ ) X i p } : : l * : L h w 1 ] ] 2 D ] D ] } u Q o S l [ # 5 ) q L ' > < h B < > q g ; q 5 > _ p Q 9 q l f S B a   k ",
"8 R 8 a o [ [ } D L 1 & , i i a 8 X   ] w 2 X 8 u t b ] . 2 D o : [ @ ! ( + $ ; ) f < _ = ) q ; # [ e e ' q 1 r > g [ + ; f ] x ",
"B $ ( [ ' [ ( / i v D ~ f : 5 [ + & r z { 1 9 ] 2 w v R L L S ~ L q % @ % $ ) 5 l h = > l & e [ $ e ^ # g , o _ [ @ ! ( $ : * B ",
": < < ) > ; @ [ [ : } | 1 } | ' + > 2 3 : < ; ( @ 4 5 6 7 8 9 9   . + @ # $ + % & * = - ; > , ' ) ! ! % ' ~ { ] ; ! ^ / ( ) _ $ ",
"[ f f * f f f 5 e g , h i j = ) / + ' k k l 5 ; # m ( @ h < - n 0 0 a ; # % $ + & , & & * 5 % ; > @ ' 5 - b c d : e 5 % $ , + # ",
"( + , & , * | : [ g % 5 w p k : ' % 5 > l l e e / / / ^ + 5 % @ [ o d p   i f q q l < r = } r k i $ r ] s t u d v q l f ; + * ; ",
"& + ' ) q , * 3 l g ' e ~ ~ u r # # g e + & l > # / @ E g [ ' @ @ # q p x y z u - = o n s A B + 3 o ; 5 $ l + < C < = D > [ 5 $ ",
"& & l , * o = B & e ; [ & D w 0 L % ; : _ f + [ @ M M 4 @ @ # g / @ < 3 3 % $ B b F G H I J ~ B 1 . q ) _ > l 3 K | & o D ' : - ",
"= f h S f q } ] & [ % 4 [ = ~ 8 R / e $ _ * , ) % + + % / @ ! / # % , N O l ( / @ h w P Q 0 l l ) f 9 r R } h 3 j A f f i l _ } ",
"= S < : B B B a S * e g ' + o V p & e [ & e % @ ( % g 5 % g ' e ( ) 3 T 7 , [ @ ( ( > < ) ; e ; e e i < < S 9 D 7 U n f & = B w ",
"d p | | - S t 9 h _ < & & ' ) B p & p > , $ ; + & > $ q * ) R Y K f > q C < > $ . : % * _ ) , , $ e f 2 > + - < | 2 W X h ' _ S ",
"= . 3 = 9 p p B o _ B D f > ) : r o A z a _ q i S k ~ w { 3 o u ] S ( % { O U Z P C v L a 9 2 L | } 3 B f ; q , | o D Y O ~ ) * ",
"f S . o ~ b 8 < ) < h r r 5 g 5 l _ - 5 $ > ; ; $ e l ; o P D t X p a S b ` k $ a j S X L = r K b z | = > > _ f | | h p  .x & = ",
"1 . L R D { 8 . - , , < } 9 $ ; , , : h @ $ * w n R t k ~ b b   Q q f i L u ~ r z D ; & f , > < L ..9 | * & D . = h h i u I r 8 ",
"N v p t ..9 k } o p L & : : S & $ q q . = @ < 1 ] l > g e + , ' > + , i L 9 D a 2 i ' ' q l [ $ , & 1 o & h o L w < 5 ) L 8 +.{ ",
"z Q z P C k = } i f w ] a i S . w , > f U x | ) , q $ ; [ % ( # g g B r _ < | S h S i > + ; ( / ; * o 1 R 2 < & _ _ ' e * o Z @.",
"#.$.z W ] B 3 | - & l S - a _ L ~ ] S $ i T  .< S - * ' e e [ g 5 < a 5 , $ q : _ , ; ' g 5 * 5 l - D L V   < f $ & q 5 ' : j H ",
"%.&.2 7 y ~ - o S i ) * < = 2 9 L 3 2 | & . *.j | o h < * ) & f } ] i g @ % 5 & ' [ [ ; $ + > + $ = _ : f | = f * & & + $ l ~ W ",
"F ] : 9 I Q F n : < ) q f f h 3 k _ k w - ) < C p 3 r | B 3 } a z P ; 5 ' 5 * & * e ( % ( ( ; 5 ) 5 q ' q , * q i * $ . B D 1 Y ",
"u > : : = -.-.7 t L } h S : _ _ h } i f - h * D s ~ D } o S h a y 0 _ : D V 9 : h ' [ e ' l i _ q e ; $ 5 [ $ ; + - - . Z y H =.",
": g ) f i 7 G 3 L 2 2 f l f l l i h | f * _ : B j >.2 = 3 h f p T ;.j S D L & | - = ) + $ , f ) : [ ( % ( 5 + & > > o n 8 { C V ",
"; % + & . & ] 9 u t   } - q 5 $ i | $ l > , h . 1 s Q D = 9 n I ,.-.S . : f : & l S - l > f L ] 9 o o $ e ; 5 $ $ [ f a D & & f ",
"' ; ' ) < L i } r 9 | _ ) : l ) i : % e g 5 f h L X 7 7 . X I ).'.q ) | q q h } q q * l _ h i 3 | 3 B q l $ % $ ' [ > f . + + $ ",
"> $ $ l l f = . 3 . o f ' + , f r r q 5 + e e f | | n C Z a R x | ; 5 ) $ $ l : = ) & < > | & > + ' & B + > ) ) & * * < } > l l ",
"| , , _ a o L 1 } | o - ; ' [ $ | V l l , 5 ( + < q > o | < e $ & , 5 + ' ) ) , + ' $ < , 3 < * q , h L q ' ) * l l _ B - $ q _ ",
"* f r i V w 1 D } B 3 i 5 % # [ > _ * _ q f ) ) i S * ' 5 * + g 5 ; ' + ) l q , q : i 5 ' _ , * + % e q 3 | ~ V - < l | a q , i ",
"& > . { R B _ L 9 = S S > e [ # @ , h < * $ & & & } : i > ; < e ^ e q * q h i + % % e e 5 ' * $ 5 5 ' l - 9 7 ] r r w w t f ' _ ",
"* ) - i 2 X & - o B i - > [ , ( % [ * . l 5 + [ $ - D S & ( ( _ < # ' & h f i 3 | , e ; 5 > h * > ) _ & & D t h r . i h h X } | ",
"* f _ q , k   = & $ , f & & * + ( [ ; = ] 5 @ $ % [ ' * > $ # i 6 m ! 5 B ..| i - ~ L : : * q : * f D 7 B D G k = < : B & q ' ) ",
"% 5 ( @ ( e < < e @ ( # ; [ > > ' % e 5 i | 5 ' ) l ) * 3 < ) .  .L ( [ g n R !.p 2 D a L f ' , 2 a = x : . 2 r ~ B & B k 3 h e ",
"+ @ + % @ @ # > - & ( # ( g @ ( ' - < ; l . a | i _ , : V j D w U K # [ @ l ] X 1 f f - f * ) ' d 7 >.'.&.V V ] ] ] r } 9 2 r ~ ",
"& % e + ! ( ; [ , , | q f S # @ + < i 3 ] X { r i : : h & _ k i A ~...> ( ; r _ h - e [ & < L j w P 7 8 b G ~ 2   p 9 k ~ r 9 o ",
"l [ # 5 ) q L ' > < h B < > q g ; q 5 > _ p Q 9 q l f S B a   k } I {.R 5 @ ) X i p } : : l * : L h w 1 ] ] 2 D ] D ] } u Q o S ",
": [ @ ! ( + $ ; ) f < _ = ) q ; # [ e e ' q 1 r > g [ + ; f ] x 8 R 8 a o [ [ } D L 1 & , i i a 8 X   ] w 2 X 8 u t b ] . 2 D o ",
"L q % @ % $ ) 5 l h = > l & e [ $ e ^ # g , o _ [ @ ! ( $ : * B B $ ( [ ' [ ( / i v D ~ f : 5 [ + & r z { 1 9 ] 2 w v R L L S ~ "};
