/* XPM */
static char * door_a_xpm[] = {
"64 64 389 2",
"  	c #FF000000",
". 	c #737373",
"+ 	c #737371",
"@ 	c #717371",
"# 	c #717171",
"$ 	c #737171",
"% 	c #717173",
"& 	c #737173",
"* 	c #717373",
"= 	c #AAAAAA",
"- 	c #A9A9AA",
"; 	c #AAAAA9",
"> 	c #707171",
", 	c #717071",
"' 	c #707170",
") 	c #A9AAA9",
"! 	c #A9A9A9",
"~ 	c #AAA9AA",
"{ 	c #A9AAAA",
"] 	c #AAA9A9",
"^ 	c #707071",
"/ 	c #707070",
"( 	c #A9A8A9",
"_ 	c #A8A8A9",
": 	c #A9A9A8",
"< 	c #A8A9A9",
"[ 	c #6F7070",
"} 	c #70706F",
"| 	c #706F6F",
"1 	c #A8A8A8",
"2 	c #A9A8A8",
"3 	c #A8A9A8",
"4 	c #000000",
"5 	c #FFFF00",
"6 	c #6F6F6F",
"7 	c #6D6F6F",
"8 	c #6F6D6F",
"9 	c #A8A7A7",
"0 	c #A8A8A7",
"a 	c #A7A8A7",
"b 	c #A7A8A8",
"c 	c #A7A7A8",
"d 	c #A8A7A8",
"e 	c #6D6D6F",
"f 	c #6D6D6D",
"g 	c #A7A7A7",
"h 	c #6F6D6D",
"i 	c #6D6C6C",
"j 	c #6D6D6C",
"k 	c #A6A6A7",
"l 	c #A6A7A7",
"m 	c #A7A7A6",
"n 	c #A6A7A6",
"o 	c #A7A6A6",
"p 	c #A7A6A7",
"q 	c #A6A6A6",
"r 	c #6C6D6C",
"s 	c #6C6D6D",
"t 	c #6C6C6C",
"u 	c #6B6B6B",
"v 	c #6B6C6C",
"w 	c #A5A5A6",
"x 	c #A6A6A5",
"y 	c #A5A6A6",
"z 	c #A6A5A6",
"A 	c #A5A5A5",
"B 	c #A5A6A5",
"C 	c #A6A5A5",
"D 	c #6B6C6B",
"E 	c #A5A5A4",
"F 	c #69696B",
"G 	c #696B69",
"H 	c #A5A4A4",
"I 	c #A4A4A5",
"J 	c #A4A5A5",
"K 	c #A4A4A4",
"L 	c #A4A5A4",
"M 	c #A5A4A5",
"N 	c #6B696B",
"O 	c #6B6969",
"P 	c #686969",
"Q 	c #696969",
"R 	c #A3A4A4",
"S 	c #A4A4A3",
"T 	c #A4A3A4",
"U 	c #686968",
"V 	c #686868",
"W 	c #A3A3A3",
"X 	c #A3A3A4",
"Y 	c #A3A4A3",
"Z 	c #A4A3A3",
"` 	c #696869",
" .	c #696868",
"..	c #686867",
"+.	c #A3A2A3",
"@.	c #A2A3A3",
"#.	c #A3A3A2",
"$.	c #A2A2A3",
"%.	c #A2A3A2",
"&.	c #A3A2A2",
"*.	c #676768",
"=.	c #686768",
"-.	c #676767",
";.	c #A2A2A2",
">.	c #666766",
",.	c #676766",
"'.	c #A1A2A2",
").	c #A1A1A2",
"!.	c #A2A1A2",
"~.	c #A1A1A1",
"{.	c #A2A1A1",
"].	c #A2A2A1",
"^.	c #666667",
"/.	c #666666",
"(.	c #A1A2A1",
"_.	c #676667",
":.	c #666664",
"<.	c #646666",
"[.	c #A1A1A0",
"}.	c #A1A0A0",
"|.	c #A0A0A0",
"1.	c #A0A0A1",
"2.	c #A0A1A1",
"3.	c #A0A1A0",
"4.	c #A1A0A1",
"5.	c #666464",
"6.	c #646464",
"7.	c #636363",
"8.	c #646363",
"9.	c #9F9F9F",
"0.	c #9FA0A0",
"a.	c #A09F9F",
"b.	c #9F9FA0",
"c.	c #A0A09F",
"d.	c #A09FA0",
"e.	c #9FA09F",
"f.	c #636464",
"g.	c #636364",
"h.	c #9E9F9F",
"i.	c #9F9E9F",
"j.	c #626262",
"k.	c #9E9E9E",
"l.	c #9E9E9F",
"m.	c #9F9F9E",
"n.	c #9F9E9E",
"o.	c #636362",
"p.	c #626363",
"q.	c #626261",
"r.	c #9D9E9D",
"s.	c #9E9D9E",
"t.	c #9E9E9D",
"u.	c #9D9E9E",
"v.	c #626162",
"w.	c #616161",
"x.	c #9E9D9D",
"y.	c #9D9D9D",
"z.	c #9D9D9E",
"A.	c #616261",
"B.	c #616262",
"C.	c #9C9D9D",
"D.	c #9D9C9D",
"E.	c #9C9C9D",
"F.	c #9D9D9C",
"G.	c #9C9D9C",
"H.	c #5F6161",
"I.	c #61615F",
"J.	c #9C9C9C",
"K.	c #9D9C9C",
"L.	c #5F5F5F",
"M.	c #615F5F",
"N.	c #5F5F5E",
"O.	c #5E5E5F",
"P.	c #9B9C9C",
"Q.	c #9C9C9B",
"R.	c #9C9B9C",
"S.	c #9B9B9B",
"T.	c #9B9B9C",
"U.	c #9B9C9B",
"V.	c #5E5E5E",
"W.	c #5F5E5F",
"X.	c #9C9B9B",
"Y.	c #5E5E5D",
"Z.	c #5E5D5E",
"`.	c #9A9A9B",
" +	c #9A9B9A",
".+	c #9B9A9A",
"++	c #9B9A9B",
"@+	c #9A9B9B",
"#+	c #5D5E5E",
"$+	c #5D5D5D",
"%+	c #9A9A9A",
"&+	c #5C5C5D",
"*+	c #9A999A",
"=+	c #9A9999",
"-+	c #99999A",
";+	c #999A99",
">+	c #999A9A",
",+	c #9A9A99",
"'+	c #999999",
")+	c #5D5C5D",
"!+	c #5D5D5C",
"~+	c #5C5C5C",
"{+	c #999899",
"]+	c #999998",
"^+	c #5B5C5C",
"/+	c #5B5B5B",
"(+	c #989999",
"_+	c #989898",
":+	c #989899",
"<+	c #989998",
"[+	c #999898",
"}+	c #5B5B5C",
"|+	c #979898",
"1+	c #989897",
"2+	c #989798",
"3+	c #595B5B",
"4+	c #595B59",
"5+	c #979798",
"6+	c #979797",
"7+	c #979897",
"8+	c #989797",
"9+	c #5B5959",
"0+	c #595959",
"a+	c #595958",
"b+	c #969797",
"c+	c #969696",
"d+	c #979696",
"e+	c #979697",
"f+	c #979796",
"g+	c #595859",
"h+	c #585858",
"i+	c #585958",
"j+	c #969796",
"k+	c #969697",
"l+	c #575858",
"m+	c #959695",
"n+	c #969695",
"o+	c #959596",
"p+	c #959696",
"q+	c #969595",
"r+	c #969596",
"s+	c #575758",
"t+	c #585758",
"u+	c #585857",
"v+	c #575757",
"w+	c #959595",
"x+	c #575756",
"y+	c #959494",
"z+	c #949595",
"A+	c #959594",
"B+	c #949594",
"C+	c #959495",
"D+	c #575657",
"E+	c #565656",
"F+	c #565756",
"G+	c #949494",
"H+	c #949495",
"I+	c #939394",
"J+	c #949393",
"K+	c #939493",
"L+	c #939393",
"M+	c #949493",
"N+	c #939494",
"O+	c #949394",
"P+	c #565555",
"Q+	c #555555",
"R+	c #939293",
"S+	c #929293",
"T+	c #939392",
"U+	c #555554",
"V+	c #929392",
"W+	c #929292",
"X+	c #939292",
"Y+	c #929393",
"Z+	c #555454",
"`+	c #545455",
" @	c #545454",
".@	c #545452",
"+@	c #929191",
"@@	c #929291",
"#@	c #919292",
"$@	c #929192",
"%@	c #919192",
"&@	c #525454",
"*@	c #525252",
"=@	c #545252",
"-@	c #919191",
";@	c #919291",
">@	c #545254",
",@	c #525254",
"'@	c #525251",
")@	c #909190",
"!@	c #919190",
"~@	c #919091",
"{@	c #919090",
"]@	c #909191",
"^@	c #515152",
"/@	c #909091",
"(@	c #909090",
"_@	c #515151",
":@	c #515051",
"<@	c #8F9090",
"[@	c #90908F",
"}@	c #908F90",
"|@	c #908F8F",
"1@	c #8F8F90",
"2@	c #8F908F",
"3@	c #505151",
"4@	c #505051",
"5@	c #505050",
"6@	c #8F8F8F",
"7@	c #505150",
"8@	c #4F4F50",
"9@	c #4F5050",
"0@	c #8E8E8E",
"a@	c #8F8E8F",
"b@	c #8E8E8F",
"c@	c #8F8F8E",
"d@	c #8F8E8E",
"e@	c #8E8F8E",
"f@	c #8E8F8F",
"g@	c #504F4F",
"h@	c #4F4F4F",
"i@	c #4F4E4F",
"j@	c #4E4E4F",
"k@	c #8D8E8E",
"l@	c #8E8D8E",
"m@	c #8E8D8D",
"n@	c #8D8E8D",
"o@	c #8D8D8D",
"p@	c #8D8D8E",
"q@	c #8E8E8D",
"r@	c #4E4F4E",
"s@	c #4E4E4E",
"t@	c #8C8D8D",
"u@	c #8D8C8D",
"v@	c #8D8D8C",
"w@	c #4E4D4E",
"x@	c #4D4E4E",
"y@	c #4D4D4D",
"z@	c #4D4D4E",
"A@	c #8D8C8C",
"B@	c #8C8C8C",
"C@	c #8C8C8D",
"D@	c #8C8D8C",
"E@	c #4E4E4D",
"F@	c #8C8B8C",
"G@	c #8B8C8C",
"H@	c #8B8B8C",
"I@	c #8C8B8B",
"J@	c #8C8C8B",
"K@	c #4D4C4C",
"L@	c #4C4D4D",
"M@	c #4C4C4D",
"N@	c #4C4D4C",
"O@	c #8B8C8B",
"P@	c #8B8B8B",
"Q@	c #4D4C4D",
"R@	c #4C4C4B",
"S@	c #8A8B8B",
"T@	c #8A8A8B",
"U@	c #8B8B8A",
"V@	c #8B8A8B",
"W@	c #8B8A8A",
"X@	c #8A8A8A",
"Y@	c #4C4C4C",
"Z@	c #4B4B4B",
"`@	c #8A8B8A",
" #	c #4B4B4C",
".#	c #4B4A4B",
"+#	c #898A89",
"@#	c #898989",
"##	c #8A898A",
"$#	c #89898A",
"%#	c #898A8A",
"&#	c #8A8989",
"*#	c #8A8A89",
"=#	c #4B4B4A",
"-#	c #4A4A4A",
";#	c #4A4A4B",
">#	c #4A4B4A",
",#	c #4B4A4A",
"'#	c #4A494A",
")#	c #494A49",
"!#	c #49494A",
"~#	c #4A4A49",
"{#	c #494949",
"]#	c #4A4949",
"^#	c #494A4A",
". . . . . . . . . . . . . . . . . . . . . . . . .                                                                               ",
"+ . @ . # $ . + % $ # % @ & $ @ $ + * & % & @ * % @                                                                             ",
"# # = = = = = = = = = = = = - = = = ; = = = = = # > >                                                                           ",
", ' ; = ) ! ~ ! { - ) ] = ! ) ] ! { ] ! - ] = ] ) ^ ' ,                                                                         ",
"/ / ! ( ! ! ! ! ! ! _ : ! < ! : ! ! < < ( : ! < ! < [ / /                                                                       ",
"} | _ 1 2 1 1 3 _ ! 1 2 : 3 2 1 1 1 4 5 5 5 _ 1 1 1 < 6 6 |                                                                     ",
"7 8 1 9 1 1 0 a 1 1 a a 0 1 0 1 b 1 1 5 5 4 4 b c 1 1 d 6 7 e                                                                   ",
"f f 0 9 b g g g g g g g c a g c g a c g 4 4 4 5 g g g c g f f h                                                                 ",
"i j k l m g n o m g p g l p q q k l g q k 4 5 5 5 g l m n g r f s                                                               ",
"t t q k q q q q q q q q q q q q q q q m q o 5 5 4 4 q k k q q t t t                                                             ",
"u v w q x q w y z w q A B z C C z z w C C y y 4 4 4 5 C x x B C v u D                                                           ",
"u u A A A A A A A A A A A A A A E E A A A A A A 4 5 5 5 A A A A A u u u                                                         ",
"F G E E E A H I A J K K E K L J K H K A L H A M J 5 5 4 4 I K E I I N O u                                                       ",
"P Q K R K R S K K K T K K K K K K K R K K K K K K K 4 4 4 5 K R R K K Q P Q                                                     ",
"U V W S X S X W S Y W W Y T W Z W Z K X Z S X W W X Z 4 5 5 5 Y R T W W ` V  .                                                  ",
"V ..W +.W @.W W +.+.W W #.$.@.+.#.%.&.W +.@.W W &.@.$.@.5 5 4 4 &.W W #.W V V *.                                                ",
"=.-.%.$.;.%.;.;.;.;.;.%.;.;.%.%.;.#.&.#.;.;.;.#.%.;.&.5 5 4 4 $.;.;.;.$.-.-.-.                                                  ",
">.,.;.;.;.'.).;.;.!.;.~.!.;.{.'.'.;.].!.!.].~.).;.;.5 5 4 4 ).).!.;.'.-.>.-.                                                    ",
"^./.(.).~.!.].~.~.~.~.~.(.{.~.{.{.).~.~.~.~.~.~.;.5 5 4 4 ~.{.~.~.~._.^./.                                                      ",
":.<.[.}.|.[.1.2.3.4.|.~.4.4.4.[.[.3.2.[.[.~.2.2.5 5 4 4 1.3.[.}.2.5./.6.                                                        ",
"6.6.|.|.|.|.1.|.|.|.|.}.1.|.3.|.|.[.|.|.|.|.|.5 5 4 4 |.|.|.|.|.6.6.6.                                                          ",
"7.8.9.0.a.b.b.9.c.d.|.e.b.c.|.c.a.c.0.a.c.|.5 5 4 4 c.|.|.d.c.f.6.g.                                                            ",
"7.7.9.9.9.9.9.9.9.9.9.9.9.h.9.9.9.9.9.9.9.5 5 4 4 9.9.9.i.9.7.7.7.                                                              ",
"j.j.h.k.9.h.l.k.h.h.m.n.k.n.i.n.h.i.l.n.5 5 4 4 n.k.k.h.m.o.7.p.                                                                ",
"q.j.k.k.r.s.s.t.s.k.k.k.k.k.k.s.k.u.k.5 5 4 4 k.u.k.k.k.j.j.j.                                                                  ",
"v.w.x.y.s.x.x.y.y.y.y.x.u.z.z.z.r.z.5 5 4 4 y.u.s.y.x.A.B.B.                                                                    ",
"w.w.y.C.D.y.E.y.F.F.F.D.G.G.y.y.y.5 5 4 4 D.y.y.y.y.w.H.w.                                                                      ",
"I.w.J.J.C.J.K.G.G.C.J.K.E.J.D.D.5 5 4 4 C.E.J.G.E.L.L.M.                                                                        ",
"N.O.P.Q.R.J.J.J.R.S.J.S.T.Q.S.R.5 4 4 4 P.U.Q.Q.V.L.W.                                                                          ",
"L.W.U.S.T.U.X.S.S.S.U.S.S.X.S.5 4 4 4 S.S.S.S.V.V.V.                                                                            ",
"Y.Z.`.S. +.+ +++.+++@+`..+`.`.4 4 4 5 S. +++V.Z.#+                                                                              ",
"$+$+%+%+%+%+%+%+%+%+%+%+%+%+%+4 4 5 5 %+.+%+$+$+                                                                                ",
"&+$+*+=+-+;+;+-+>+=+,+'+>+,+>+4 5 5 5 -+*+>+$+)+!+                                                                              ",
"~+~+'+'+'+'+{+'+'+'+'+'+'+'+]+5 5 5 4 '+'+'+'+~+~+~+                                                                            ",
"^+/+(+_+(+(+(+:+'+<+[+(+]+{+:+[+5 4 4 4 '+:+_+(+}+~+~+                                                                          ",
"/+/+_+_+_+_+|+_+_+_+_+_+|+_+_+_+4 4 4 5 _+1+2+_+_+/+/+3+                                                                        ",
"4+4+_+5+1+2+6+6+6+5+7+2+5+5+6+6+7+4 5 5 5 8+|+8+8+2+9+0+0+                                                                      ",
"0+a+b+6+6+b+b+c+b+d+e+6+f+b+e+d+e+e+5 5 4 4 6+6+f+6+6+a+0+g+                                                                    ",
"h+i+j+c+j+k+j+d+k+c+c+c+e+c+c+c+c+c+f+4 4 4 5 e+j+c+k+c+h+h+i+                                                                  ",
"h+l+m+n+c+c+n+n+o+c+c+p+m+p+q+c+n+r+p+n+4 5 5 5 r+c+c+c+c+s+t+u+                                                                ",
"v+v+w+w+w+w+w+w+w+w+w+m+o+w+w+m+m+w+w+o+o+5 5 4 4 w+r+w+q+w+v+s+v+                                                              ",
"x+v+y+z+y+z+A+z+B+y+z+z+B+w+C+w+A+B+w+C+C+y+4 4 4 5 y+y+C+y+A+D+v+D+                                                            ",
"E+F+G+G+G+G+G+G+G+G+G+G+H+B+G+G+G+G+G+G+G+B+G+4 5 5 5 G+H+G+G+G+E+E+E+                                                          ",
"E+E+I+J+K+L+G+K+M+K+G+N+N+N+N+N+K+O+G+M+L+N+I+N+5 5 4 4 M+O+I+G+G+P+Q+P+                                                        ",
"Q+Q+L+L+L+L+L+L+L+L+L+L+R+L+L+S+L+L+L+L+L+R+L+L+T+4 4 4 5 L+L+L+L+L+Q+Q+Q+                                                      ",
"U+U+L+V+V+W+W+S+X+X+X+V+T+L+X+S+S+S+Y+W+W+L+W+X+W+Y+4 5 5 5 X+V+X+W+W+Z+`+Z+                                                    ",
" @.@W+W++@W+@@#@W+W+W+@@$@W+$@@@W+W+W+W+$@%@@@@@$@W+W+5 5 4 4 +@W+#@W+#@ @ @&@                                                  ",
"*@=@+@-@-@#@-@%@#@-@-@+@$@$@+@+@@@-@-@;@+@;@@@#@+@@@-@-@4 4 4 5 ;@@@-@;@-@>@ @,@                                                ",
"'@*@)@!@~@!@~@-@~@-@-@~@-@-@-@{@-@-@]@]@-@-@~@-@)@-@!@4 4 4 5 -@!@{@]@]@*@*@^@                                                  ",
"'@^@/@{@(@/@(@(@/@(@(@(@(@(@{@(@)@(@(@(@/@(@)@(@(@(@4 4 4 5 (@(@(@)@(@_@_@'@                                                    ",
":@_@<@[@(@[@}@|@}@(@1@}@2@[@}@[@[@1@}@|@(@(@(@<@[@4 4 4 5 [@(@(@}@[@:@3@4@                                                      ",
"5@4@6@1@6@6@1@6@6@6@6@[@2@6@6@6@6@6@6@1@6@6@6@6@4 4 4 5 6@6@6@|@|@7@4@5@                                                        ",
"8@9@6@0@a@b@c@b@d@b@c@0@a@a@d@6@e@6@d@6@f@c@c@4 4 4 5 e@a@6@b@f@9@g@9@                                                          ",
"h@h@0@0@0@0@0@0@0@0@0@d@0@0@0@0@0@0@0@0@0@0@4 4 4 5 0@0@0@0@0@h@h@h@                                                            ",
"i@j@k@l@m@n@o@p@m@l@q@p@o@0@n@o@p@k@k@n@m@4 4 4 5 p@l@p@k@m@r@r@r@                                                              ",
"s@s@o@o@t@o@t@o@t@o@o@o@o@o@o@o@o@u@t@o@4 4 4 5 o@v@o@v@o@w@x@s@                                                                ",
"y@z@A@B@u@A@t@u@o@B@o@u@v@B@A@t@t@B@C@4 4 4 5 v@D@B@A@B@z@E@E@                                                                  ",
"y@y@B@B@B@F@G@B@H@B@B@B@G@G@I@B@B@J@4 4 4 5 F@B@B@B@B@K@L@L@                                                                    ",
"M@N@O@O@P@F@G@O@P@P@O@P@P@H@O@J@J@4 4 4 5 P@P@O@I@O@y@Q@M@                                                                      ",
"R@R@S@T@U@V@P@P@U@S@P@P@U@S@W@U@P@P@V@U@X@P@S@S@P@Y@Y@Y@                                                                        ",
"Z@Z@X@X@X@S@`@W@X@`@X@`@X@X@X@X@X@X@X@X@`@W@W@X@ #Z@Z@                                                                          ",
"Z@.#X@+#@#+###X@$#%#&#@#X@$#+#X@X@+#%#%#*#%#%#.#=#Z@                                                                            ",
"-#-#-#-#-#;#-#>#-#-#-#;#,#-#-#-#-#-#-#-#>#>#-#,#-#                                                                              ",
"'#)#-#!#~#!#~#{#]#)#-#)#^#~#)#!#!#^#!#!#-#~#!#'#                                                                                "};
