/* XPM */
static char * door_b_xpm[] = {
"64 64 389 2",
"  	c #FF000000",
". 	c #737373",
"+ 	c #737171",
"@ 	c #717173",
"# 	c #717373",
"$ 	c #737173",
"% 	c #717171",
"& 	c #717371",
"* 	c #737371",
"= 	c #717170",
"- 	c #AAAAAA",
"; 	c #A9AAAA",
"> 	c #AAAAA9",
", 	c #707170",
"' 	c #707071",
") 	c #AAA9AA",
"! 	c #A9A9AA",
"~ 	c #A9A9A9",
"{ 	c #A9AAA9",
"] 	c #AAA9A9",
"^ 	c #707070",
"/ 	c #6F706F",
"( 	c #A9A8A9",
"_ 	c #A9A9A8",
": 	c #A8A8A8",
"< 	c #A9A8A8",
"[ 	c #6F7070",
"} 	c #6F6F6F",
"| 	c #A8A9A8",
"1 	c #FFFF00",
"2 	c #000000",
"3 	c #A8A9A9",
"4 	c #A8A8A9",
"5 	c #6F6F70",
"6 	c #6D6F6F",
"7 	c #6F6D6F",
"8 	c #A7A7A8",
"9 	c #A7A8A8",
"0 	c #A8A7A8",
"a 	c #A8A8A7",
"b 	c #A8A7A7",
"c 	c #A7A8A7",
"d 	c #6F6D6D",
"e 	c #6D6D6D",
"f 	c #A7A7A7",
"g 	c #6D6F6D",
"h 	c #6D6D6C",
"i 	c #6C6C6C",
"j 	c #6C6D6D",
"k 	c #A6A7A7",
"l 	c #A7A6A7",
"m 	c #A7A7A6",
"n 	c #A7A6A6",
"o 	c #A6A7A6",
"p 	c #6C6C6D",
"q 	c #A6A6A6",
"r 	c #A6A6A7",
"s 	c #6C6B6B",
"t 	c #6B6C6B",
"u 	c #A6A5A5",
"v 	c #A5A6A5",
"w 	c #A6A6A5",
"x 	c #A6A5A6",
"y 	c #A5A5A5",
"z 	c #A5A5A6",
"A 	c #A5A6A6",
"B 	c #6B6B6C",
"C 	c #6B6B6B",
"D 	c #A5A4A5",
"E 	c #696969",
"F 	c #69696B",
"G 	c #6B6969",
"H 	c #A5A4A4",
"I 	c #A5A5A4",
"J 	c #A4A5A5",
"K 	c #A4A4A5",
"L 	c #A4A4A4",
"M 	c #A4A5A4",
"N 	c #696B69",
"O 	c #686969",
"P 	c #A4A3A4",
"Q 	c #696869",
"R 	c #686868",
"S 	c #686869",
"T 	c #A3A4A3",
"U 	c #A4A3A3",
"V 	c #A4A4A3",
"W 	c #A3A3A4",
"X 	c #A3A3A3",
"Y 	c #686968",
"Z 	c #A2A3A3",
"` 	c #A3A2A3",
" .	c #A3A3A2",
"..	c #A3A2A2",
"+.	c #A2A2A3",
"@.	c #686867",
"#.	c #676767",
"$.	c #686768",
"%.	c #A2A2A2",
"&.	c #A2A3A2",
"*.	c #676868",
"=.	c #676766",
"-.	c #666767",
";.	c #676666",
">.	c #A1A2A2",
",.	c #A1A1A2",
"'.	c #A2A2A1",
").	c #A2A1A1",
"!.	c #A2A1A2",
"~.	c #A1A2A1",
"{.	c #666766",
"].	c #676667",
"^.	c #666666",
"/.	c #666667",
"(.	c #A1A1A1",
"_.	c #666466",
":.	c #646666",
"<.	c #A0A1A0",
"[.	c #A1A0A1",
"}.	c #A0A1A1",
"|.	c #A0A0A1",
"1.	c #A0A0A0",
"2.	c #A1A1A0",
"3.	c #666464",
"4.	c #646664",
"5.	c #646464",
"6.	c #646466",
"7.	c #A1A0A0",
"8.	c #646463",
"9.	c #636364",
"0.	c #646364",
"a.	c #9FA0A0",
"b.	c #A09F9F",
"c.	c #A0A09F",
"d.	c #9FA09F",
"e.	c #9F9F9F",
"f.	c #A09FA0",
"g.	c #9F9FA0",
"h.	c #636463",
"i.	c #636363",
"j.	c #9E9F9F",
"k.	c #9F9F9E",
"l.	c #626263",
"m.	c #626262",
"n.	c #636362",
"o.	c #9E9E9E",
"p.	c #9F9E9F",
"q.	c #9E9E9F",
"r.	c #9F9E9E",
"s.	c #9E9F9E",
"t.	c #636263",
"u.	c #9D9E9E",
"v.	c #9E9D9E",
"w.	c #9E9D9D",
"x.	c #9E9E9D",
"y.	c #9D9E9D",
"z.	c #616262",
"A.	c #626162",
"B.	c #616161",
"C.	c #616162",
"D.	c #9D9D9D",
"E.	c #9D9D9E",
"F.	c #616261",
"G.	c #61615F",
"H.	c #5F6161",
"I.	c #9D9D9C",
"J.	c #9D9C9C",
"K.	c #9C9D9D",
"L.	c #9C9D9C",
"M.	c #9C9C9D",
"N.	c #5F5F5F",
"O.	c #5F5F61",
"P.	c #9C9C9C",
"Q.	c #9D9C9D",
"R.	c #9B9C9B",
"S.	c #9B9C9C",
"T.	c #9B9B9B",
"U.	c #9C9B9C",
"V.	c #9C9B9B",
"W.	c #9C9C9B",
"X.	c #9B9B9C",
"Y.	c #5E5E5F",
"Z.	c #5F5F5E",
"`.	c #5E5E5E",
" +	c #5F5E5E",
".+	c #5E5E5D",
"++	c #5D5E5D",
"@+	c #5E5D5D",
"#+	c #9A9A9B",
"$+	c #9A9B9A",
"%+	c #9A9B9B",
"&+	c #9B9B9A",
"*+	c #9B9A9B",
"=+	c #9B9A9A",
"-+	c #9A9A9A",
";+	c #5E5D5E",
">+	c #5D5D5D",
",+	c #5D5C5C",
"'+	c #5C5D5C",
")+	c #999A99",
"!+	c #999A9A",
"~+	c #99999A",
"{+	c #9A999A",
"]+	c #9A9999",
"^+	c #9A9A99",
"/+	c #999999",
"(+	c #5D5C5D",
"_+	c #5C5C5C",
":+	c #989999",
"<+	c #5B5C5C",
"[+	c #5C5B5B",
"}+	c #5B5B5C",
"|+	c #989998",
"1+	c #989898",
"2+	c #999898",
"3+	c #999998",
"4+	c #999899",
"5+	c #989899",
"6+	c #5C5B5C",
"7+	c #595B5B",
"8+	c #5B5B5B",
"9+	c #989897",
"0+	c #989798",
"a+	c #59595B",
"b+	c #5B5959",
"c+	c #595959",
"d+	c #979797",
"e+	c #989797",
"f+	c #979898",
"g+	c #979798",
"h+	c #979897",
"i+	c #595B59",
"j+	c #585959",
"k+	c #595859",
"l+	c #979796",
"m+	c #969696",
"n+	c #969797",
"o+	c #969796",
"p+	c #969697",
"q+	c #979697",
"r+	c #585958",
"s+	c #979696",
"t+	c #585757",
"u+	c #585857",
"v+	c #585758",
"w+	c #959596",
"x+	c #959696",
"y+	c #969596",
"z+	c #969695",
"A+	c #969595",
"B+	c #959595",
"C+	c #585858",
"D+	c #575758",
"E+	c #575757",
"F+	c #959695",
"G+	c #565656",
"H+	c #575657",
"I+	c #949595",
"J+	c #949494",
"K+	c #959594",
"L+	c #949495",
"M+	c #959494",
"N+	c #949594",
"O+	c #959495",
"P+	c #565757",
"Q+	c #565556",
"R+	c #555556",
"S+	c #555656",
"T+	c #949394",
"U+	c #949393",
"V+	c #949493",
"W+	c #939394",
"X+	c #939493",
"Y+	c #939494",
"Z+	c #565655",
"`+	c #555555",
" @	c #545555",
".@	c #939393",
"+@	c #939293",
"@@	c #555454",
"#@	c #929393",
"$@	c #929293",
"%@	c #939392",
"&@	c #929292",
"*@	c #939292",
"=@	c #929392",
"-@	c #545454",
";@	c #545452",
">@	c #545254",
",@	c #929291",
"'@	c #919292",
")@	c #929192",
"!@	c #525254",
"~@	c #525452",
"{@	c #919191",
"]@	c #919192",
"^@	c #929191",
"/@	c #525252",
"(@	c #515152",
"_@	c #919091",
":@	c #919190",
"<@	c #919090",
"[@	c #909191",
"}@	c #525251",
"|@	c #515151",
"1@	c #909090",
"2@	c #909190",
"3@	c #515251",
"4@	c #505051",
"5@	c #515051",
"6@	c #8F9090",
"7@	c #90908F",
"8@	c #8F8F8F",
"9@	c #908F90",
"0@	c #515150",
"a@	c #505050",
"b@	c #908F8F",
"c@	c #8F908F",
"d@	c #505150",
"e@	c #4F5050",
"f@	c #50504F",
"g@	c #8F8E8E",
"h@	c #8E8E8E",
"i@	c #8F8F8E",
"j@	c #8E8F8F",
"k@	c #8E8F8E",
"l@	c #8E8E8F",
"m@	c #4F4F4F",
"n@	c #4E4F4E",
"o@	c #4F4F4E",
"p@	c #8D8D8E",
"q@	c #8E8E8D",
"r@	c #8D8E8E",
"s@	c #8E8D8D",
"t@	c #8D8E8D",
"u@	c #4E4E4E",
"v@	c #4D4E4E",
"w@	c #8D8D8D",
"x@	c #8D8D8C",
"y@	c #8C8D8D",
"z@	c #4E4E4D",
"A@	c #4D4E4D",
"B@	c #8C8D8C",
"C@	c #8C8C8C",
"D@	c #8C8C8D",
"E@	c #8D8C8D",
"F@	c #4D4D4D",
"G@	c #4C4D4D",
"H@	c #8C8B8C",
"I@	c #8B8C8C",
"J@	c #8C8C8B",
"K@	c #8B8C8B",
"L@	c #4C4C4D",
"M@	c #4C4C4C",
"N@	c #4C4D4C",
"O@	c #8B8B8B",
"P@	c #8B8B8C",
"Q@	c #8C8B8B",
"R@	c #4D4C4D",
"S@	c #4C4C4B",
"T@	c #4B4C4C",
"U@	c #8A8B8A",
"V@	c #8B8B8A",
"W@	c #8A8B8B",
"X@	c #8B8A8B",
"Y@	c #8A8A8B",
"Z@	c #8B8A8A",
"`@	c #8A8A8A",
" #	c #4B4B4B",
".#	c #4B4C4B",
"+#	c #4A4B4B",
"@#	c #4B4B4A",
"##	c #898989",
"$#	c #8A898A",
"%#	c #898A8A",
"&#	c #898A89",
"*#	c #8A8A89",
"=#	c #89898A",
"-#	c #8A8989",
";#	c #4A4B4A",
">#	c #4A4A4A",
",#	c #4A4A4B",
"'#	c #494A49",
")#	c #4A494A",
"!#	c #49494A",
"~#	c #494949",
"{#	c #4A4949",
"]#	c #494A4A",
"^#	c #4A4A49",
"                                                  . . . . . . . . . . . . . . . . . . . . . . . . . . . . . . . . . . . . . . . ",
"                                                    + . @ + # . @ $ $ + % @ . # @ % $ % % . + @ # & . @ @ * + % $ # @ & . . $ % ",
"                                                      % % = - - - - - - ; - - - - > - - - - - - - - > - - - - - > > - ; > - = % ",
"                                                        , ' ' ) ! ~ ! ) ) ~ ~ ! { ! ~ ! ~ { ) ; ] > - { ) { ] ! ! ) { ) { ~ ^ ' ",
"                                                          / ^ ^ ~ ~ ( ~ _ ~ ~ ~ ~ ~ ~ ~ : ~ ~ ( ~ ~ ~ < _ _ ~ ~ ( _ ~ ~ ~ ~ [ [ ",
"                                                            / / } _ < _ | < 1 1 2 2 : 3 _ | 4 : : : | : 3 : | : : : 4 : : : [ 5 ",
"                                                              6 7 } 8 9 0 a 0 2 2 2 1 b a : : : : 0 : 9 : b 9 : a : 0 c : 9 d d ",
"                                                                e e e 8 b f f f 2 1 1 1 b f f f a f f f f c b 8 c 9 f f b 8 e g ",
"                                                                  h i j k f f l f 1 1 2 2 f f m m f l l f n l o f m l k l n j p ",
"                                                                    i i i q q q q q 2 2 2 1 o q q o o q q q q q q r q q q q i i ",
"                                                                      s i t u v w x y 2 1 1 1 y z v v A z v A z A w u v A v i B ",
"                                                                        C C C y y y y y 1 1 2 2 y y y y y y y y y D y y y y C C ",
"                                                                          E F G H I H J 1 2 2 2 K L I M H K D y L J D M H J F N ",
"                                                                            E O E L L L L 2 2 1 1 P L L L P L L L L L L L L Q E ",
"                                                                              R R S T T U 2 1 1 1 V U W U W U P W U V X P T Y E ",
"                                                                                R R X X X 1 1 1 2 Z X ` Z X ` X X  .` X ..+.R @.",
"                                                                              #.$.#.Z %.+.1 1 2 2 ..%.&.&.%.+.%.&...%... .` #.*.",
"                                                                            =.-.;.>.%.,.'.1 2 2 2 >.).%.%.'.!.>.).>.~.%.'.%.{.].",
"                                                                          ^.^./.(.'.(.(.1 2 2 2 ~.(.(.(.~.(.~.).(.!.(.(.).(.^.;.",
"                                                                        ^._.:.<.(.[.}.(.2 2 2 1 }.(.[.(.|.(.1.1.2.}.|.<.[.}.3.4.",
"                                                                      5.6.5.1.1.1.1.7.2 2 2 1 1.|.1.1.1.1.7.|.1.1.1.1.1.1.1.5.5.",
"                                                                    8.9.0.a.a.b.a.c.2 2 2 1 1.b.d.b.1.d.1.b.e.f.g.1.d.d.b.f.h.i.",
"                                                                  i.i.i.j.e.k.e.e.2 2 2 1 j.e.e.e.e.e.e.e.e.e.e.e.e.e.j.k.e.i.i.",
"                                                                l.m.n.o.o.p.p.q.2 2 2 1 r.k.s.r.k.q.q.o.r.q.o.e.o.q.s.j.s.s.t.n.",
"                                                              m.m.m.o.o.o.u.o.2 2 2 1 v.o.w.o.o.o.o.o.x.o.o.x.x.o.o.o.o.v.y.z.m.",
"                                                            A.B.C.D.w.D.w.D.2 2 2 1 w.D.v.w.D.y.E.y.v.w.D.v.y.D.w.E.u.u.w.E.F.F.",
"                                                          G.B.H.I.D.J.K.D.2 2 2 1 D.I.D.I.D.D.D.D.D.K.I.L.I.K.D.K.M.D.D.K.I.H.B.",
"                                                        N.O.N.P.J.I.L.P.2 2 2 1 M.P.P.L.L.P.P.L.J.P.P.P.Q.P.P.J.I.P.M.P.M.P.N.N.",
"                                                      N.N.N.P.P.R.S.T.2 2 2 1 P.P.U.V.P.P.S.U.R.P.T.W.P.X.U.W.R.P.S.X.V.X.U.Y.Z.",
"                                                    `.`.`.T.T.T.V.T.2 2 2 1 R.R.X.R.T.V.V.T.R.T.T.T.T.R.S.T.W.T.V.U.T.T.R.T. +`.",
"                                                  .+++@+#+$+%+%+%+2 2 2 1 #+&+%+*+=+%+&+$+%+&+&+#+-+T.#+&+=+T.T.*+%+*+*+&+%+`.;+",
"                                                >+>+>+-+-+-+-+-+2 2 2 1 -+-+-+-+-+$+-+-+-+-+-+-+-+-+-+-+-+-+-+-+-+-+-+-+-+-+>+>+",
"                                                  ,+'+>+)+!+~+{+]+2 1 1 1 )+]+{+^+!+/+)+/+]+)+-+{+)+/+-+/+)+!+]+/+]+{+/+{+~+(+,+",
"                                                    _+_+_+/+/+/+/+/+1 1 2 2 /+/+/+/+/+/+/+/+/+/+/+/+/+/+/+/+/+/+/+:+/+/+/+:+_+_+",
"                                                      <+[+}+|+1+2+3+|+2 2 2 1 1+4+2+2+:+5+4+3+1+/+4+2+1+5+3+4+2+2+1+5+/+5+5+}+6+",
"                                                        7+8+8+1+9+1+1+1+2 1 1 1 0+1+1+1+1+0+1+0+0+1+1+1+0+1+0+0+1+1+1+0+1+9+7+8+",
"                                                          a+b+c+d+e+e+f+d+1 1 2 2 d+d+d+g+d+9+h+f+0+h+d+g+f+0+g+e+d+h+d+e+f+i+b+",
"                                                            j+c+k+l+d+m+d+n+2 2 2 1 d+o+l+d+p+d+p+d+q+n+l+d+d+l+l+n+n+l+d+l+c+c+",
"                                                              r+j+c+n+p+s+s+p+2 1 1 1 o+m+m+n+q+m+m+m+p+m+m+o+m+m+q+o+m+p+p+r+r+",
"                                                                t+u+v+w+x+y+y+m+1 1 2 2 z+m+m+A+x+z+B+m+z+z+x+m+y+m+m+z+z+y+C+C+",
"                                                                  u+D+E+B+B+w+B+w+2 2 2 1 B+B+A+B+F+A+w+w+w+B+B+B+w+B+B+A+w+t+t+",
"                                                                    G+H+H+I+I+J+J+K+2 1 1 1 B+B+L+K+I+M+K+K+N+O+B+B+M+N+L+M+P+E+",
"                                                                      G+G+G+J+J+J+J+J+1 1 2 2 J+J+J+J+J+J+J+J+J+J+J+J+J+J+J+G+G+",
"                                                                        Q+R+S+J+T+U+V+W+2 2 2 1 X+V+U+T+J+Y+V+V+U+Y+Y+J+W+T+Z+Q+",
"                                                                          `+`+ @.@+@+@.@2 2 1 1 .@.@.@.@+@.@.@.@.@.@.@.@.@.@`+`+",
"                                                                            @@@@@@#@$@#@%@1 1 1 2 &@%@$@+@&@$@%@$@&@%@*@%@=@ @-@",
"                                                                              ;@>@-@,@'@&@1 1 2 2 &@,@&@'@)@)@&@)@&@&@,@&@&@-@;@",
"                                                                                !@~@{@,@&@1 2 2 2 ,@{@]@{@'@{@]@{@{@&@{@^@{@/@/@",
"                                                                              /@(@/@_@:@{@2 2 2 1 {@<@_@{@_@[@_@<@[@:@{@:@:@/@}@",
"                                                                            |@|@|@1@1@1@:@2 2 1 1 <@<@2@1@[@1@1@1@2@1@1@1@1@3@3@",
"                                                                          4@|@5@6@1@1@1@2 2 1 1 1@7@6@8@1@9@7@6@1@7@6@1@9@9@0@|@",
"                                                                        a@a@4@8@8@8@8@8@2 1 1 1 8@9@8@8@8@8@8@b@8@8@8@b@c@8@d@a@",
"                                                                      e@a@f@g@h@g@i@j@2 1 1 1 k@l@k@j@8@g@k@j@j@8@l@8@j@8@j@e@a@",
"                                                                    m@m@m@h@h@h@h@h@2 1 1 1 h@h@h@h@h@h@h@h@h@h@h@h@h@h@h@h@m@m@",
"                                                                  n@m@o@p@q@p@r@s@2 1 1 1 q@p@s@p@s@p@r@r@q@q@h@t@r@p@t@p@q@n@u@",
"                                                                u@v@u@w@w@w@x@y@2 1 1 1 w@w@w@w@w@w@w@w@x@w@w@w@w@w@w@w@y@w@z@u@",
"                                                              A@A@A@B@C@D@C@C@2 1 1 1 C@w@w@y@x@E@C@B@B@C@C@y@C@C@B@x@E@y@E@F@A@",
"                                                            F@G@F@H@I@C@H@C@2 1 1 1 C@H@C@H@C@C@C@C@C@J@J@C@C@I@C@C@K@I@J@H@F@L@",
"                                                          M@N@F@O@H@P@Q@K@2 1 1 1 Q@J@Q@K@Q@C@O@Q@O@P@P@K@J@J@Q@K@Q@O@Q@K@Q@M@R@",
"                                                        S@M@T@U@V@W@W@V@X@O@O@X@O@Y@V@W@Z@O@O@X@W@W@V@O@O@O@O@`@W@O@O@O@O@`@S@T@",
"                                                       #.# #Y@`@U@`@`@Y@Z@`@Y@`@Y@U@`@Y@`@`@`@U@`@`@`@U@Z@`@V@Y@Z@U@`@`@`@`@ # #",
"                                                    +#@#+###`@$#%#%#%#%#%#&#*#$#$###$#*#*#=#%#&#%#`@%#$#`@`@`@%#=#%#-#`@&#-# # #",
"                                                  ;#>#>#,#>#>#>#>#>#>#>#>#>#>#;#>#>#>#>#>#>#,#>#>#>#>#>#>#>#>#>#>#>#,#>#+#;#>#,#",
"                                                '#)#!#~#)#~#!#~#>#{#>#{#~#~#!#'#{#>#]#)#{#>#]#)#)#~#'#~#{#{#{#]#]#~#]#>#!#^#'#)#"};
