/* XPM */
static char * east_xpm[] = {
"64 64 347 2",
"  	c None",
". 	c #A1B89D",
"+ 	c #A1B89C",
"@ 	c #2AFF00",
"# 	c #A2B89C",
"$ 	c #A2B89D",
"% 	c #A1B79C",
"& 	c #A0B79C",
"* 	c #A0B89C",
"= 	c #A1B79D",
"- 	c #A0B79D",
"; 	c #9FB69C",
"> 	c #9FB79B",
", 	c #A0B69C",
"' 	c #A0B69B",
") 	c #9FB69B",
"! 	c #A0B79B",
"~ 	c #9FB59B",
"{ 	c #9EB59A",
"] 	c #9EB59B",
"^ 	c #9FB59A",
"/ 	c #9FB69A",
"( 	c #9DB49A",
"_ 	c #9DB39A",
": 	c #9EB49A",
"< 	c #9DB499",
"[ 	c #9EB39A",
"} 	c #9EB499",
"| 	c #9CB399",
"1 	c #9CB299",
"2 	c #9CB39A",
"3 	c #9DB399",
"4 	c #9DB29A",
"5 	c #9DB299",
"6 	c #9BB298",
"7 	c #9BB198",
"8 	c #9BB299",
"9 	c #9CB198",
"0 	c #9CB298",
"a 	c #9BB199",
"b 	c #9CB199",
"c 	c #9AB098",
"d 	c #9AB197",
"e 	c #9AB198",
"f 	c #9BB098",
"g 	c #9BB097",
"h 	c #9BB197",
"i 	c #9AB097",
"j 	c #99AF97",
"k 	c #9AAF97",
"l 	c #9AAF96",
"m 	c #99B097",
"n 	c #99AF96",
"o 	c #99B096",
"p 	c #98AE96",
"q 	c #98AF96",
"r 	c #99AE96",
"s 	c #98AE97",
"t 	c #99AE97",
"u 	c #98AF97",
"v 	c #97AD95",
"w 	c #98AD95",
"x 	c #97AD96",
"y 	c #97AE96",
"z 	c #98AE95",
"A 	c #97AE95",
"B 	c #98AD96",
"C 	c #96AC95",
"D 	c #96AC94",
"E 	c #96AB94",
"F 	c #96AB95",
"G 	c #97AC94",
"H 	c #95AB93",
"I 	c #95AA94",
"J 	c #95AB94",
"K 	c #94AB94",
"L 	c #95AA93",
"M 	c #94AA94",
"N 	c #94A993",
"O 	c #93A993",
"P 	c #94AA93",
"Q 	c #94A994",
"R 	c #93A892",
"S 	c #93A992",
"T 	c #92A992",
"U 	c #92A993",
"V 	c #92A892",
"W 	c #93A893",
"X 	c #92A791",
"Y 	c #92A891",
"Z 	c #92A792",
"` 	c #91A891",
" .	c #91A892",
"..	c #91A792",
"+.	c #91A791",
"@.	c #90A691",
"#.	c #91A690",
"$.	c #91A691",
"%.	c #91A790",
"&.	c #90A690",
"*.	c #90A791",
"=.	c #90A590",
"-.	c #8FA590",
";.	c #8FA48F",
">.	c #8FA38F",
",.	c #8EA490",
"'.	c #8FA490",
").	c #8EA48F",
"!.	c #8EA38F",
"~.	c #8EA38E",
"{.	c #8DA28E",
"].	c #8DA38F",
"^.	c #8EA28F",
"/.	c #8DA28F",
"(.	c #8EA28E",
"_.	c #8DA38E",
":.	c #8DA28D",
"<.	c #8CA18E",
"[.	c #8CA18D",
"}.	c #8DA18E",
"|.	c #8CA28D",
"1.	c #8CA28E",
"2.	c #8DA18D",
"3.	c #8BA18D",
"4.	c #8BA08D",
"5.	c #8CA08D",
"6.	c #8AA08C",
"7.	c #8B9F8C",
"8.	c #8A9F8D",
"9.	c #8B9F8D",
"0.	c #8A9F8C",
"a.	c #8AA08D",
"b.	c #8BA08C",
"c.	c #899E8C",
"d.	c #899E8B",
"e.	c #8A9E8B",
"f.	c #8A9E8C",
"g.	c #899F8C",
"h.	c #899F8B",
"i.	c #889D8B",
"j.	c #899D8B",
"k.	c #889D8A",
"l.	c #889C8A",
"m.	c #899D8A",
"n.	c #889C8B",
"o.	c #899C8B",
"p.	c #879C89",
"q.	c #879C8A",
"r.	c #889B89",
"s.	c #879B8A",
"t.	c #889B8A",
"u.	c #869A89",
"v.	c #879A89",
"w.	c #869B89",
"x.	c #869B8A",
"y.	c #869A8A",
"z.	c #879B89",
"A.	c #859989",
"B.	c #859988",
"C.	c #859A88",
"D.	c #859A89",
"E.	c #849887",
"F.	c #849888",
"G.	c #849987",
"H.	c #849988",
"I.	c #839887",
"J.	c #839988",
"K.	c #839787",
"L.	c #829787",
"M.	c #839886",
"N.	c #839786",
"O.	c #829686",
"P.	c #829687",
"Q.	c #819686",
"R.	c #819687",
"S.	c #829786",
"T.	c #819786",
"U.	c #819585",
"V.	c #819586",
"W.	c #809485",
"X.	c #809586",
"Y.	c #819485",
"Z.	c #809585",
"`.	c #819486",
" +	c #809486",
".+	c #809484",
"++	c #7F9485",
"@+	c #7F9484",
"#+	c #809385",
"$+	c #7F9385",
"%+	c #7F9384",
"&+	c #7E9283",
"*+	c #7E9284",
"=+	c #7F9284",
"-+	c #7E9384",
";+	c #7F9383",
">+	c #7D9183",
",+	c #7E9183",
"'+	c #7D9284",
")+	c #7E9184",
"!+	c #7D9283",
"~+	c #7D9184",
"{+	c #7D9182",
"]+	c #7C9083",
"^+	c #7C9082",
"/+	c #7C9183",
"(+	c #7D9083",
"_+	c #7D9082",
":+	c #7C9182",
"<+	c #7B8F82",
"[+	c #7B9082",
"}+	c #7B8F81",
"|+	c #7C8F82",
"1+	c #7C8F81",
"2+	c #7C9081",
"3+	c #7B9081",
"4+	c #7A8E81",
"5+	c #7B8E81",
"6+	c #7A8E80",
"7+	c #7B8E80",
"8+	c #7A8F81",
"9+	c #7A8F80",
"0+	c #798D80",
"a+	c #7A8D80",
"b+	c #7A8D81",
"c+	c #798D81",
"d+	c #798C80",
"e+	c #7A8C80",
"f+	c #788C80",
"g+	c #798B7F",
"h+	c #788B7F",
"i+	c #788C7F",
"j+	c #798C7F",
"k+	c #798B80",
"l+	c #788B80",
"m+	c #778B7E",
"n+	c #788B7E",
"o+	c #778B7F",
"p+	c #778A7F",
"q+	c #778A7E",
"r+	c #788A7E",
"s+	c #788A7F",
"t+	c #76897D",
"u+	c #768A7E",
"v+	c #76897E",
"w+	c #77897E",
"x+	c #768A7D",
"y+	c #75887D",
"z+	c #75897D",
"A+	c #75887E",
"B+	c #76887D",
"C+	c #74877C",
"D+	c #74877D",
"E+	c #74887D",
"F+	c #74887C",
"G+	c #73877C",
"H+	c #73867B",
"I+	c #73867C",
"J+	c #72867B",
"K+	c #72867C",
"L+	c #72857B",
"M+	c #71857B",
"N+	c #72847B",
"O+	c #72847A",
"P+	c #71857A",
"Q+	c #72857A",
"R+	c #71847B",
"S+	c #71847A",
"T+	c #70847A",
"U+	c #71837A",
"V+	c #70837A",
"W+	c #70827A",
"X+	c #6F8379",
"Y+	c #6F837A",
"Z+	c #708379",
"`+	c #708279",
" @	c #6F827A",
".@	c #6F8279",
"+@	c #6F8178",
"@@	c #6E8279",
"#@	c #6E8179",
"$@	c #6F8278",
"%@	c #6E8178",
"&@	c #6F8179",
"*@	c #6E8278",
"=@	c #6E8078",
"-@	c #6D8178",
";@	c #6D8078",
">@	c #6D8177",
",@	c #6E8077",
"'@	c #6E8177",
")@	c #6D8077",
"!@	c #6D7F77",
"~@	c #6C7F77",
"{@	c #6C8077",
"]@	c #6C7F76",
"^@	c #6B7E77",
"/@	c #6C7E76",
"(@	c #6B7E76",
"_@	c #6C7D76",
":@	c #6C7E77",
"<@	c #6B7C76",
"[@	c #6B7D75",
"}@	c #6B7D76",
"|@	c #6A7D75",
"1@	c #6A7D76",
"2@	c #6A7C75",
"3@	c #6B7C75",
"4@	c #6A7C76",
"5@	c #697B74",
"6@	c #697C75",
"7@	c #697B75",
"8@	c #697C74",
"9@	c #6A7C74",
"0@	c #6A7B75",
"a@	c #687B74",
"b@	c #697A74",
"c@	c #687A74",
"d@	c #687B73",
"e@	c #687973",
"f@	c #677973",
"g@	c #687A73",
"h@	c #677A74",
"i@	c #677A73",
"j@	c #677974",
"k@	c #667873",
"l@	c #667872",
"m@	c #667973",
"n@	c #677872",
"o@	c #667972",
"p@	c #677873",
"q@	c #677972",
"r@	c #657772",
"s@	c #657771",
"t@	c #657871",
"u@	c #667772",
"v@	c #647571",
"w@	c #647671",
"x@	c #647670",
"y@	c #637470",
"z@	c #637570",
"A@	c #637571",
"B@	c #627571",
"C@	c #627570",
"D@	c #637471",
"E@	c #627471",
"F@	c #627470",
". . . + + @ @ # . . + . . # . # # $ . $ . . . # @ @ . . . + . + . # # + # # . + + $ + + . . + . + # # + . . $ . # . . $ $ $ . + ",
"$ . + + + @ @ $ $ . # + + # . + . + . + . # . $ @ @ $ $ . . + + + + # $ # $ + . + + . . + $ . + $ + . $ . $ $ $ $ $ . + . + . . ",
"+ $ + # . @ @ + . . . . . . . $ . . # # # + . + @ @ + . . . + + . # . + $ . . + . . $ . $ $ @ @ @ @ @ @ @ @ @ . . $ . # $ . # . ",
"# # + + . @ @ . + . . . + # . $ + + . . $ + $ # @ @ + + $ $ . . . . + . . . + + $ + . + . . @ @ @ @ @ @ @ @ @ + $ . + . # # $ . ",
"@ @ @ @ @ @ @ . + + % % & * % % & + + % = % = % @ @ - = & % = % % * % + + % % + & % + + = & @ @ + % . + & @ @ @ @ @ @ @ @ @ @ @ ",
"@ @ @ @ @ @ @ ; > & ; , ' ) ' ' ' ) ) ; ) ; ' , @ @ ' ' ) ; ) ' ' ) , ' ' ; ; ' > ' ' ' ! ' @ @ ' ) ) ' ) @ @ @ @ @ @ @ @ @ @ @ ",
"~ { { ~ { ] ] { ^ ^ ] ] ) ] ^ ) { ] ~ ] ^ { ) ^ @ @ ^ ~ ^ ~ ] { ~ { { ~ ] ^ ^ ] ~ ^ ~ / ^ ] @ @ ^ ~ ) ] ~ ~ { ^ { ~ ^ ~ ~ ~ ~ ~ ",
"( _ : : : < _ ( [ ( [ } : [ : : ( : ( : ( ( < _ @ @ : ( : ( : : : : : : ( ( : _ ( : : : : : @ @ : : [ ( : [ : ( ( ( ( } : : : < ",
"| | | | 1 2 3 | | | 1 3 3 | | 3 | 3 3 3 3 | | | @ @ | 1 | | 3 | 3 | 3 3 3 3 3 3 3 | 1 3 3 | @ @ 2 3 | 3 3 3 3 _ | _ 3 | 4 | 3 5 ",
"1 6 6 6 6 7 8 9 0 0 9 6 0 7 9 6 7 0 1 7 8 8 6 7 @ @ 6 a 6 b 6 1 a 6 6 9 8 8 1 8 1 6 6 0 6 8 @ @ 6 0 7 0 0 1 6 7 0 1 6 a a 1 9 8 ",
"c d e c f g f 7 7 h c c e e 7 c d f c i 7 c e i @ @ e c c f h e 7 g e i i d e c i c e i c e @ @ e c e c c i g c f i e i c e e e ",
"j i j k k j l j j j j m j j j m j n j m j m k j @ @ k n i l k k m j n k j n j m m j k j j l @ @ o m i j j j m j j i i l m m j j ",
"p p p p p q p p q p r p r p p q p p q s t u p p @ @ p p p s q p p n p r p p j p p p p p r s @ @ p p p p p p q p q p p p p s p p ",
"v w v v x v x x w v w x x y x x x v x w v v v v @ @ v x x v v v x v v w v v v w v v v x z A @ @ v x v A x x B x w v B v v w v A ",
"C C C C C C D D C C E C E D D E C E D F D C C C @ @ D C C F C C C C C D C C G C D C C C D D @ @ E C C C D D C C D F D F D C C F ",
"H H I H H J I J H J H J H I J J J H J H J J H J @ @ J J J K J J L H J J J J I J J I J J M L @ @ J J J I J J J I H J I J J I J I ",
"@ @ @ @ @ @ @ @ @ @ @ @ @ @ @ @ @ @ @ @ @ @ @ @ @ @ N O N N N P N N N P P P P P P Q N P N P @ @ @ @ @ @ @ @ @ @ @ @ @ @ @ @ @ @ ",
"@ @ @ @ @ @ @ @ @ @ @ @ @ @ @ @ @ @ @ @ @ @ @ @ @ @ R S S R S R R R T R U R V S W S S S R S @ @ @ @ @ @ @ @ @ @ @ @ @ @ @ @ @ @ ",
"V V X Y X Z Z X Z Z X `  .X X @ @  .Y Z Z Z V X X V V Z V Y Z ..Z Y Z V X ..Z X ..X V X +.Z @ @ ..X +.Y +.Z X Z Z  .Z +. .Z X Y ",
"@.#.+.$.$.$.$.$.#.#.$.@.@.$.@.@ @ $.$.#.#.$.@.#.$.%.&.@.@.&.#.$.$.$.$.$.@.$.&.$.#.$.$.&.$.$.@ @ $.#.+.#.+.$.%.*.$.$.$.$.*.$.$.#.",
"=.-.-.=.-.=.=.-.-.=.=.-.=.=.=.@ @ -.-.-.=.-.=.=.=.-.=.-.-.-.=.-.=.-.@ @ @ @ @ @ @ @ @ @ @ @ @ @ =.=.=.=.=.=.=.=.=.=.=.=.-.-.=.=.",
";.>.,.'.;.;.'.).,.,.;.!.;.'.'.@ @ ).).).'.,.;.;.;.;.).).;.).).).;.;.@ @ @ @ @ @ @ @ @ @ @ @ @ @ ).;.;.).;.;.;.;.;.).!.'.;.'.;.).",
"~.{.!.~.].^.^./.~.(.!.{.!./.^.@ @ (.^.^._.!.{.!.!.]./.!.~./.].~.^.~.@ @ _.(.].{.~._.!.].(._.]./.]./.!.!.(.~.].{.~._.]./.^.{.(.~.",
":.{.<.[.<.{.:.{.}.}.{.<.<.|.<.@ @ <.{.{.}.[.{.1.}.1.{.{.|.}.}.{.}.<.@ @ 1.2.|.[.}.}.<.:.<.[.<.1.1.|.1.:.{.<.}.<.}.1.|.<.}.|.:.<.",
"3.3.4.4.4.5.4.3.3.4.3.[.4.5.4.@ @ [.5.3.5.[.4.5.4.4.[.3.3.4.3.3.[.[.@ @ 4.4.4.5.4.4.4.[.4.[.3.[.4.5.5.5.[.3.5.4.[.3.4.[.3.4.5.5.",
"6.7.6.8.9.7.0.a.0.0.0.0.7.6.9.@ @ a.b.0.7.6.7.9.0.b.8.6.6.6.0.8.8.b.@ @ 7.0.0.0.6.0.0.0.9.6.0.0.7.6.4.7.0.8.0.0.0.8.6.7.7.7.0.0.",
"c.d.d.c.e.e.e.d.e.f.f.d.c.d.f.@ @ f.f.e.d.c.c.g.h.d.c.d.d.d.f.d.d.d.@ @ d.h.d.c.e.e.d.c.d.e.c.d.0.d.f.f.d.c.d.d.f.d.d.d.d.d.d.h.",
"i.i.i.j.i.k.k.k.i.i.j.k.l.i.j.@ @ k.m.n.n.k.i.i.k.l.i.j.i.j.i.k.i.m.@ @ j.i.m.k.m.o.i.i.i.i.i.j.o.i.k.i.k.k.i.k.k.i.i.i.i.j.i.i.",
"l.p.q.r.l.q.p.q.l.q.q.q.q.s.q.@ @ q.q.q.q.q.q.s.q.q.s.q.q.q.t.q.q.s.@ @ s.q.s.q.q.q.s.q.s.l.q.q.s.q.q.q.q.q.q.s.q.q.q.l.q.q.s.s.",
"u.v.u.w.w.w.w.v.u.w.u.u.w.w.u.@ @ u.w.w.x.w.w.w.w.y.w.x.u.u.w.y.w.u.@ @ w.w.u.x.u.w.s.w.x.w.u.w.x.w.w.w.v.u.w.z.w.w.w.u.w.u.w.w.",
"A.B.A.C.C.B.C.C.A.B.C.D.B.B.C.@ @ C.C.B.D.A.B.C.C.C.C.C.C.B.D.D.B.C.@ @ A.B.C.C.A.B.A.B.C.B.@ @ @ @ C.D.A.B.B.C.D.D.B.B.D.A.C.C.",
"E.F.G.F.F.H.H.H.F.F.H.I.E.H.F.@ @ H.H.H.E.H.H.H.E.F.F.F.F.E.H.F.F.F.@ @ J.H.E.E.F.@ @ @ @ @ @ @ @ @ F.F.G.F.E.H.F.E.F.E.F.H.E.F.",
"K.I.L.M.K.I.K.K.M.K.K.N.L.K.I.@ @ L.K.K.I.K.K.K.M.K.K.K.I.K.L.I.K.K.@ @ K.K.K.I.K.@ @ @ @ @ @ @ @ @ I.N.L.K.K.K.N.K.I.K.K.K.K.K.",
"O.P.P.O.O.Q.O.Q.R.O.O.O.O.Q.O.@ @ O.O.O.O.O.O.R.O.S.P.P.O.O.Q.Q.Q.O.@ @ O.O.P.Q.P.@ @ S.Q.P.@ @ @ @ O.P.T.O.O.O.O.O.S.O.P.L.R.Q.",
"U.V.V.W.U.U.X.W.U.U.U.U.U.U.U.@ @ V.U.U.V.U.Y.V.U.V.U.V.U.U.Z.Y.X.U.@ @ X.`.Z.X.X.@ @ X.U.V.U.Z.Z.U.V.Y.V. +W.U.U.Y.V.U.Z.V.V.U.",
".+.+W..+.+++W.++.+++W.W.@+#+@+@ @ ++.+.+++W.W.W.W.W.W.++W..+++++@+W.@ @ W.W.++++W.@ @ .+++++.+@+.+#+.+++#+#+++W.$+.+.+.+W.#+.+$+",
"%+%+%+&+*+@ @ @ @ @ @ @ @ @ @ @ @ @ @ @ @ @ @ @ @ @ @ @ @ @ @ @ @ @ @ @ @ @ @ @ @ @ @ %+%+=+=+%+%+%+-+%+%+%+=+;+%+*+%+%+*+-+=+%+",
">+>+,+*+'+@ @ @ @ @ @ @ @ @ @ @ @ @ @ @ @ @ @ @ @ @ @ @ @ @ @ @ @ @ @ @ @ @ @ @ @ @ @ ,+)+,+!+&+&+&+>+,+,+,+>+&+!+~+>+!+,+&+)+!+",
">+{+]+^+>+@ @ /+(+]+{+(+>+/+(+(+_+_+_+^+_+]+(+_+_+_+^+/+^+/+_+:+^+(+{+{+^+:+^+:+{+(+^+]+]+:+(+]+_+^+(+_+{+^+{+/+(+{+{+]+:+{+^+^+",
"<+<+[+}+|+@ @ <+<+1+|+}+|+<+[+<+<+[+}+|+|+|+<+[+2+3+1+|+1+1+<+}+}+1+}+}+1+<+}+}+[+1+<+1+}+<+|+1+1+<+<+}+}+}+|+<+2+2+<+<+1+[+}+|+",
"4+5+5+5+6+@ @ 7+4+4+4+6+6+5+4+4+4+4+7+5+4+5+5+5+4+5+4+4+}+5+6+4+4+4+4+6+4+5+6+5+5+4+4+6+4+5+4+4+5+4+5+4+4+5+4+8+4+6+4+9+5+5+5+7+",
"0+0+a+b+0+@ @ 0+0+0+0+0+0+b+c+0+d+c+0+e+e+a+d+a+0+a+a+a+0+0+0+d+0+a+e+e+b+0+0+0+0+a+0+0+d+e+a+0+a+0+0+0+a+0+0+a+b+0+0+0+0+b+0+a+",
"f+g+f+h+i+@ @ j+g+h+j+i+i+h+i+i+f+i+h+i+h+i+h+i+d+g+j+h+h+f+i+d+h+f+i+i+f+i+g+j+i+k+i+f+h+l+i+j+i+i+f+h+j+i+f+f+k+j+h+i+l+f+l+j+",
"m+m+n+o+p+@ @ m+p+m+q+m+m+h+p+h+q+m+q+m+m+p+r+o+q+p+q+q+o+o+o+o+p+p+m+q+h+p+o+s+m+o+p+o+o+o+q+o+p+n+m+m+p+p+m+o+r+o+m+p+o+p+o+m+",
"t+u+v+w+u+@ @ v+q+t+t+q+u+u+v+u+q+v+v+v+v+v+x+v+t+u+v+u+u+u+u+v+v+q+v+t+v+v+v+u+t+u+v+t+v+u+u+u+u+u+t+v+t+u+u+u+v+v+t+v+t+v+q+x+",
"y+z+y+z+A+@ @ y+z+z+z+y+z+z+y+z+z+y+y+y+y+z+y+z+y+y+y+y+y+y+y+y+y+z+y+z+y+y+y+y+z+B+y+y+z+y+z+y+y+z+z+y+z+y+y+B+y+z+y+y+y+t+y+y+",
"C+D+C+C+D+@ @ C+C+C+D+D+E+D+D+D+C+F+F+D+C+C+F+C+D+C+F+D+F+C+D+D+C+D+C+G+C+C+E+D+D+C+C+C+C+C+D+C+E+C+C+C+C+D+C+C+D+C+C+D+C+D+C+C+",
"H+I+I+H+J+@ @ H+H+H+I+H+H+H+H+H+H+H+I+I+I+I+H+I+H+H+I+I+I+I+I+H+H+H+I+H+H+H+K+J+I+J+I+H+I+I+H+I+I+H+I+H+J+H+I+I+I+I+H+I+I+H+I+K+",
"L+L+M+L+L+@ @ N+L+L+O+O+M+L+P+P+Q+L+L+Q+L+L+L+N+M+L+N+L+N+Q+L+L+Q+L+R+L+N+L+L+L+Q+L+Q+Q+L+L+M+M+Q+L+N+M+M+L+L+L+N+Q+L+Q+M+O+N+L+",
"@ @ @ @ @ @ @ @ @ @ @ @ @ @ @ @ @ @ S+T+S+U+U+T+V+U+T+S+S+S+S+S+S+T+T+S+S+U+U+S+S+U+S+V+U+U+U+T+U+T+@ @ @ @ @ @ @ @ @ @ @ @ @ @ ",
"@ @ @ @ @ @ @ @ @ @ @ @ @ @ @ @ @ @ W+X+X+Y+Z+`+`+Z+Z+ @Z+Y+`+V+`+Z+Z+V+V+`+W+`+`+.@X+X+`+.@X+Z+V+X+@ @ @ @ @ @ @ @ @ @ @ @ @ @ ",
"+@@@@@+@#@.@$@.@%@.@%@%@$@+@.@&@@ @ +@&@+@&@#@$@#@*@@@.@+@$@@ @ @ @ $@+@+@&@$@+@&@*@*@*@.@@@+@+@+@@@@ @ &@$@%@&@%@%@*@+@*@&@$@&@",
"%@=@-@;@=@>@-@=@-@=@=@=@,@-@;@%@@ @ ,@-@=@%@'@;@%@-@=@'@-@,@@ @ @ @ =@=@%@'@>@;@-@=@,@=@;@)@=@=@)@%@@ @ )@;@)@;@)@=@-@)@,@-@,@=@",
"!@~@!@!@~@~@!@!@~@!@!@!@!@{@~@~@@ @ ~@!@!@!@~@~@!@!@~@!@!@!@@ @ @ @ !@~@~@~@!@!@~@~@~@]@)@!@!@~@~@{@@ @ ~@~@{@!@~@~@~@!@~@!@!@)@",
"^@/@/@(@/@^@/@^@_@(@(@:@^@^@:@/@@ @ :@(@/@(@(@(@(@/@/@/@(@(@@ @ @ @ /@(@/@/@(@/@(@(@/@/@/@(@/@(@(@(@@ @ (@/@/@/@^@(@/@(@(@:@(@/@",
"<@[@}@|@[@1@|@1@}@|@2@[@2@1@|@3@@ @ }@|@1@[@|@1@1@|@|@4@1@3@1@@ @ 1@|@1@1@4@|@1@|@}@|@[@|@|@1@|@|@[@@ @ }@|@[@2@1@|@1@|@2@<@[@[@",
"5@6@7@6@6@2@8@9@7@8@7@6@6@7@6@6@@ @ 7@7@9@6@6@2@8@6@9@7@2@8@0@@ @ 6@6@9@0@6@6@7@5@2@6@2@0@6@2@6@6@5@@ @ 8@8@6@7@7@8@8@6@6@0@6@7@",
"a@5@5@b@c@a@d@c@a@a@b@5@c@a@a@b@@ @ @ @ @ @ @ @ @ @ @ @ @ @ @ @ @ @ @ @ @ @ @ 5@c@c@c@a@5@a@b@a@a@a@@ @ a@b@a@c@c@c@a@a@c@a@a@5@",
"e@f@g@h@i@f@f@f@f@c@e@f@f@j@g@i@@ @ @ @ @ @ @ @ @ @ @ @ @ @ @ @ @ @ @ @ @ @ @ e@f@j@i@h@i@f@i@f@e@f@@ @ h@g@i@f@j@i@j@i@j@f@f@i@",
"k@l@m@n@l@m@k@l@l@k@l@k@k@l@k@o@@ @ k@l@f@m@k@l@k@p@l@l@o@l@m@l@l@k@l@l@l@@ @ l@l@l@q@m@n@l@m@p@k@k@@ @ l@n@l@q@o@o@l@l@k@k@m@l@",
"r@r@r@r@s@r@r@s@r@s@s@s@s@r@s@r@@ @ s@s@s@r@s@r@s@r@r@r@r@t@r@r@s@r@s@r@r@@ @ @ @ @ @ @ @ @ @ @ @ @ @ @ u@t@r@s@s@r@r@s@r@r@s@t@",
"v@w@w@w@w@w@x@w@w@w@w@w@w@w@w@w@@ @ w@w@w@w@w@w@w@w@v@w@w@w@v@w@w@w@w@w@w@@ @ @ @ @ @ @ @ @ @ @ @ @ @ @ x@w@w@w@v@w@w@w@w@w@w@w@",
"y@z@A@B@y@z@z@y@y@A@z@z@z@z@z@z@@ @ z@C@y@z@z@z@D@z@z@D@A@z@y@z@z@y@z@z@z@z@y@E@z@y@z@z@y@z@z@z@z@z@@ @ y@z@C@z@y@z@z@F@D@z@y@z@",
"y@z@C@F@z@F@y@z@F@y@C@y@z@y@F@y@@ @ z@z@y@y@z@y@z@F@y@y@y@y@z@z@z@z@C@y@y@z@F@z@z@z@z@y@y@z@z@y@y@z@@ @ y@y@y@y@z@z@y@y@z@C@z@C@"};
