/* XPM */
static char * floor_xpm[] = {
"64 64 77 1",
" 	c #E0E0E0",
".	c #D8D8D8",
"+	c #DBDBDB",
"@	c #D3D3D3",
"#	c #D0D0D0",
"$	c #CBCBCB",
"%	c #BFBFBF",
"&	c #A2A2A2",
"*	c #B1B1B1",
"=	c #BABABA",
"-	c #C2C2C2",
";	c #C8C8C8",
">	c #E1E1E1",
",	c #E3E3E3",
"'	c #E9E9E9",
")	c #F1F1F1",
"!	c #ECECEC",
"~	c #EEEEEE",
"{	c #E4E4E4",
"]	c #E6E6E6",
"^	c #C0C0C0",
"/	c #B7B7B7",
"(	c #AFAFAF",
"_	c #999999",
":	c #8C8C8C",
"<	c #D9D9D9",
"[	c #B9B9B9",
"}	c #BDBDBD",
"|	c #D2D2D2",
"1	c #EBEBEB",
"2	c #F3F3F3",
"3	c #E8E8E8",
"4	c #DADADA",
"5	c #D1D1D1",
"6	c #C3C3C3",
"7	c #B2B2B2",
"8	c #909090",
"9	c #CACACA",
"0	c #AAAAAA",
"a	c #CCCCCC",
"b	c #F0F0F0",
"c	c #A1A1A1",
"d	c #E7E7E7",
"e	c #949494",
"f	c #A5A5A5",
"g	c #C7C7C7",
"h	c #A4A4A4",
"i	c #B8B8B8",
"j	c #A9A9A9",
"k	c #B5B5B5",
"l	c #E5E5E5",
"m	c #DCDCDC",
"n	c #D4D4D4",
"o	c #DEDEDE",
"p	c #C6C6C6",
"q	c #ADADAD",
"r	c #CECECE",
"s	c #D6D6D6",
"t	c #BBBBBB",
"u	c #C4C4C4",
"v	c #989898",
"w	c #9B9B9B",
"x	c #ACACAC",
"y	c #BCBCBC",
"z	c #F9F9F9",
"A	c #EFEFEF",
"B	c #9C9C9C",
"C	c #C5C5C5",
"D	c #C1C1C1",
"E	c #B4B4B4",
"F	c #B3B3B3",
"G	c #CDCDCD",
"H	c #A8A8A8",
"I	c #A3A3A3",
"J	c #818181",
"K	c #848484",
"L	c #939393",
" .+@#$%&**=-;@.> >,'>')''')!)')')!)!~''')!)'''+  {]''{>> @#^/(_:",
"<@.@.;*[}-;|@@++ +{>,'!1''!11'12!!3{'{!1''+'{4+|4{{{',1 >+5$678:",
"@4@#$$;9$;$@.@<  >,{'{11!{1!!!!''1{{'+'{1{{>,+4|+, {{>{++<$$^08:",
"5a;$$#|@@@..@.@4> { {'''''!''b'1'',1{'''' '' 4.+,'>,' ++.@;;7c8:",
"$9-=9|@.4|.$.5|$ + 1''1''1,31'd'1{ ',{,{,',', @  ,,' { 4@;}/c&7:",
"#6*7#@+++<<@@;=@4+ {{ {d1,{1!{,'{{'{',,'d{ {+,4+,{' ,++@#^(e0/7:",
";6[9@4  >  <#;7#.{ !'1'''''',''1'1,' ',, ', {   '{>{ .@#6(f/=^%:",
"6g6#@<+ +.45$[*$54 +, {'1'{,',' ,' {,', >,> .  +   4@@#67h/}^-/:",
"=/6#.+ >+ +#$7%$.+> '{','),{{ {, {,3'{'' {{+ >+. + .#$=/*/6;6-i:",
"=j6@ <,+>+.@;kf;@++{,'>'1{' ,{,>,1l!+'{m>{+{n4<+4@+.9/0*0^9$$;=:",
"=065+<  ++<@;/*6@+ {>{'{{'{{'+ o >''{ '+{  4+@||#@@5p[[[[6;#;$[:",
"/*[$.++ ++<@6q6;@<< ,{+{> , +  +,',{{!{+ + +.|6=$||@|@9;#$||@$6:",
"k=9@@<+++ +@/6$@|<+++ + {,+{+,+ >{{{>++>+.++#@|#|4 +..|@$.@5$5;:",
"665@.+<+>n+.$##@.+.+++,{{{, {{ {,{ {{ {+ $.@4@@4+.{4++@<@r@6$@@:",
"$@#+<@+<@#5@@<@#|@+4+ s,, {+++.++++ >+@n44@.@.+ +.+ @#@#$#$;#++:",
"@;@5@>.@@@@@.#@$@++. ++  s + +.@.+.++$<|#<@ >++@<+ ++@@666$6$@ :",
"<#$@.$5$$#@|@@$$@@.@@4+>o<4+@5@#@.<@#9#@<4.44 +++.+<+.-$969@@ >:",
".$;;$6-6[=@|.@||.++4+@+,{+<@#96$$$$$#|@|$@@@<+ <4.+4@.$|69@@ {{:",
"@$$-=q=-|@.4++++ ++ ++++ {.@97e&6966p;$$@;5@@@@.++@.4@#$;@<++{{:",
"$7k6##@@@@4+ ,+,{+ ,+.|4 +@#=[7[66/7=66$^66;#.@@.$+.@<4$@4.+< ':",
"+$$#@@++++ +{{{{ {++s$@+++@=}6$66==--t=7k/7=p$a|@@++@@@++++4+,o:",
"@#5$5r+<{+{{{{{' {+..$-#@4@@@@;;t7k^u$;^*_f*=9;$5@@5$@+.@..n@+<:",
"@#$6$@4,{{{''3{{,++||=}s., 4+.$$-*-$#;$66=7(7==6$;a|@@#.@|r#@..:",
"$#-*9#45 + {,{{ ++4|@@.4,{>><@<$6066$$$;=[0vj0*0==6;#;6@96%69$$:",
"4$[7$@4{{{', ,,,,,, ,,>,{+{4 .@$/q;u$#;66778&w8:*=k-669[=xqj}#9:",
".$*$|++{{ ,++4+ + { {{,{'{,>++$;-66;6%}%76=**(c8j*7[[[-y-9#r4@.:",
"4||@+.{ {,+4.r4o4o,1'1'{l '{<.#$=};60q=6%$%$66=%9;$|$@@.@+.4+4,:",
"  +4+ + {{{,44, , '{'''!1'1{,@6=767%$$;9$$|#$#|$@$44  +,,,,',,':",
"{{@{+,+4,{1{{,+,,1]{1111{,{>+@6qq-$$#@@|@@++++@4 s++,{,{+'1{,!d:",
"++  ,{d{,{{,,o,,{,{1{'{+{{+++#6*$##@@4$@.4+@ + +, +,{,!{11{){1~:",
"{{{{{{'''1{{++{,1,',',{'{ { @@5$@@@...@.++ ,+ 4 +,,{'{'1''1'111:",
"{+,{'{{1{'{++ o,{o,d,{{l{,+n+@|@<@4@+4++++{ {{o,+{{{{!d!)d!d1!!:",
"!+{{{, '1{''4@4','  ,,11'++@5@|@@+.+<+ + '+'o3,<,','{{'11')1)1':",
" {{,'!d'!'d ,4++,,o,{{,+> m#$$a.+<+.++  {,{{,{+4qd{,1'1zd1A)!11:",
"'{++o'1{1!,,o 44o,+,d'{{++@@6;=@.s{.+4o{,,+,!1,1{'11{,111!1!!1):",
"{,,, +{'{'{,+4 ,.4{,{,,  <@$;66$@+.@++  {{,'!!!'{{1!!1{!!)!1)1{:",
"'{{,+,+,'!{m,>oo ,++ +++@+5$;r9$@@@<++ {{ >{{'{{'d'!!{!2)!!!!1!:",
"{{{{' @{{,',.{',{',+++ +5@#6[=;|55@$<<{>>{{'{{'! !!'!')){){))'):",
"]',++o,o@{{d{{{{ o+4.4++<$6*_B;a@@#@.,>,+{>  +{1{>1!'1!1!!111{{:",
",,!1 '{ 4{{'1{'1o,,+ + .46ifc&-$.@.+  {++> ++{ ''{'!'!)!1)1{'1':",
"{{ +,+,+,{'1''1!'{, ,,{+.6*&jf}$@@.<|a.. +@ ,++ +{ {'1{'1''1'{{:",
"''o++ +++,{{1!'{{'{,>{++<$0*(76$55.+<++.|@#@@.<<+4+{>'>!'1!l{ >:",
",s.#r$4{  1{'{'d'{,{,{,>4|;p-6-6|r@.+.$$9$$$6$6@$.@..+, {>>,,{+:",
"{@|$9.+ @,{'1!!){1{,'{{, @@#$666@@.@@@9$;6-[%6-;$#@5@s.>,{ {{ +:",
"||p|4@|4++'{{1'!{{,{o {+++.@$-$|$#@|#|#6-[7===66$6=666$@+,+++@@:",
"4|4+4+@4o{{1!!1{',,,+,{,{+@+|$@$|p99$ryyi****q[=--[*[[-@@+ 4@|#:",
"++,++o ,{{1{'!l1{{{{,o{++++<@@r99-[C-9-iyh0j000-===f=-6$@@@|;p$:",
"+'+{,,++ ,{{1!{1'{, +  + @+4.@.6CDtt-|$p%*x*0hjk00x7y69;9969-[[:",
"{{,',>,,,'1!'!'!{' o+ ,+4.4<.|.|-999;9|#96/q0j/7*/**E%---Fy[-p-:",
"{,{{',+@+,{'!{''{{,+ o+4+..|@|9|G||$|9#|6=*jhq7-==-[[-i}6-%}=--:",
"o'{,'{'{+{+{ {{{ + +++.@.s4@|49|#@@|@@@@$Hx*0([=6-6$69$$6%-}[6$:",
"',1+{,{o,@+,+{,o+++.@@@#s.||4@s4@4.@.@@@|-}IhBfk6;$$$@$9--=-6||:",
"d{{ {>+,+++<++<.@@$69||@||r|4.++{++@|$|#$66-7JKj699$$$$$=*p$$@#:",
"{{{{,{++.@@|@@9r$;6*}9@|9s|,+ ++ ,+ 4@@#$$9=*Lek-669r|$6yp-||$4:",
"  o>4++.@$;k666[[0k[$$#||4.++,  o ,+..@|6#96*hx[6-69#@99$9$|r@.:",
"+o ++$6$66[0fcfjj*-p9||G|@+4{,{,,{{+4+@|$$;yi-%}6r9$||@|99|@@.+:",
"+n@@$@;7k00fEh[-=-$$@#99@  +, ,+>>+ m+.@$#99$6-;$#$55@@<|$9|{++:",
"44+.@@9*6--6%966C9999$69@+ {{{l,o {+,+++49$#$$9$#@|@@@.@@@.++ ,:",
"<@@@$@$$$;@6-$9699-9--|.4+{4+{{{>o +>.+.55$$$$9r$@r#$@@4 +@,,{>:",
"4|.||@$#@|99}--;C-t9C9|@@4++ + { 4{4+4+@@9$66Dp#9--6[94+,o,,{{1:",
".@|$6@|.@.@;[9kC9999$|@@+++ +{,++,..@+@|$;-=*=;p6}#G@4+,{''{{'':",
"s|9$$|.@|s$r$||$|#r#r$$#@4+ 4++ 4<s|+.@5$=[**k99|@#.o{{'{,d'd{!:",
"4@$|@$++@.|||@@|@99@.@9k;4+m,+++s45$@@|$-*B&*-9@.4++1{{1d'!'1{!:",
"::::::::::::::::::::::::::::::::::::::::::::::::::::::::::::::::"};
