/* XPM */
static char * grid_xpm[] = {
"64 64 298 2",
"  	c #FF000000",
". 	c #888888",
"+ 	c #ABABAB",
"@ 	c #AAABAA",
"# 	c #ABAAAB",
"$ 	c #ABAAAA",
"% 	c #ABABAA",
"& 	c #878888",
"* 	c #AAAAAA",
"= 	c #A9AAAA",
"- 	c #888788",
"; 	c #AAA9A9",
"> 	c #878787",
", 	c #A9A9A9",
"' 	c #A9AAA9",
") 	c #A8A9A9",
"! 	c #A9A9A8",
"~ 	c #A8A9A8",
"{ 	c #A8A8A8",
"] 	c #868786",
"^ 	c #868686",
"/ 	c #A8A8A9",
"( 	c #A9A8A9",
"_ 	c #878786",
": 	c #878686",
"< 	c #868687",
"[ 	c #858686",
"} 	c #A7A7A7",
"| 	c #A7A8A8",
"1 	c #A8A7A8",
"2 	c #868685",
"3 	c #868585",
"4 	c #A8A7A7",
"5 	c #A7A7A8",
"6 	c #868586",
"7 	c #858585",
"8 	c #858484",
"9 	c #A7A6A7",
"0 	c #A6A6A7",
"a 	c #A7A7A6",
"b 	c #A6A7A6",
"c 	c #848585",
"d 	c #A6A7A7",
"e 	c #858584",
"f 	c #848484",
"g 	c #A6A6A6",
"h 	c #A5A6A6",
"i 	c #A6A5A6",
"j 	c #A6A6A5",
"k 	c #A5A5A5",
"l 	c #A5A5A6",
"m 	c #A6A5A5",
"n 	c #838484",
"o 	c #A5A5A4",
"p 	c #A5A4A5",
"q 	c #A5A4A4",
"r 	c #A4A5A5",
"s 	c #838383",
"t 	c #848384",
"u 	c #838384",
"v 	c #838483",
"w 	c #848383",
"x 	c #A4A4A4",
"y 	c #A4A5A4",
"z 	c #848483",
"A 	c #A3A4A4",
"B 	c #A3A3A4",
"C 	c #A4A4A3",
"D 	c #A4A3A3",
"E 	c #A3A3A3",
"F 	c #A4A3A4",
"G 	c #A3A4A3",
"H 	c #A3A2A2",
"I 	c #A2A2A2",
"J 	c #A3A3A2",
"K 	c #A3A2A3",
"L 	c #A2A2A3",
"M 	c #A2A3A3",
"N 	c #A2A3A2",
"O 	c #A2A1A2",
"P 	c #A2A2A1",
"Q 	c #A2A1A1",
"R 	c #808180",
"S 	c #818080",
"T 	c #808081",
"U 	c #808080",
"V 	c #808181",
"W 	c #A1A1A1",
"X 	c #818180",
"Y 	c #818181",
"Z 	c #818081",
"` 	c #A1A2A2",
" .	c #A1A1A2",
"..	c #A0A1A1",
"+.	c #A1A1A0",
"@.	c #A1A0A0",
"#.	c #A0A0A0",
"$.	c #A0A1A0",
"%.	c #807F80",
"&.	c #A09FA0",
"*.	c #A0A09F",
"=.	c #80807F",
"-.	c #7F8080",
";.	c #807F7F",
">.	c #9F9FA0",
",.	c #9F9F9F",
"'.	c #7F7F80",
").	c #7F7F7F",
"!.	c #A09F9F",
"~.	c #7F7E7E",
"{.	c #9F9E9F",
"].	c #9E9F9E",
"^.	c #9F9F9E",
"/.	c #7E7F7F",
"(.	c #7E7E7E",
"_.	c #9E9E9E",
":.	c #7E7D7D",
"<.	c #9D9E9E",
"[.	c #9D9D9D",
"}.	c #9E9D9E",
"|.	c #7D7E7D",
"1.	c #7D7E7E",
"2.	c #9E9D9D",
"3.	c #7E7D7E",
"4.	c #7C7D7D",
"5.	c #7D7D7D",
"6.	c #7D7D7C",
"7.	c #7D7C7C",
"8.	c #9D9C9D",
"9.	c #9C9D9D",
"0.	c #7C7D7C",
"a.	c #9C9C9D",
"b.	c #9C9C9C",
"c.	c #7C7C7C",
"d.	c #9C9B9B",
"e.	c #9B9C9C",
"f.	c #9B9B9B",
"g.	c #9B9B9C",
"h.	c #9B9A9B",
"i.	c #9B9B9A",
"j.	c #7C7B7C",
"k.	c #7B7C7B",
"l.	c #7B7B7B",
"m.	c #9A9A9A",
"n.	c #9A9B9A",
"o.	c #9B9A9A",
"p.	c #7B7C7C",
"q.	c #7A7B7A",
"r.	c #999A9A",
"s.	c #9A9999",
"t.	c #7A7A7B",
"u.	c #7B7B7A",
"v.	c #9A9A99",
"w.	c #7A7B7B",
"x.	c #7A7A7A",
"y.	c #999999",
"z.	c #7A797A",
"A.	c #989998",
"B.	c #999899",
"C.	c #989898",
"D.	c #79797A",
"E.	c #7A7A79",
"F.	c #999998",
"G.	c #797979",
"H.	c #797978",
"I.	c #989798",
"J.	c #787878",
"K.	c #979897",
"L.	c #979797",
"M.	c #989897",
"N.	c #979798",
"O.	c #797878",
"P.	c #787978",
"Q.	c #969797",
"R.	c #979796",
"S.	c #979696",
"T.	c #969696",
"U.	c #969796",
"V.	c #969697",
"W.	c #959696",
"X.	c #969596",
"Y.	c #777877",
"Z.	c #787777",
"`.	c #959595",
" +	c #777777",
".+	c #777776",
"++	c #949495",
"@+	c #959494",
"#+	c #949595",
"$+	c #767776",
"%+	c #767777",
"&+	c #767576",
"*+	c #949494",
"=+	c #767676",
"-+	c #757676",
";+	c #757576",
">+	c #949394",
",+	c #939394",
"'+	c #939393",
")+	c #767675",
"!+	c #757675",
"~+	c #949493",
"{+	c #939493",
"]+	c #757575",
"^+	c #939392",
"/+	c #929393",
"(+	c #939293",
"_+	c #757574",
":+	c #757475",
"<+	c #747474",
"[+	c #747574",
"}+	c #747475",
"|+	c #757474",
"1+	c #929292",
"2+	c #929392",
"3+	c #747575",
"4+	c #939292",
"5+	c #929291",
"6+	c #919292",
"7+	c #919291",
"8+	c #929192",
"9+	c #919191",
"0+	c #919192",
"a+	c #929191",
"b+	c #909190",
"c+	c #919090",
"d+	c #919091",
"e+	c #909090",
"f+	c #919190",
"g+	c #909191",
"h+	c #909091",
"i+	c #727272",
"j+	c #727373",
"k+	c #737372",
"l+	c #727372",
"m+	c #737273",
"n+	c #8F8F8F",
"o+	c #8F908F",
"p+	c #8F8F90",
"q+	c #727273",
"r+	c #737272",
"s+	c #737373",
"t+	c #90908F",
"u+	c #908F8F",
"v+	c #727172",
"w+	c #717172",
"x+	c #8F8E8E",
"y+	c #8E8E8E",
"z+	c #727271",
"A+	c #8E8E8F",
"B+	c #8F8E8F",
"C+	c #717170",
"D+	c #8D8D8E",
"E+	c #707070",
"F+	c #717171",
"G+	c #8E8D8D",
"H+	c #8D8E8D",
"I+	c #707170",
"J+	c #8D8D8D",
"K+	c #8D8E8E",
"L+	c #8E8E8D",
"M+	c #8D8C8D",
"N+	c #8D8C8C",
"O+	c #8C8C8D",
"P+	c #8C8C8C",
"Q+	c #6F6F6F",
"R+	c #8B8C8C",
"S+	c #8B8B8C",
"T+	c #8C8B8C",
"U+	c #8B8B8B",
"V+	c #706F70",
"W+	c #8A8B8B",
"X+	c #8A8B8A",
"Y+	c #6F6E6F",
"Z+	c #6E6F6E",
"`+	c #8A8A8A",
" @	c #8A8A8B",
".@	c #6E6D6E",
"+@	c #898A8A",
"@@	c #8A8A89",
"#@	c #6E6E6E",
"$@	c #6D6E6E",
"%@	c #6E6E6D",
"&@	c #6D6E6D",
"*@	c #898A89",
"=@	c #898989",
"-@	c #6E6D6D",
";@	c #6D6D6E",
">@	c #8A8989",
",@	c #89898A",
"'@	c #6D6D6C",
")@	c #898988",
"!@	c #6C6D6D",
"~@	c #888989",
"{@	c #898888",
"]@	c #888988",
"^@	c #6C6D6C",
"/@	c #6D6C6C",
"                          . + + + + .                                                     . + + + + .                           ",
"                          . + + + + .                                                     . + + + + .                           ",
"                          . @ # $ % .                                                     . @ % % $ .                           ",
"                          & * * = * .                                                     - ; * * * -                           ",
"                          > , = , ' >                                                     > , , ; ' >                           ",
"                          > ) ! ~ { ]                                                     ^ ) , / ( _                           ",
"                          : { { { { ^                                                     < { / ~ { ^                           ",
"                          [ } | 1 | 2                                                     3 1 4 5 5 6                           ",
"                          7 } } 5 } 7                                                     7 } } } } 7                           ",
"                          8 9 0 a b c                                                     c d } d b e                           ",
"                          f g g h g f                                                     f i g h g f                           ",
"                          f j j k k f                                                     f l l h m f                           ",
"                          n k k o p n                                                     f q k o r n                           ",
"s t s u v s u s w s u s f s x q y x s u z s s s v s z u v s u s s u s v s s s u s s s s v v x r x x w s v s v t s w s u t s v s ",
"A x x B C C D x A A x A x B C E x A C B E x x F D D F B B x G C x A A A C G C C A E A G A C C B A G D F A F B C C C x A C D x C ",
"E G E E E E E G E G E E E E E F E E E E E E E E E E E D E E E E E E E D E E E E E D G B E E G D E D E E E E E E E D E D E E E G ",
"H I I J I K E J E L E J K E K I I E J K K M L L L N K M N K N E M H N E M H E E E J K E K J E J L K M M H E J J E K K E M H M L ",
"I I I O I I I I I I I I I I I I I I I I I I I I I I I I I I I P I I I I I I I I I I I I I I I I I I I O I I I I I I Q I I I I I ",
"R S S T T S R S T U V T S U I Q Q W R X U U S V U X U U T X Y Y R Z X X Z S U U V V Z Z U Z `  .O P R S T Y S U T U U U S U Y Z ",
"                          U W W W W U                                                     U ..W +.W U                           ",
"                          U W @.#.#.U                                                     U @.#.$.@.U                           ",
"                          %.#.#.&.*.=.                                                    U #.#.&.*.-.                          ",
"                          ;.>.,.,.,.'.                                                    ).,.,.!.,.'.                          ",
"                          ~.{.].{.^.).                                                    ).,.].{.^./.                          ",
"                          (._._._._.(.                                                    (._._._._.(.                          ",
"                          :.<.[.}._.|.                                                    1.2.<.<.}.3.                          ",
"                          4.[.[.[.[.5.                                                    5.[.[.[.[.6.                          ",
"                          7.[.8.8.9.0.                                                    0.a.9.b.b.7.                          ",
"                          c.d.d.b.b.c.                                                    c.b.b.e.b.c.                          ",
"                          c.f.g.f.f.c.                                                    c.f.d.f.g.c.                          ",
"                          c.f.h.i.f.j.                                                    c.i.i.i.f.k.                          ",
"                          l.m.m.m.n.l.                                                    l.o.m.m.m.p.                          ",
"                          q.r.s.m.m.t.                                                    u.v.s.r.r.w.                          ",
"                          x.y.y.y.y.x.                                                    x.y.y.y.y.x.                          ",
"                          z.A.A.B.C.D.                                                    E.F.F.C.A.z.                          ",
"                          G.C.C.C.C.G.                                                    H.C.C.C.I.G.                          ",
"                          J.K.L.M.N.J.                                                    O.L.I.K.K.P.                          ",
"                          J.Q.R.Q.L.J.                                                    J.L.L.Q.S.J.                          ",
"                          J.T.T.U.U.J.                                                    J.S.T.T.V.J.                          ",
"                          J.W.X.X.X.Y.                                                    Z.X.T.X.`.J.                          ",
"                           +`.`.`.`. +                                                     +`.`.`.`. +                          ",
"                          .+++@+#+@+$+                                                    $+`.`.#+@+%+                          ",
"                          &+*+*+*+*+=+                                                    =+*+*+*+*+-+                          ",
"                          ;+>+,+*+'+)+                                                    !+>+~+{+{+!+                          ",
"                          ]+'+^+/+(+]+                                                    _+'+^+'+^+:+                          ",
"<+[+}+|+|+}+<+<+|+}+:+|+_+[+/+/+1+2+|+}+<+[+}+[+}+<+[+[+<+<+}+3+[+[+<+<+[+|+|+_+[+}+3+<+3+<+1+1+4+2+<+<+<+<+3+<+_+[+<+[+[+<+[+_+",
"5+1+6+1+5+6+1+1+1+7+8+5+1+1+8+1+1+9+0+1+a+5+1+5+8+0+8+5+6+7+1+7+1+8+0+5+1+6+1+7+5+5+1+8+9+1+8+1+5+6+8+1+8+1+7+8+9+a+6+8+7+5+1+6+",
"9+5+9+7+9+a+9+a+1+9+9+9+9+9+7+a+9+9+9+a+a+9+9+9+9+a+9+9+9+9+9+7+9+7+9+9+9+a+9+0+9+5+9+a+5+a+9+7+9+9+9+0+a+a+7+a+0+a+9+0+9+8+7+7+",
"b+b+9+c+d+c+e+f+g+c+c+9+e+c+9+f+f+g+g+g+g+9+f+9+c+e+c+e+h+f+9+h+e+9+h+d+d+b+b+b+9+c+f+f+d+h+b+c+d+d+9+f+f+b+9+d+d+h+g+f+g+f+9+9+",
"e+c+e+e+e+e+e+e+e+e+e+e+e+c+e+e+e+e+e+e+e+b+h+e+e+b+e+e+e+e+c+e+e+e+e+e+e+e+e+e+e+e+e+e+e+e+h+b+e+e+e+e+e+e+e+e+e+e+c+e+e+h+e+e+",
"i+j+k+j+k+l+i+k+l+i+l+m+i+m+n+o+o+p+l+j+j+q+l+i+q+r+k+l+k+i+r+r+j+s+i+k+j+m+l+r+j+q+q+l+m+m+n+t+o+u+i+l+j+q+q+q+l+m+q+s+k+q+m+i+",
"                          i+n+n+n+n+v+                                                    i+n+n+n+n+i+                          ",
"                          w+x+x+y+x+i+                                                    z+A+B+y+A+v+                          ",
"                          C+D+y+y+y+E+                                                    F+G+H+y+y+F+                          ",
"                          I+J+H+J+K+E+                                                    E+H+L+D+H+E+                          ",
"                          E+M+J+J+N+E+                                                    E+J+J+J+J+E+                          ",
"                          E+O+P+N+P+E+                                                    E+P+P+N+P+E+                          ",
"                          Q+R+S+T+U+Q+                                                    V+P+R+U+P+V+                          ",
"                          Q+U+U+U+U+Q+                                                    Q+U+U+U+U+Q+                          ",
"                          Q+W+X+U+X+Y+                                                    Z+U+`+ @`+Z+                          ",
"                          .@`++@@@`+#@                                                    $@`+`+`+`+%@                          ",
"                          &@*@=@=@+@-@                                                    ;@=@*@>@,@-@                          ",
"                          '@)@=@=@)@'@                                                    !@=@~@{@]@^@                          ",
"                          /@{@. )@{@^@                                                    /@. {@. . /@                          "};
