/* XPM */
static char * key_xpm[] = {
"64 64 83 1",
" 	c #FF000000",
".	c #999999",
"+	c #999899",
"@	c #CACACB",
"#	c #CACACA",
"$	c #CBCACA",
"%	c #CBCBCA",
"&	c #989998",
"*	c #989898",
"=	c #C9CAC9",
"-	c #C9C9C9",
";	c #979797",
">	c #C8C8C8",
",	c #5F5F5F",
"'	c #C8C8C7",
")	c #959695",
"!	c #C7C7C6",
"~	c #C7C7C7",
"{	c #C6C7C7",
"]	c #5F5E5F",
"^	c #5E5F5F",
"/	c #5E5E5F",
"(	c #C6C7C6",
"_	c #C7C6C7",
":	c #959696",
"<	c #969695",
"[	c #959596",
"}	c #969696",
"|	c #959595",
"1	c #969595",
"2	c #C6C6C6",
"3	c #C6C6C5",
"4	c #5E5E5E",
"5	c #C5C5C5",
"6	c #C6C5C5",
"7	c #C5C6C6",
"8	c #737373",
"9	c #C4C5C4",
"0	c #C4C4C5",
"a	c #C5C5C4",
"b	c #C4C4C4",
"c	c #C5C4C5",
"d	c #C5C4C4",
"e	c #727272",
"f	c #C3C3C4",
"g	c #C3C3C3",
"h	c #5D5D5D",
"i	c #5D5C5D",
"j	c #C3C3C2",
"k	c #5C5D5D",
"l	c #5C5D5C",
"m	c #C2C1C2",
"n	c #C1C2C2",
"o	c #C2C2C2",
"p	c #5C5C5C",
"q	c #C2C1C1",
"r	c #C2C2C1",
"s	c #C1C1C1",
"t	c #C1C1C2",
"u	c #727271",
"v	c #717171",
"w	c #C1C1C0",
"x	c #C0C1C0",
"y	c #5B5B5B",
"z	c #C1C0C0",
"A	c #C0C0C0",
"B	c #C1C0C1",
"C	c #5C5B5B",
"D	c #5B5B5C",
"E	c #5C5C5B",
"F	c #5C5B5C",
"G	c #5B5C5B",
"H	c #707070",
"I	c #C0C0BF",
"J	c #BFC0BF",
"K	c #BFBFBF",
"L	c #BFBFC0",
"M	c #C0BFBF",
"N	c #706F6F",
"O	c #BEBEBE",
"P	c #BEBEBF",
"Q	c #BFBEBE",
"R	c #6F6F6F",
"                                                                ",
"                                                                ",
"                                                                ",
"                                                                ",
"                                                                ",
"                                                                ",
"                                                                ",
"                                                                ",
"                                                                ",
"                                                                ",
"                                                                ",
"                                                                ",
"                                                                ",
"                                                                ",
"                                                                ",
"                                                                ",
"                                                                ",
"                                                                ",
"                                                                ",
"                                                                ",
"                                                                ",
"                                                                ",
"                                                                ",
"                                                                ",
"                                                                ",
"                                                                ",
"                                                                ",
"                                                                ",
"                                                                ",
"                                                                ",
"                                                                ",
"                                                                ",
"                                                                ",
"                                                                ",
"                                                                ",
"                                                                ",
"                                                                ",
"                                                                ",
"                                                                ",
"                                                                ",
"                                                                ",
"                                                                ",
"                                                                ",
"                                                                ",
"                                                                ",
"                                                                ",
"                                                                ",
"                                                                ",
"                                                                ",
"                                                                ",
"                                                                ",
"                     ......                                     ",
"                    +@@#$%@&                                    ",
"                  **=-=--=--**                                  ",
"                  ;>>,,,>>,'>>;                                 ",
"                 )!~{,]^/^^~!(_:<<[}):[:|1[}                    ",
"                 |23244554467774444444444444||                  ",
"                 890abc0bb9bbbb0bbbbbbbdbbbbbb                  ",
"                 efgbggggggggggghhgggiijgklgge                  ",
"                 emmnopppppnqmnonnmoronnostu                    ",
"                  vwxsypzpAABv CCDECyFCyCEGy                    ",
"                  HHIAJIKLKMHH  H HH HHH  H                     ",
"                    NOPPQQON                                    ",
"                     RRRRRR                                     "};
