/* XPM */
static char * north_xpm[] = {
"64 64 708 2",
"  	c None",
". 	c #798499",
"+ 	c #778399",
"@ 	c #798399",
"# 	c #778499",
"$ 	c #778397",
"% 	c #798397",
"& 	c #768297",
"* 	c #B7C0CF",
"= 	c #B7C0CE",
"- 	c #B8C0CE",
"; 	c #B8C0CF",
"> 	c #A8B1C2",
", 	c #778296",
"' 	c #778297",
") 	c #778097",
"! 	c #B8BFCF",
"~ 	c #768296",
"{ 	c #767F95",
"] 	c #758095",
"^ 	c #B7BECE",
"/ 	c #9AA4B5",
"( 	c #9BA4B5",
"_ 	c #9AA3B5",
": 	c #9BA3B5",
"< 	c #8A92A6",
"[ 	c #768095",
"} 	c #B6BFCE",
"| 	c #8993A6",
"1 	c #757F95",
"2 	c #747E94",
"3 	c #757F93",
"4 	c #B6BECC",
"5 	c #757F94",
"6 	c #757E94",
"7 	c #9AA3B3",
"8 	c #99A2B4",
"9 	c #9AA3B4",
"0 	c #9AA2B4",
"a 	c #99A3B4",
"b 	c #99A3B3",
"c 	c #99A2B3",
"d 	c #747F94",
"e 	c #8992A4",
"f 	c #747F93",
"g 	c #B5BECC",
"h 	c #9AA2B3",
"i 	c #8991A4",
"j 	c #747E93",
"k 	c #737D91",
"l 	c #737E93",
"m 	c #B4BDCB",
"n 	c #98A2B2",
"o 	c #99A1B2",
"p 	c #99A1B3",
"q 	c #98A1B2",
"r 	c #99A2B2",
"s 	c #98A2B3",
"t 	c #98A1B3",
"u 	c #8790A2",
"v 	c #737E91",
"w 	c #737D93",
"x 	c #B4BCCB",
"y 	c #717D90",
"z 	c #717C90",
"A 	c #B4BCCA",
"B 	c #97A1B1",
"C 	c #97A0B1",
"D 	c #98A1B1",
"E 	c #97A1B0",
"F 	c #97A0B0",
"G 	c #98A0B1",
"H 	c #858FA1",
"I 	c #717C8F",
"J 	c #737C90",
"K 	c #98A1B0",
"L 	c #717B8F",
"M 	c #707B8E",
"N 	c #B3BCC9",
"O 	c #969FAF",
"P 	c #969FB0",
"Q 	c #848EA0",
"R 	c #707B8F",
"S 	c #B3BCCA",
"T 	c #979FB0",
"U 	c #979FAF",
"V 	c #6F7A8D",
"W 	c #B2BAC7",
"X 	c #959EAE",
"Y 	c #969EAE",
"Z 	c #959DAE",
"` 	c #959DAD",
" .	c #959EAD",
"..	c #838D9D",
"+.	c #6F798D",
"@.	c #B2BAC8",
"#.	c #838C9E",
"$.	c #6F798B",
"%.	c #6E798B",
"&.	c #6E798A",
"*.	c #B1B8C6",
"=.	c #949CAC",
"-.	c #949DAD",
";.	c #949DAC",
">.	c #949CAD",
",.	c #959CAD",
"'.	c #828C9D",
").	c #6E778A",
"!.	c #6E778B",
"~.	c #B1B9C7",
"{.	c #828C9C",
"].	c #6D7689",
"^.	c #6D7789",
"/.	c #B0B8C5",
"(.	c #939BAB",
"_.	c #939CAB",
":.	c #818B9B",
"<.	c #B0B7C5",
"[.	c #6C7687",
"}.	c #AFB6C4",
"|.	c #929BA9",
"1.	c #929AAA",
"2.	c #929AA9",
"3.	c #929BAA",
"4.	c #919AAA",
"5.	c #808999",
"6.	c #6C7587",
"7.	c #6B7587",
"8.	c #AFB6C5",
"9.	c #919BAA",
"0.	c #80899A",
"a.	c #6C7586",
"b.	c #6C7686",
"c.	c #6B7486",
"d.	c #6A7486",
"e.	c #AEB5C3",
"f.	c #9199A8",
"g.	c #919AA9",
"h.	c #919AA8",
"i.	c #9099A8",
"j.	c #9099A9",
"k.	c #9199A9",
"l.	c #7F8898",
"m.	c #6B7485",
"n.	c #6A7485",
"o.	c #AEB6C3",
"p.	c #6A7384",
"q.	c #ADB4C2",
"r.	c #8F98A7",
"s.	c #9098A6",
"t.	c #9097A7",
"u.	c #9098A7",
"v.	c #8F97A7",
"w.	c #8F97A6",
"x.	c #7E8796",
"y.	c #6A7184",
"z.	c #ACB4C1",
"A.	c #9097A6",
"B.	c #6A7383",
"C.	c #697183",
"D.	c #697182",
"E.	c #ACB3C1",
"F.	c #8F96A5",
"G.	c #8F97A5",
"H.	c #8F96A6",
"I.	c #8E97A5",
"J.	c #8E97A6",
"K.	c #8E96A5",
"L.	c #7D8494",
"M.	c #697082",
"N.	c #687082",
"O.	c #ACB4C0",
"P.	c #8E96A6",
"Q.	c #7D8594",
"R.	c #686F80",
"S.	c #ABB2BF",
"T.	c #8E95A4",
"U.	c #8E96A4",
"V.	c #8E95A3",
"W.	c #8D95A4",
"X.	c #8D96A4",
"Y.	c #8E96A3",
"Z.	c #8D96A3",
"`.	c #7C8393",
" +	c #687080",
".+	c #686F7F",
"++	c #676F80",
"@+	c #7C8493",
"#+	c #676F7F",
"$+	c #676E7F",
"%+	c #A9B1BE",
"&+	c #8D94A2",
"*+	c #8D94A3",
"=+	c #8D95A2",
"-+	c #8C95A2",
";+	c #8C94A2",
">+	c #8C95A3",
",+	c #8C94A3",
"'+	c #8D95A3",
")+	c #7B8391",
"!+	c #666E7F",
"~+	c #676F7E",
"{+	c #7B8291",
"]+	c #676E7E",
"^+	c #666E7D",
"/+	c #666D7D",
"(+	c #A8B0BC",
"_+	c #8B93A1",
":+	c #8C93A1",
"<+	c #8B94A1",
"[+	c #8C94A1",
"}+	c #7A8190",
"|+	c #656D7D",
"1+	c #656D7C",
"2+	c #A9B0BC",
"3+	c #798190",
"4+	c #656E7D",
"5+	c #646C7C",
"6+	c #656C7B",
"7+	c #A7AFBB",
"8+	c #8A92A0",
"9+	c #8B929F",
"0+	c #8B92A0",
"a+	c #8A929F",
"b+	c #8A91A0",
"c+	c #79808E",
"d+	c #656C7C",
"e+	c #A8AFBB",
"f+	c #646B7A",
"g+	c #A6AEBA",
"h+	c #89909E",
"i+	c #8A919E",
"j+	c #8A909E",
"k+	c #89919E",
"l+	c #8A919F",
"m+	c #89919F",
"n+	c #777E8D",
"o+	c #636B7A",
"p+	c #636B7B",
"q+	c #A6ADBA",
"r+	c #787F8D",
"s+	c #636977",
"t+	c #626A79",
"u+	c #A6ADB9",
"v+	c #89909D",
"w+	c #88909D",
"x+	c #888F9D",
"y+	c #89909C",
"z+	c #898F9D",
"A+	c #88909C",
"B+	c #888F9C",
"C+	c #767E8C",
"D+	c #636A79",
"E+	c #636A77",
"F+	c #626979",
"G+	c #A5ADB9",
"H+	c #898F9C",
"I+	c #767D8B",
"J+	c #626977",
"K+	c #626A77",
"L+	c #606876",
"M+	c #606877",
"N+	c #A5ABB8",
"O+	c #878E9B",
"P+	c #878F9C",
"Q+	c #888F9B",
"R+	c #878F9B",
"S+	c #888E9B",
"T+	c #888E9C",
"U+	c #878E9C",
"V+	c #757C8A",
"W+	c #606977",
"X+	c #A5ACB7",
"Y+	c #757D8A",
"Z+	c #626876",
"`+	c #5F6775",
" @	c #606775",
".@	c #A4AAB5",
"+@	c #878D9A",
"@@	c #868E9A",
"#@	c #868E99",
"$@	c #868D9A",
"%@	c #878D99",
"&@	c #878E9A",
"*@	c #747C88",
"=@	c #606874",
"-@	c #606875",
";@	c #606774",
">@	c #A5AAB6",
",@	c #747B88",
"'@	c #5F6874",
")@	c #5E6674",
"!@	c #5F6673",
"~@	c #A3A9B4",
"{@	c #858C99",
"]@	c #868C98",
"^@	c #858C98",
"/@	c #868C99",
"(@	c #868D99",
"_@	c #737A87",
":@	c #5E6774",
"<@	c #5E6673",
"[@	c #747A87",
"}@	c #5D6571",
"|@	c #A2A8B4",
"1@	c #848B97",
"2@	c #858B97",
"3@	c #848A97",
"4@	c #858A97",
"5@	c #737884",
"6@	c #848B96",
"7@	c #727985",
"8@	c #5C6470",
"9@	c #5C6370",
"0@	c #A1A7B3",
"a@	c #838A95",
"b@	c #838A96",
"c@	c #838996",
"d@	c #848996",
"e@	c #848A95",
"f@	c #848A96",
"g@	c #838995",
"h@	c #717884",
"i@	c #5D6470",
"j@	c #5C646F",
"k@	c #A1A7B2",
"l@	c #717883",
"m@	c #5D6370",
"n@	c #5B636E",
"o@	c #5B626E",
"p@	c #A1A6B1",
"q@	c #828994",
"r@	c #828894",
"s@	c #828895",
"t@	c #838894",
"u@	c #838895",
"v@	c #838994",
"w@	c #828995",
"x@	c #707683",
"y@	c #5B626F",
"z@	c #A0A6B1",
"A@	c #707782",
"B@	c #5A626C",
"C@	c #5A606C",
"D@	c #9FA5AF",
"E@	c #818893",
"F@	c #818793",
"G@	c #818792",
"H@	c #828793",
"I@	c #6F7681",
"J@	c #5A606D",
"K@	c #9FA5B0",
"L@	c #828792",
"M@	c #818892",
"N@	c #6F7581",
"O@	c #59606C",
"P@	c #595F6B",
"Q@	c #9EA4AE",
"R@	c #808692",
"S@	c #808691",
"T@	c #808791",
"U@	c #6E747F",
"V@	c #595F6C",
"W@	c #59606B",
"X@	c #6E7480",
"Y@	c #585E6A",
"Z@	c #9DA3AC",
"`@	c #7F8590",
" #	c #7F8490",
".#	c #7F858F",
"+#	c #7E8490",
"@#	c #7F848F",
"##	c #6D737E",
"$#	c #585E69",
"%#	c #9DA3AD",
"&#	c #6D737D",
"*#	c #575D68",
"=#	c #9BA2AB",
"-#	c #7D848F",
";#	c #7E848F",
">#	c #7E848E",
",#	c #7E838F",
"'#	c #7D848E",
")#	c #7E838E",
"!#	c #6C727C",
"~#	c #575C68",
"{#	c #9CA2AC",
"]#	c #6C717C",
"^#	c #565D68",
"/#	c #555C67",
"(#	c #565B67",
"_#	c #9BA1AA",
":#	c #7D828D",
"<#	c #7D838D",
"[#	c #7C838D",
"}#	c #7C828D",
"|#	c #7D828C",
"1#	c #6B717B",
"2#	c #565C67",
"3#	c #9BA0AA",
"4#	c #6B707B",
"5#	c #555A66",
"6#	c #555A65",
"7#	c #9AA0A8",
"8#	c #7C828C",
"9#	c #7C818C",
"0#	c #7C828B",
"a#	c #7C818B",
"b#	c #7B818B",
"c#	c #7B828B",
"d#	c #69707A",
"e#	c #545B66",
"f#	c #9A9FA8",
"g#	c #7B828C",
"h#	c #7B818C",
"i#	c #6A7079",
"j#	c #555B65",
"k#	c #545964",
"l#	c #989EA7",
"m#	c #7A808A",
"n#	c #7B808A",
"o#	c #7B808B",
"p#	c #7A808B",
"q#	c #7A818A",
"r#	c #696E78",
"s#	c #535964",
"t#	c #989EA8",
"u#	c #7B818A",
"v#	c #535863",
"w#	c #989DA5",
"x#	c #7A7F88",
"y#	c #7A7F89",
"z#	c #797F88",
"A#	c #797F89",
"B#	c #686D76",
"C#	c #525863",
"D#	c #525862",
"E#	c #989DA6",
"F#	c #515760",
"G#	c #979CA5",
"H#	c #797E87",
"I#	c #787E87",
"J#	c #797D87",
"K#	c #787E88",
"L#	c #787D87",
"M#	c #797E88",
"N#	c #676C75",
"O#	c #525760",
"P#	c #676B76",
"Q#	c #515660",
"R#	c #51565F",
"S#	c #51555F",
"T#	c #969BA4",
"U#	c #787D86",
"V#	c #777D86",
"W#	c #787C86",
"X#	c #777C85",
"Y#	c #777D85",
"Z#	c #777C86",
"`#	c #787D85",
" $	c #666B74",
".$	c #787C85",
"+$	c #51565E",
"@$	c #50545D",
"#$	c #50555D",
"$$	c #9499A2",
"%$	c #777C84",
"&$	c #777B85",
"*$	c #767C85",
"=$	c #767B84",
"-$	c #777B84",
";$	c #767C84",
">$	c #767B85",
",$	c #656A72",
"'$	c #51545E",
")$	c #939AA3",
"!$	c #656972",
"~$	c #51545D",
"{$	c #4F535C",
"]$	c #50535C",
"^$	c #9298A1",
"/$	c #757A82",
"($	c #757A83",
"_$	c #757B83",
":$	c #767A83",
"<$	c #767B83",
"[$	c #636971",
"}$	c #50545C",
"|$	c #767A82",
"1$	c #636871",
"2$	c #4E525A",
"3$	c #9297A0",
"4$	c #757981",
"5$	c #747981",
"6$	c #757982",
"7$	c #747982",
"8$	c #636770",
"9$	c #4F525A",
"0$	c #4E525B",
"a$	c #91979F",
"b$	c #63676F",
"c$	c #4E5159",
"d$	c #90969E",
"e$	c #747880",
"f$	c #737880",
"g$	c #737780",
"h$	c #737881",
"i$	c #747881",
"j$	c #62666E",
"k$	c #4D5159",
"l$	c #747780",
"m$	c #61666E",
"n$	c #4C5158",
"o$	c #4C5157",
"p$	c #8F939C",
"q$	c #73777F",
"r$	c #72777F",
"s$	c #73767E",
"t$	c #72767F",
"u$	c #72777E",
"v$	c #73777E",
"w$	c #73767F",
"x$	c #72767E",
"y$	c #60656C",
"z$	c #4D5057",
"A$	c #4C5058",
"B$	c #90939D",
"C$	c #60656D",
"D$	c #4B4F56",
"E$	c #4B5056",
"F$	c #8E939B",
"G$	c #71757D",
"H$	c #71767D",
"I$	c #71767E",
"J$	c #72757D",
"K$	c #72757E",
"L$	c #72767D",
"M$	c #71757E",
"N$	c #60646B",
"O$	c #4B5057",
"P$	c #4B4F57",
"Q$	c #8E929B",
"R$	c #60636B",
"S$	c #4A4E55",
"T$	c #4B4E55",
"U$	c #8D919A",
"V$	c #70747B",
"W$	c #71757C",
"X$	c #71747C",
"Y$	c #70747C",
"Z$	c #70757C",
"`$	c #5E636A",
" %	c #4A4E54",
".%	c #4A4F55",
"+%	c #4B4E54",
"@%	c #8D929A",
"#%	c #70757B",
"$%	c #71747B",
"%%	c #5F6269",
"&%	c #4B4F55",
"*%	c #494E53",
"=%	c #494D54",
"-%	c #8D9098",
";%	c #6F737A",
">%	c #70737A",
",%	c #6F737B",
"'%	c #70737B",
")%	c #6F747A",
"!%	c #5D6168",
"~%	c #494D53",
"{%	c #6F747B",
"]%	c #484C52",
"^%	c #494C52",
"/%	c #8C8F97",
"(%	c #6E7279",
"_%	c #6E7179",
":%	c #6E7178",
"<%	c #6E7278",
"[%	c #6F7279",
"}%	c #6F7179",
"|%	c #5C6067",
"1%	c #8B8F97",
"2%	c #5C6066",
"3%	c #474B51",
"4%	c #8A8D94",
"5%	c #6D7177",
"6%	c #6D7178",
"7%	c #6D7077",
"8%	c #6D7078",
"9%	c #5C5F65",
"0%	c #474A51",
"a%	c #8A8D96",
"b%	c #6E7078",
"c%	c #5C5F66",
"d%	c #464A50",
"e%	c #898D93",
"f%	c #6C6F76",
"g%	c #6C7076",
"h%	c #6D7076",
"i%	c #6C7077",
"j%	c #5A5D64",
"k%	c #464950",
"l%	c #6C6F77",
"m%	c #5A5D65",
"n%	c #45484F",
"o%	c #45484E",
"p%	c #888B92",
"q%	c #6B6F74",
"r%	c #6B6F75",
"s%	c #6B6E74",
"t%	c #6B6E75",
"u%	c #595C63",
"v%	c #44494F",
"w%	c #45494F",
"x%	c #6A6E75",
"y%	c #595C62",
"z%	c #44484D",
"A%	c #44474D",
"B%	c #878A90",
"C%	c #6A6D73",
"D%	c #6A6D74",
"E%	c #6A6E74",
"F%	c #6A6E73",
"G%	c #696D73",
"H%	c #575C62",
"I%	c #878A91",
"J%	c #696E73",
"K%	c #585C61",
"L%	c #43464C",
"M%	c #85898E",
"N%	c #696C71",
"O%	c #686C71",
"P%	c #686C72",
"Q%	c #696C72",
"R%	c #565A60",
"S%	c #43464B",
"T%	c #42464C",
"U%	c #86898F",
"V%	c #575A60",
"W%	c #42444A",
"X%	c #42454B",
"Y%	c #85888E",
"Z%	c #676B70",
"`%	c #686B70",
" &	c #686A70",
".&	c #686A71",
"+&	c #686B71",
"@&	c #676B71",
"#&	c #56595E",
"$&	c #83888E",
"%&	c #676A71",
"&&	c #424349",
"*&	c #83868C",
"=&	c #67696F",
"-&	c #676A6F",
";&	c #67696E",
">&	c #66696F",
",&	c #666A6F",
"'&	c #676A6E",
")&	c #56585D",
"!&	c #424449",
"~&	c #414349",
"{&	c #414449",
"]&	c #83878B",
"^&	c #666A6E",
"/&	c #414248",
"(&	c #82868A",
"_&	c #66696D",
":&	c #66686D",
"<&	c #66686E",
"[&	c #66696E",
"}&	c #65686D",
"|&	c #65686E",
"1&	c #54565C",
"2&	c #404248",
"3&	c #414247",
"4&	c #404348",
"5&	c #82858A",
"6&	c #65696D",
"7&	c #65696E",
"8&	c #54575C",
"9&	c #404246",
"0&	c #3F4246",
"a&	c #818389",
"b&	c #64686C",
"c&	c #65676C",
"d&	c #64676C",
"e&	c #65686C",
"f&	c #54565A",
"g&	c #808589",
"h&	c #3F4145",
"i&	c #808388",
"j&	c #64666B",
"k&	c #64676B",
"l&	c #63676B",
"m&	c #535559",
"n&	c #3E4245",
"o&	c #3F4245",
"p&	c #808288",
"q&	c #63666B",
"r&	c #7F8388",
"s&	c #535659",
"t&	c #3E4145",
"u&	c #525559",
"v&	c #7F8288",
"w&	c #6D7074",
"x&	c #525659",
"y&	c #6C7074",
". + @ @ @ @ + @ @ . # + + + # @ + . @ @ @ @ @ @ @ . @ + . @ @ . . . + + + . . @ @ @ @ + . @ @ @ @ + + @ @ @ + . + @ @ . . # . # ",
". $ + @ @ + + # @ + @ @ + + @ + @ @ + + @ @ % @ . @ . + + $ # + + @ @ $ + + . @ @ @ + @ + % + # $ @ + + + @ + + # @ + + + + + + ",
"& & * = * - = - ; = - - = * - - * - * * * = = = * ; ; ; * > & , ' ) = ! = * * - - ; * * * = * - = = ; * ; ; = - = * = - ! > ~ ~ ",
"{ ] ^ ] ] / / / ( _ / / / : _ ( ( : / / / _ / ( ( / / ] { < { ] [ { } [ ] ( / / / _ / / _ _ ( _ / / / _ _ _ / / / / / ] ] | 1 ] ",
"2 3 4 5 6 7 8 9 0 a b c a 8 8 9 9 a 7 7 a a 8 9 b a a d 2 e 2 5 f f g d 3 8 8 9 b c b 8 a h 0 9 a c b 8 a 8 h 8 a 8 9 6 2 i 2 j ",
"k l m n o p q n n p r s q c o n c q c n r q n n n t p c o u k v w k x p q o q r q r o q q q r q q s o n s n q o o p q n q u k k ",
"y z A B C C D C E F C C C C C G F C C G F C C C B B F F G H z I z J A C F C C G C C G B C C G G F D C C F G C D C F C K C H z y ",
"L M N O O P O P O O O P O O O O O P O P O O P O P P O P O Q M M R R S O O O P T U O O O O O O O O P U O O O O O P U U P O Q M M ",
"V V W X Y Z X ` X X X X  .Z X X X X X X X X  .X  .X X X X ..V +.V V @.X X X X X X Z Z X X X X X X X X X Z X X X  .X Z Z X #.V $.",
"%.&.*.=.=.-.=.-.=.;.=.;.>.;.=.=.;.;.-.-.;.-.-.=.;.-.;.;.,.'.).&.!.%.~.;.;.,.=.;.;.;.;.;.-.;.;.;.;.` ;.=.-.;.;.;.;.-.=.;.-.{.%.).",
"].^./.(.(._._._.(._.(._.(._.(._.(.(.(._.(.(.(.(.(.(.(.(._.:.^.].].^.<._.(._.(._._._.(.(.(._.(.(._._.(._._._.(.(.(._._.(.(.:.].].",
"[.[.}.|.1.1.2.2.3.2.3.3.1.2.1.1.1.2.3.4.1.|.2.1.2.1.3.2.|.5.[.6.7.6.8.2.1.1.2.3.1.2.2.|.1.1.2.1.2.2.2.1.|.2.2.2.1.9.1.2.|.0.a.b.",
"c.d.e.f.f.f.f.f.f.g.f.f.h.i.i.j.f.k.f.h.k.f.f.f.f.f.i.f.i.l.m.m.n.m.o.i.f.f.h.f.f.f.f.f.k.i.i.f.f.i.k.h.h.f.f.f.k.f.i.i.f.l.m.m.",
"p.p.q.r.s.t.r.s.u.u.s.u.u.s.u.r.v.w.s.r.r.u.s.u.s.u.u.s.r.x.p.p.y.p.z.u.A.A.u.r.s.u.v.r.s.t.u.r.s.u.u.u.r.u.r.u.s.u.u.s.s.x.p.B.",
"C.D.E.F.F.w.G.G.H.w.G.G.G.G.I.I.J.I.w.w.G.I.w.G.G.K.I.G.F.L.M.M.M.N.O.G.F.I.F.F.G.F.F.G.J.J.H.G.G.P.F.F.F.w.G.F.H.w.G.F.H.Q.C.D.",
"R.R.S.T.T.U.T.V.W.W.U.X.T.T.T.U.Y.U.T.T.W.T.T.U.Y.X.Z.U.T.`. +.+++ +S.U.Z.T.W.U.U.T.W.T.U.T.W.U.W.U.T.T.T.U.T.Z.X.U.Y.W.W.@+ + +",
"#+$+%+&+*+=+&+-+;+*+*+=+>+,+'+;+&+;+;+&+;+*+=+&+-+=+;+&+=+)+#+!+!+~+%+;+*+=+'+'+&+*+=+=+>+;+;+;+;+'+&+*+'+*+=+;+&+-+&+&+;+{+~+]+",
"^+/+(+_+_+:+<+:+:+:+[+:+:+_+[+_+:+:+[+:+:+[+:+:+_+_+:+_+:+}+|+/+/+1+2+:+<+:+:+:+:+:+[+_+:+[+_+:+:+:+:+:+:+:+:+_+:+[+<+:+:+3+4+/+",
"5+6+7+8+9+9+0+0+8+0+0+8+a+0+0+9+8+0+a+a+0+0+8+0+b+0+a+0+0+c+6+6+d+6+e+0+a+8+a+0+0+a+9+8+9+a+8+8+0+a+8+9+a+8+0+8+0+0+0+a+0+c+d+5+",
"f+f+g+h+i+i+h+i+j+i+k+i+l+j+i+k+m+l+i+i+i+j+i+i+i+i+k+h+l+n+o+o+p+o+q+i+k+k+i+i+h+h+i+k+i+j+j+h+i+i+j+k+k+k+k+h+i+i+k+k+k+r+o+o+",
"s+t+u+v+w+w+x+x+v+w+y+z+v+A+A+v+v+B+z+y+v+x+x+y+w+v+B+y+w+C+D+E+F+D+G+w+w+A+v+z+H+z+v+w+H+x+z+y+v+A+v+w+B+v+z+z+A+v+v+x+A+I+J+K+",
"L+M+N+O+O+P+O+P+Q+R+S+S+R+O+T+B+R+O+R+R+O+U+S+Q+R+R+S+Q+S+V+W+L+L+J+X+O+P+O+U+P+S+S+P+O+P+Q+Q+O+Q+R+B+P+R+O+O+Q+R+O+Q+S+U+Y+L+Z+",
"`+ @.@+@@@#@+@$@$@%@$@&@+@%@+@+@+@+@+@+@$@$@$@+@$@$@$@+@@@*@=@-@;@;@>@$@@@$@$@@@$@$@$@#@$@$@$@+@$@$@&@$@@@%@%@%@$@@@+@$@$@,@'@ @",
")@!@~@{@]@]@{@^@]@^@^@/@^@{@{@^@^@^@^@^@^@/@^@^@^@(@^@]@^@_@)@)@:@<@~@^@^@{@^@]@/@{@{@^@^@^@{@^@{@^@]@^@]@{@/@{@]@^@^@^@]@[@<@<@",
"}@}@|@1@1@1@1@2@2@1@1@2@2@1@3@1@4@1@1@1@1@1@1@1@3@2@2@3@1@5@}@}@}@}@|@3@3@3@1@1@1@1@4@1@1@1@1@3@2@1@1@1@1@1@1@1@1@1@1@6@1@7@}@}@",
"8@9@0@a@b@c@b@b@a@b@d@b@b@e@b@b@b@f@c@c@a@a@g@g@b@a@b@c@b@h@8@8@i@j@k@b@c@a@b@a@b@g@b@f@a@a@d@a@g@b@a@g@c@a@a@b@a@b@a@b@a@l@j@m@",
"n@o@p@q@r@r@s@r@r@q@q@q@q@q@q@q@t@r@r@r@u@s@v@q@s@q@v@r@w@x@n@o@y@o@z@r@r@q@r@r@u@q@v@r@q@r@v@r@t@r@q@q@s@v@w@r@q@v@q@q@s@A@n@o@",
"B@C@D@E@E@F@E@F@G@E@F@E@F@F@F@F@E@F@G@F@F@F@H@F@F@G@F@H@E@I@J@C@J@B@K@F@E@G@L@F@E@F@G@F@G@F@F@E@G@F@M@F@F@E@F@F@F@F@E@E@H@N@B@J@",
"O@P@Q@R@R@S@S@S@T@S@S@S@S@R@R@S@S@S@S@S@S@S@S@R@S@S@S@S@S@U@V@P@P@W@Q@T@S@S@S@S@S@S@R@S@S@T@R@S@S@R@S@S@R@R@S@S@S@S@S@T@S@X@P@P@",
"Y@Y@Z@`@`@`@`@`@`@`@`@ #`@.#`@.#+#`@`@`@`@`@`@`@`@`@`@@#`@##Y@Y@$#$#%#`@`@.#`@`@`@`@`@`@`@`@`@`@`@`@`@.#`@.#`@.#`@.#`@`@`@&#Y@Y@",
"*#*#=#-#;#>#>#>#,#>#>#'#,#>#,#;#,#;#>#)#>#;#>#;#;#;#>#>#>#!#*#*#~#*#{#;#>#)#)#>#)#;#;#>#>#;#)#;#>#-#-#)#)#,#>#>#>#>#,#>#)#]#*#^#",
"/#(#_#:#<#[#:#:#<#<#:#<#<#<#<#:#[#<#<#:#<#<#}#:#:#:#:#|#[#1#2#(#2#/#3#:#<#:#:#}#|#<#}#<#:#:#<#<#<#:#:#:#<#:#<#:#<#[#:#:#:#4#2#2#",
"5#6#7#8#9#0#9#8#8#9#a#a#0#0#b#a#a#8#a#0#8#8#a#a#9#c#0#b#a#d#6#5#6#e#f#c#8#9#a#0#0#b#g#a#0#a#a#9#c#9#8#a#9#9#h#a#a#9#a#g#a#i#j#e#",
"k#k#l#m#n#n#n#n#n#n#n#n#n#n#n#n#n#m#n#n#n#n#o#p#n#n#m#q#n#r#k#s#s#k#t#b#u#m#n#m#q#n#u#n#u#u#n#m#n#m#n#n#n#q#n#n#m#p#q#n#q#r#k#k#",
"v#v#w#x#x#y#y#z#A#A#y#x#A#y#y#y#x#z#z#y#y#x#y#x#y#z#y#x#y#B#v#C#D#v#E#x#A#y#y#A#x#y#y#x#x#y#A#A#y#y#y#x#z#A#x#A#x#z#y#A#x#B#v#C#",
"F#F#G#H#I#H#I#I#J#I#H#K#H#I#L#K#I#H#J#H#H#L#I#H#H#M#H#H#I#N#O#F#O#O#G#K#L#H#H#H#M#I#H#H#I#H#H#H#I#I#H#H#J#I#H#H#J#H#M#L#M#P#Q#Q#",
"R#S#T#U#V#U#U#W#U#X#V#V#U#W#Y#Z#`#W#W#Z#V#X#`#Z#W#V#U#V#W# $R#R#R#S#T#U#V#W#.$V#V#U#U#Z#V#W#`#W#U#W#Z#V#Y#U#U#V#V#`#W#W#`# $R#+$",
"@$#$$$%$&$*$%$%$%$*$=$X#-$*$;$>$-$=$;$=$*$%$&$&$&$-$;$-$=$,$'$#$@$'$)$;$=$-$&$;$-$-$&$=$-$>$=$%$&$-$%$*$%$&$%$%$=$X#%$%$X#!$@$~$",
"{$]$^$/$($_$:$($<$($($($($<$:$($_$:$($($($:$($($($($_$<$:$[${${$]$}$^$($($($:$_$($<$($($:$_$_$_$:$($<$($:$:$|$_$<$_$($<$:$1$}$]$",
"2$2$3$4$5$6$4$5$7$4$7$5$7$4$6$6$4$7$5$7$6$4$5$4$6$6$7$6$4$8$9$2$2$0$a$5$/$7$5$6$5$5$4$6$5$6$7$6$5$6$4$4$4$4$4$4$6$7$6$7$6$b$9$2$",
"c$c$d$e$f$f$f$e$e$f$f$e$g$f$e$h$f$e$f$f$i$e$e$i$e$f$f$f$e$j$c$c$c$k$d$g$g$e$f$e$i$f$e$f$f$f$e$f$e$f$f$g$h$l$e$l$g$g$e$g$g$m$k$c$",
"n$o$p$q$q$r$s$t$r$q$q$t$u$r$t$v$t$w$x$r$q$u$r$r$r$t$u$u$q$y$z$z$A$A$B$u$t$r$v$q$q$v$t$v$q$t$v$t$r$v$v$r$q$r$r$u$x$w$u$q$x$C$z$n$",
"D$E$F$G$G$H$I$G$J$K$G$L$I$I$G$H$H$H$L$G$M$G$G$G$G$H$H$G$H$N$D$O$P$E$Q$H$H$G$L$G$I$L$J$H$G$I$H$G$H$M$H$G$H$M$G$M$J$H$M$J$I$R$P$P$",
"S$T$U$V$W$X$V$X$Y$Y$V$V$Y$Y$Y$Z$Y$Y$Z$V$Y$Y$V$Y$Y$Y$Y$Y$Y$`$ %S$.%+%@%Y$Y$Y$Y$Y$#%Z$Y$Z$X$W$V$Z$Z$Z$W$Y$V$Z$Z$#%W$Z$W$$%Y$%%&%S$",
"*%=%-%;%>%,%'%'%;%>%>%;%;%'%;%>%V$,%;%;%;%,%>%;%;%)%;%;%)%!%=%~%=%~%-%;%,%;%;%,%;%>%,%;%,%)%;%;%,%'%>%;%,%;%,%>%;%{%>%,%;%!%~%~%",
"]%^%/%(%(%_%(%(%(%:%(%<%(%(%[%<%(%(%(%(%}%[%(%(%(%(%(%(%}%|%]%]%^%]%1%[%(%_%(%(%(%(%(%(%(%(%(%<%(%(%(%(%(%(%(%(%(%(%[%(%(%2%]%]%",
"3%3%4%5%6%5%7%8%7%8%6%5%5%:%5%7%5%5%8%5%5%6%8%7%7%8%8%5%5%9%0%3%3%0%a%7%:%6%b%6%:%6%6%6%8%7%7%8%5%8%6%7%5%6%5%6%5%5%5%6%5%c%3%3%",
"d%d%e%f%f%g%f%g%f%f%f%f%g%g%g%g%f%g%g%g%f%g%f%h%f%g%f%i%f%j%d%d%d%k%e%f%g%f%f%f%g%g%f%g%g%g%f%g%g%l%f%g%f%g%f%f%g%g%g%f%i%m%d%d%",
"n%o%p%q%r%q%s%s%t%r%q%t%s%s%r%r%t%q%s%s%t%t%t%s%q%s%q%s%r%u%o%v%w%n%p%t%t%t%q%t%r%r%t%x%t%r%t%t%t%s%r%r%q%t%r%t%r%r%t%q%t%y%w%o%",
"z%A%B%C%D%C%C%E%C%C%C%D%C%F%C%F%C%C%D%C%E%C%F%C%G%D%C%C%F%H%A%z%A%A%I%C%C%D%C%C%J%F%C%C%G%F%C%D%G%D%D%D%F%C%E%C%D%C%C%G%C%K%A%A%",
"L%L%M%N%O%P%Q%N%N%N%N%Q%Q%P%Q%N%N%Q%N%Q%Q%Q%N%Q%Q%N%Q%Q%Q%R%S%T%L%L%U%Q%N%N%Q%O%O%N%Q%Q%N%N%P%Q%Q%Q%Q%Q%N%Q%Q%P%Q%Q%Q%Q%Q%V%L%S%",
"W%X%Y%Z%`% &.&+&`%`%.&`% &@&Z%@&.&`%+&`%`%`%`%+&Z%@&`%`%.&#&X%X%X%X%$&`%`%+&Z%`%@&.&+&`%`%`%`% &`%+&`%`% &@&`%%&`%.&`%`% &#&X%X%",
"&&&&*&=&-&;&=&>&=&,&=&=&>&>&-&-&-&-&,&=&=&'&-&=&-&-&-&>&-&)&!&~&!&{&]&-&-&-&-&-&-&-&-&=&=&,&^&-&-&-&-&-&=&^&>&,&-&-&>&-&>&)&~&{&",
"/&/&(&_&_&:&:&_&<&_&<&[&}&:&:&[&:&:&|&[&}&:&<&[&:&}&:&<&}&1&2&3&/&4&5&6&<&<&:&_&_&:&:&_&7&_&}&}&[&:&|&[&[&|&<&_&:&<&6&}&}&8&3&/&",
"9&0&a&b&c&d&d&d&c&c&d&c&c&c&d&c&e&d&c&c&d&c&b&d&c&d&b&c&c&f&9&9&9&0&g&c&d&d&c&c&c&e&d&c&e&e&d&c&c&e&d&c&b&e&b&d&d&c&c&e&c&f&9&9&",
"h&h&i&j&k&l&j&j&j&k&k&j&j&k&j&k&k&l&j&j&k&j&k&k&j&j&j&k&j&m&h&n&h&o&p&j&k&j&j&j&k&j&j&j&j&j&j&k&k&j&k&k&k&j&k&j&j&j&q&j&j&m&h&h&",
"h&h&r&j&l&k&j&k&j&k&j&k&j&j&q&j&k&l&j&j&k&q&j&k&k&k&q&j&k&m&h&o&o&h&p&j&j&k&j&k&k&j&k&l&k&j&j&j&l&k&k&j&j&j&l&j&k&j&j&k&j&s&h&h&",
"n&n&p&q&k&j&k&q&j&j&k&j&l&j&j&k&j&l&q&j&j&q&j&k&k&q&k&k&k&m&h&h&h&h&p&j&j&j&j&k&j&j&k&j&j&j&j&j&q&j&j&k&q&l&k&j&j&j&j&j&j&m&o&o&",
"o&o&p&j&j&j&k&j&j&j&j&j&k&j&k&j&j&k&j&k&k&j&j&j&j&k&k&j&j&m&h&o&o&n&r&j&j&j&j&q&j&l&j&j&q&l&j&k&j&j&j&k&k&j&j&j&j&j&j&k&k&m&h&h&",
"t&n&p&h&o&q&q&k&j&j&j&k&j&j&q&j&q&q&j&j&j&j&j&k&k&l&k&t&h&m&o&h&h&h&p&n&h&j&j&k&j&k&j&j&k&k&j&j&l&j&k&j&j&l&j&j&k&l&j&o&t&m&o&h&",
"h&o&i&h&h&j&j&k&k&j&k&j&k&j&j&k&k&j&j&j&j&j&k&j&j&j&k&h&h&u&h&h&h&o&v&n&o&j&j&k&j&j&k&k&k&j&k&k&q&k&j&k&k&j&k&j&j&j&l&o&o&s&h&h&",
"h&t&w&m&m&s&m&m&s&s&m&s&m&m&u&m&m&m&m&s&m&m&s&m&m&m&x&m&m&m&o&t&h&h&y&m&s&m&m&m&m&s&m&s&u&m&x&u&u&m&u&s&m&m&m&s&m&m&m&s&m&s&h&h&",
"n&o&h&h&o&t&o&o&o&h&o&h&h&h&h&o&o&h&h&t&o&h&o&h&h&h&o&o&h&t&h&h&h&h&h&t&n&h&h&h&h&o&h&n&o&n&h&h&h&o&o&o&h&o&o&t&h&h&t&h&h&h&h&o&",
"h&o&h&h&h&o&h&o&t&o&h&t&h&h&h&h&h&h&h&o&o&h&h&o&n&h&h&h&n&h&o&t&h&h&h&o&o&h&t&h&n&t&h&h&h&h&o&t&h&n&h&h&o&h&o&o&t&o&h&o&h&h&h&o&"};
