/* XPM */
static char * south_xpm[] = {
"64 64 14 1",
" 	c None",
".	c #663300",
"+	c #CC6633",
"@	c #FFAE4C",
"#	c #FFCC66",
"$	c #FFCC33",
"%	c #FFC054",
"&	c #FF9933",
"*	c #FFCC99",
"=	c #FF9900",
"-	c #FF6600",
";	c #FFFF66",
">	c #FFFF99",
",	c #777777",
"................................................................",
"++++++++++++++++++++++++++++++++++++++++++++++++++++++++++++++++",
"@@@@@@@@@@@@@@@@@@@@@@@@@@@@@@@@@@@@@@@@@@@@@@@@@@@@@@@@@@@@@@@@",
"################################################################",
"$$$$$$$$$$$$$$$$$$$$$$$$$$$$$$$$$$$$$$$$$$$$$$$$$$$$$$$$$$$$$$$$",
"################################################################",
"####################@@@@@@@@@@@@@@@#############################",
"@@@@@@@@@@@@@@@@@@@@%%%%%%%%%%%%%%%@@@@@@@@@@@@@@@@@@@@@@@@@@@@@",
"%%%%%%%%%%%%%%%%%%%%%%%%%%%%%%%%%%%%%%%%%%%%%%%%%%%%%%%%%%%%%%%%",
"%%%%%%%%%%%%%%%%%%%%%%%%%%%%%%%%%%%%%%%%%%%%%%%%%%%%%%%%%%%%%%%%",
"&&&&&&&&&&&&&&&&&&&&&&&&&&&&&&&&&&&&&&&&&&&&&&&&&&&&&&&&&&&&&&&&",
"################################################################",
"################################################################",
"@@@@##############@@@@@@@@@@@@@@@@@@@@@@@@@@@@@@@@@@@@@@@@@@####",
"####@@@@@@@@@@@@@@##########################################@@@@",
"################################################################",
"****************************************************************",
"$$$$$$$$$$$$$$$$$$$$$$$$$$$$$$$$$$$$$$$$$$$$$$$$$$$$$$$$$$$$$$$$",
"################################################################",
"################################################################",
"################################################################",
"#@@@@@@##########@@@@@@@@@@@@@@@@@@@@####################@@@@@@#",
"@%%%%%%@@@@@@@@@@%%%%%%%%%%%%%%%%%%%%@@@@@@@@@@@@@@@@@@@@%%%%%%@",
"%%%%%%%%%%%%%%%%%%%%%%%%%%%%%%%%%%%%%%%%%%%%%%%%%%%%%%%%%%%%%%%%",
"@@@@@@@@%%%%%%%%%@@@@@@@@@@@@@@@@@@%%%%%%%%@@@@@@@@@@@@@@@@@@@@@",
"########@@@@@@@@@##################@@@@@@@@#####################",
"################################################################",
"###############################@@@@@@@@@@@@@@###################",
"@@@@@@@@@@@@@@@@@@@@@@@@@@@@@@@##############@@@@@@@@@@@@@@@@@@@",
"################################################################",
"########***************########@@@@@@@@@@@@@@@@@@@@@@@@#########",
"##############################@########################@@#######",
"###########################@@@#########&&&&&&&&&#########@@@####",
"############@@@@@@@@@@@@@@@#####$$###&&########$&&&&&#######@###",
"@@@@@@@@@@@@###################$$##&&##&&&&&&=&######@@@@####@@@",
"###########################%%%%###&###&&@@@@@-&&&#$$$$$##@@@####",
"######################%%%%%%%$####&####&=&=&&&-&$#####@@@@@#####",
"%%%%%%%%%%%%%%%%%%%%%%%%%%%%######&##########&&###@@@@#######%%%",
"********%%%%%%%%%%%%%%%%%#%%%$$####&&&&&&######&&&#####*%%%%%%**",
"########################%%%%%%%$$$#######&&&&&&####%%%%%%%%%%###",
"#############################%%%%%%$###########%%%%%%*##########",
"#######@#######################%%%%%%%%********################@",
"@@@@@@@#@@@@@@@@@@@@@@@@@@@@@@################@@@@@@@@@@@@@@@@@#",
"##############################@@@@@@@@@@@@@@@@##################",
"################################################################",
"$$$$$$$$$$$$$$$$$$$$$$$$$$$$$$$$$$$$$$$$$$$$$$$$$$$$$$$$$$$$$$$$",
"%%%%%%%%%%%%%%%%%%%%%%%%%%%%%%%%%%%%%%%%%%%%%%%%%%%%%%%%%%%%%%%%",
"%%%%%%%%%%%%%%%%%%%%%%%%%%%%%%%%%%%%%%%%%%%%%%%%%%%%%%%%%%%%%%%%",
"*******########################********************************#",
"################################################################",
"################################################################",
"@@@@@@@@@@@@@@@@@@@@@@@@@@@@@@@@@@@###########@@@@@@@@@@@@@@@@@@",
"%%%%%%%%%%%%%%%%%%%%%%%%%%%%%%%%%%%@@@@@@@@@@@%%%%%%%%%%%%%%%%%%",
"%%%%%%%%%%%%%%%%%%%%%%%%%%%%%%%%%%%%%%%%%%%%%%%%%%%%%%%%%%%%%%%%",
"%%%%%%%%%%%%%%%%%%%%%%%%%%%%%%%%%%%%%%%%%%%%%%%%%%%%%%%%%%%%%%%%",
"@@@@@@@@@@@@@@@@@@@@@@@@@@@@@@@@@@@@@@@@@@@@@@@@@@@@@@@@@@@@@@@@",
"****************************************************************",
"################################################################",
"%%%%%%%%%%%%%%%%%%%%%%%%%%%%%%%%%%%%%%%%%%%%%%%%%%%%%%%%%%%%%%%%",
"################################################################",
";;;;;;;;;;;;;;;;;;;;;;;;;;;;;;;;;;;;;;;;;;;;;;;;;;;;;;;;;;;;;;;;",
">>>>>>>>>>>>>>>>>>>>>>>>>>>>>>>>>>>>>>>>>>>>>>>>>>>>>>>>>>>>>>>>",
"&&&&&&&&&&&&&&&&&&&&&&&&&&&&&&&&&&&&&&&&&&&&&&&&&&&&&&&&&&&&&&&&",
",,,,,,,,,,,,,,,,,,,,,,,,,,,,,,,,,,,,,,,,,,,,,,,,,,,,,,,,,,,,,,,,"};
