/* XPM */
static char * test_e_xpm[] = {
"64 64 537 2",
"  	c None",
". 	c #FF0000",
"+ 	c #FF0900",
"@ 	c #FF1600",
"# 	c #FF2300",
"$ 	c #FF2D00",
"% 	c #FF3A00",
"& 	c #FF4700",
"* 	c #FF5500",
"= 	c #FF6200",
"- 	c #FF6B00",
"; 	c #FF7900",
"> 	c #FF8600",
", 	c #FF9300",
"' 	c #FFA000",
") 	c #FFA900",
"! 	c #FFB700",
"~ 	c #FFC400",
"{ 	c #FFD200",
"] 	c #FFDF00",
"^ 	c #FFE800",
"/ 	c #FFF500",
"( 	c #FCFF00",
"_ 	c #EEFF00",
": 	c #E1FF00",
"< 	c #D8FF00",
"[ 	c #CAFF00",
"} 	c #BCFF00",
"| 	c #B0FF00",
"1 	c #A2FF00",
"2 	c #99FF00",
"3 	c #8CFF00",
"4 	c #7EFF00",
"5 	c #71FF00",
"6 	c #64FF00",
"7 	c #5BFF00",
"8 	c #4DFF00",
"9 	c #40FF00",
"0 	c #33FF00",
"a 	c #25FF00",
"b 	c #1CFF00",
"c 	c #0FFF00",
"d 	c #01FF00",
"e 	c #00FF0C",
"f 	c #00FF19",
"g 	c #00FF22",
"h 	c #00FF30",
"i 	c #00FF3D",
"j 	c #00FF4A",
"k 	c #00FF57",
"l 	c #00FF61",
"m 	c #00FF6E",
"n 	c #00FF7B",
"o 	c #00FF88",
"p 	c #00FF96",
"q 	c #00FF9F",
"r 	c #00FFAC",
"s 	c #00FFBA",
"t 	c #00FFC7",
"u 	c #00FFD5",
"v 	c #00FFDE",
"w 	c #00FFEB",
"x 	c #00FFF8",
"y 	c #FF1700",
"z 	c #FF2400",
"A 	c #FF5400",
"B 	c #FFA100",
"C 	c #FFAA00",
"D 	c #FBFF00",
"E 	c #E0FF00",
"F 	c #BDFF00",
"G 	c #9AFF00",
"H 	c #5AFF00",
"I 	c #1DFF00",
"J 	c #02FF00",
"K 	c #00FF58",
"L 	c #00FF97",
"M 	c #00FFDD",
"N 	c #00F8FF",
"O 	c #FF3100",
"P 	c #FF4800",
"Q 	c #FF6F00",
"R 	c #FFAE00",
"S 	c #FFD100",
"T 	c #FFED00",
"U 	c #FFF600",
"V 	c #D3FF00",
"W 	c #AFFF00",
"X 	c #95FF00",
"Y 	c #7FFF00",
"Z 	c #63FF00",
"` 	c #56FF00",
" .	c #32FF00",
"..	c #26FF00",
"+.	c #18FF00",
"@.	c #00FF27",
"#.	c #00FF65",
"$.	c #00FF89",
"%.	c #00FFA4",
"&.	c #00FFD4",
"*.	c #00FFE2",
"=.	c #00EAFF",
"-.	c #FF3200",
";.	c #FF7000",
">.	c #FF9400",
",.	c #FFB600",
"'.	c #FFC500",
").	c #EDFF00",
"!.	c #3FFF00",
"~.	c #00FF4B",
"{.	c #00FF66",
"].	c #00FFA3",
"^.	c #00FFAD",
"/.	c #00EBFF",
"(.	c #00DDFF",
"_.	c #FFEC00",
":.	c #CBFF00",
"<.	c #57FF00",
"[.	c #4EFF00",
"}.	c #00FF1A",
"|.	c #00FF26",
"1.	c #00DEFF",
"2.	c #00D5FF",
"3.	c #FF3E00",
"4.	c #FF7D00",
"5.	c #FF8500",
"6.	c #FFBB00",
"7.	c #FFF900",
"8.	c #C5FF00",
"9.	c #87FF00",
"0.	c #49FF00",
"a.	c #0AFF00",
"b.	c #00FF34",
"c.	c #00FF72",
"d.	c #00FF7C",
"e.	c #00FFB1",
"f.	c #00FFB9",
"g.	c #00D4FF",
"h.	c #00C7FF",
"i.	c #FF6300",
"j.	c #FF7C00",
"k.	c #FFFA00",
"l.	c #88FF00",
"m.	c #17FF00",
"n.	c #0BFF00",
"o.	c #00FFEF",
"p.	c #00D0FF",
"q.	c #00C8FF",
"r.	c #00BAFF",
"s.	c #FF3F00",
"t.	c #FFBC00",
"u.	c #C6FF00",
"v.	c #00FF0B",
"w.	c #00FF73",
"x.	c #00FFF0",
"y.	c #00FFF9",
"z.	c #00ACFF",
"A.	c #FF4C00",
"B.	c #FF8B00",
"C.	c #00FFC8",
"D.	c #00F9FF",
"E.	c #009FFF",
"F.	c #FF8A00",
"G.	c #FFC900",
"H.	c #F7FF00",
"I.	c #B8FF00",
"J.	c #000000",
"K.	c #00FF41",
"L.	c #00FF7F",
"M.	c #00FFBE",
"N.	c #00FFFC",
"O.	c #00D1FF",
"P.	c #00C2FF",
"Q.	c #00ADFF",
"R.	c #0091FF",
"S.	c #D4FF00",
"T.	c #7AFF00",
"U.	c #3BFF00",
"V.	c #00FF03",
"W.	c #00FF80",
"X.	c #00FFFD",
"Y.	c #00C3FF",
"Z.	c #0092FF",
"`.	c #0085FF",
" +	c #94FF00",
".+	c #3CFF00",
"++	c #00FF42",
"@+	c #0084FF",
"#+	c #007CFF",
"$+	c #FF9800",
"%+	c #FFD600",
"&+	c #E9FF00",
"*+	c #ABFF00",
"=+	c #6DFF00",
"-+	c #2EFF00",
";+	c #00FF11",
">+	c #00FF4F",
",+	c #00FF8D",
"'+	c #00FFBF",
")+	c #00FFCC",
"!+	c #00F4FF",
"~+	c #00B6FF",
"{+	c #006EFF",
"]+	c #EAFF00",
"^+	c #A3FF00",
"/+	c #6CFF00",
"(+	c #48FF00",
"_+	c #00FFB0",
":+	c #00FFCB",
"<+	c #00B5FF",
"[+	c #0077FF",
"}+	c #0060FF",
"|+	c #00F3FF",
"1+	c #00A0FF",
"2+	c #0061FF",
"3+	c #0053FF",
"4+	c #FFA500",
"5+	c #FFC800",
"6+	c #FFE300",
"7+	c #DCFF00",
"8+	c #B9FF00",
"9+	c #00FF10",
"0+	c #0046FF",
"a+	c #9DFF00",
"b+	c #21FF00",
"c+	c #00FF1E",
"d+	c #00FF5C",
"e+	c #00FF9A",
"f+	c #00FFD9",
"g+	c #00E6FF",
"h+	c #00A8FF",
"i+	c #006AFF",
"j+	c #0054FF",
"k+	c #0039FF",
"l+	c #FFD700",
"m+	c #FFE400",
"n+	c #9EFF00",
"o+	c #5FFF00",
"p+	c #00FF9B",
"q+	c #0069FF",
"r+	c #002BFF",
"s+	c #60FF00",
"t+	c #00FFDA",
"u+	c #00E7FF",
"v+	c #0038FF",
"w+	c #002CFF",
"x+	c #0022FF",
"y+	c #FFF100",
"z+	c #F6FF00",
"A+	c #CEFF00",
"B+	c #90FF00",
"C+	c #52FF00",
"D+	c #13FF00",
"E+	c #00FF2B",
"F+	c #00FF69",
"G+	c #00FFA8",
"H+	c #00FFE6",
"I+	c #00D9FF",
"J+	c #009AFF",
"K+	c #005DFF",
"L+	c #001EFF",
"M+	c #0015FF",
"N+	c #00FF5D",
"O+	c #00FFE7",
"P+	c #005CFF",
"Q+	c #0045FF",
"R+	c #0008FF",
"S+	c #009BFF",
"T+	c #001DFF",
"U+	c #0600FF",
"V+	c #FFFE00",
"W+	c #C1FF00",
"X+	c #83FF00",
"Y+	c #44FF00",
"Z+	c #20FF00",
"`+	c #06FF00",
" @	c #00FF4E",
".@	c #00FF8E",
"+@	c #00A9FF",
"@@	c #0007FF",
"#@	c #1300FF",
"$@	c #C2FF00",
"%@	c #91FF00",
"&@	c #45FF00",
"*@	c #00FF39",
"=@	c #00FF6A",
"-@	c #00FF77",
";@	c #00FFB5",
">@	c #00FFF4",
",@	c #00CCFF",
"'@	c #008DFF",
")@	c #004EFF",
"!@	c #0010FF",
"~@	c #2000FF",
"{@	c #CFFF00",
"]@	c #05FF00",
"^@	c #00FF1D",
"/@	c #00FF38",
"(@	c #00FFB6",
"_@	c #00CBFF",
":@	c #004FFF",
"<@	c #0011FF",
"[@	c #1400FF",
"}@	c #2100FF",
"|@	c #2E00FF",
"1@	c #82FF00",
"2@	c #3700FF",
"3@	c #B4FF00",
"4@	c #75FF00",
"5@	c #51FF00",
"6@	c #37FF00",
"7@	c #00FF07",
"8@	c #00FF46",
"9@	c #00FF85",
"0@	c #00FFC3",
"a@	c #00FDFF",
"b@	c #00BEFF",
"c@	c #0080FF",
"d@	c #0042FF",
"e@	c #0003FF",
"f@	c #3B00FF",
"g@	c #4400FF",
"h@	c #14FF00",
"i@	c #00FF76",
"j@	c #00FF84",
"k@	c #00FFF3",
"l@	c #00BFFF",
"m@	c #0041FF",
"n@	c #5200FF",
"o@	c #007FFF",
"p@	c #3C00FF",
"q@	c #5F00FF",
"r@	c #A7FF00",
"s@	c #68FF00",
"t@	c #2AFF00",
"u@	c #00FF08",
"v@	c #00FF15",
"w@	c #00FF54",
"x@	c #00FF92",
"y@	c #4500FF",
"z@	c #6D00FF",
"A@	c #29FF00",
"B@	c #00FF2C",
"C@	c #00FF45",
"D@	c #00FF53",
"E@	c #00FFD0",
"F@	c #00EFFF",
"G@	c #00B1FF",
"H@	c #0072FF",
"I@	c #0034FF",
"J@	c #0B00FF",
"K@	c #4900FF",
"L@	c #6C00FF",
"M@	c #7A00FF",
"N@	c #00FF14",
"O@	c #00FF91",
"P@	c #00FFD1",
"Q@	c #00F0FF",
"R@	c #008EFF",
"S@	c #4800FF",
"T@	c #8700FF",
"U@	c #0073FF",
"V@	c #8800FF",
"W@	c #9100FF",
"X@	c #00FF60",
"Y@	c #00E2FF",
"Z@	c #00A4FF",
"`@	c #0065FF",
" #	c #0026FF",
".#	c #0A00FF",
"+#	c #1800FF",
"@#	c #5600FF",
"##	c #9400FF",
"$#	c #9D00FF",
"%#	c #00FCFF",
"&#	c #00A3FF",
"*#	c #0027FF",
"=#	c #2F00FF",
"-#	c #9E00FF",
";#	c #AB00FF",
">#	c #00FF23",
",#	c #1700FF",
"'#	c #9500FF",
")#	c #B900FF",
"!#	c #0EFF00",
"~#	c #00FF2F",
"{#	c #0096FF",
"]#	c #6000FF",
"^#	c #B800FF",
"/#	c #C500FF",
"(#	c #0058FF",
"_#	c #0019FF",
":#	c #2500FF",
"<#	c #6300FF",
"[#	c #A200FF",
"}#	c #C600FF",
"|#	c #D300FF",
"1#	c #00FF6F",
"2#	c #00FFC2",
"3#	c #001AFF",
"4#	c #5700FF",
"5#	c #6400FF",
"6#	c #E000FF",
"7#	c #0097FF",
"8#	c #E100FF",
"9#	c #E900FF",
"0#	c #0089FF",
"a#	c #004BFF",
"b#	c #000CFF",
"c#	c #3300FF",
"d#	c #7100FF",
"e#	c #AF00FF",
"f#	c #EE00FF",
"g#	c #F600FF",
"h#	c #0057FF",
"i#	c #004AFF",
"j#	c #0002FF",
"k#	c #2600FF",
"l#	c #3200FF",
"m#	c #B000FF",
"n#	c #F700FF",
"o#	c #FF00FA",
"p#	c #ED00FF",
"q#	c #FF00EC",
"r#	c #00B9FF",
"s#	c #007BFF",
"t#	c #0066FF",
"u#	c #003DFF",
"v#	c #0200FF",
"w#	c #FF00F9",
"x#	c #FF00ED",
"y#	c #FF00DF",
"z#	c #0088FF",
"A#	c #003CFF",
"B#	c #000BFF",
"C#	c #0100FF",
"D#	c #4000FF",
"E#	c #7E00FF",
"F#	c #BD00FF",
"G#	c #FB00FF",
"H#	c #FF00D2",
"I#	c #BC00FF",
"J#	c #FC00FF",
"K#	c #FF00C4",
"L#	c #00FFA0",
"M#	c #FF00BB",
"N#	c #0030FF",
"O#	c #0F00FF",
"P#	c #4E00FF",
"Q#	c #8C00FF",
"R#	c #CB00FF",
"S#	c #FF00F5",
"T#	c #FF00D1",
"U#	c #FF00B7",
"V#	c #FF00AE",
"W#	c #002FFF",
"X#	c #4D00FF",
"Y#	c #8B00FF",
"Z#	c #CA00FF",
"`#	c #FF00F6",
" $	c #FF00A1",
".$	c #0E00FF",
"+$	c #FF00C5",
"@$	c #FF00A0",
"#$	c #FF0093",
"$$	c #0023FF",
"%$	c #1D00FF",
"&$	c #5A00FF",
"*$	c #7F00FF",
"=$	c #9900FF",
"-$	c #FF00B6",
";$	c #FF0094",
">$	c #FF0086",
",$	c #00FFEA",
"'$	c #D800FF",
")$	c #FF00E8",
"!$	c #FF00AA",
"~$	c #FF0078",
"{$	c #5B00FF",
"]$	c #FF00E0",
"^$	c #FF00A9",
"/$	c #FF0085",
"($	c #FF0079",
"_$	c #FF006B",
":$	c #A300FF",
"<$	c #D700FF",
"[$	c #FF006C",
"}$	c #FF0062",
"|$	c #1C00FF",
"1$	c #2900FF",
"2$	c #6800FF",
"3$	c #A600FF",
"4$	c #E500FF",
"5$	c #FF00DB",
"6$	c #FF009C",
"7$	c #FF005E",
"8$	c #FF0055",
"9$	c #2A00FF",
"0$	c #FF005D",
"a$	c #FF0047",
"b$	c #3F00FF",
"c$	c #A700FF",
"d$	c #FF003A",
"e$	c #0014FF",
"f$	c #7600FF",
"g$	c #B400FF",
"h$	c #F200FF",
"i$	c #FF00DA",
"j$	c #FF00CD",
"k$	c #FF008E",
"l$	c #FF0048",
"m$	c #FF002C",
"n$	c #FF008F",
"o$	c #FF0050",
"p$	c #FF002D",
"q$	c #FF001F",
"r$	c #6900FF",
"s$	c #7500FF",
"t$	c #B300FF",
"u$	c #E400FF",
"v$	c #FF0012",
"w$	c #FF0009",
"x$	c #8300FF",
"y$	c #C200FF",
"z$	c #F300FF",
"A$	c #FF00FF",
"B$	c #FF00CE",
"C$	c #FF00C0",
"D$	c #FF0082",
"E$	c #FF0043",
"F$	c #FF0005",
"G$	c #C100FF",
"H$	c #FF00FE",
"I$	c #FF0081",
"J$	c #FF0004",
"K$	c #FF0051",
"L$	c #FF0020",
". . . + @ # $ % & * = - ; > , ' ) ! ~ { ] ^ / ( _ : < [ } | 1 2 3 4 5 6 7 8 9 0 a b c d e f g h i j k l m n o p q r s t u v w x ",
". . + y z $ % & A = - ; > , B C ! ~ { ] ^ / D _ E < [ F | 1 G 3 4 5 6 H 8 9 0 a I c J e f g h i j K l m n o L q r s t u M w x N ",
". + @ z O % P * = Q ; > , B R ! ~ S ] T U D _ : V [ F W 1 X 3 Y 5 Z ` 8 9  ...+.c d e f @.h i j K #.m n $.p %.r s t &.*.w x N =.",
"+ y # -.% & * = ;.; > >.B R ,.'.S ] T / D ).: V [ F W 1 X 3 Y 5 Z ` 8 !.0 a +.c d e f @.h i ~.K {.m n $.p ].^.s t &.*.w x N /.(.",
"y # O % & * = Q ; > >.' R ! ~ { ] _./ D ).: V :.F | 1 X 3 Y 5 6 <.[.!. .a +.c J e }.|.h i j K #.m n $.p %.^.s t u *.w x N =.1.2.",
"# O 3.& * = Q 4.5.>.' R 6.~ { ] T 7.D _ : V 8.F W 1 X 9.Y 5 6 <.0.9  .a +.a.J e f @.b.i ~.k #.c.d.$.p ].e.f.t &.*.w x N /.1.g.h.",
"O 3.P * i.Q j.> , ' R 6.~ { ] _.k.D _ : V 8.F W 1 X l.4 5 Z ` 0.!.0 a m.n.d e f |.b.i j K #.c.d.o L ].e.s t u *.o.x N /.1.p.q.r.",
"s.& A = ;.4.> , ' R t.~ { ] _.k.D _ E V u.F | 1 X 9.4 5 Z ` 0.9  .a +.a.J v.f |.b.i j k {.w.d.$.p ].e.s t u *.x.y.N /.1.p.h.r.z.",
"A.A = Q j.B., B R 6.~ S ] _.7.( ).E V 8.F | 1 X 9.4 5 6 ` 0.9  .a +.a.d e f @.b.i j K #.w.n $.p ].e.s C.&.*.x.x D./.1.p.h.r.z.E.",
"* = Q 4.F., B R t.G.{ ] _.7.H._ : V u.I.W 1 J.J.J.J.J.J.J.J.J.J.J.J.J.J.}.|.b.K.j k #.c.L.$.p ].e.M.C.&.*.o.N.N /.(.O.P.r.Q.E.R.",
"i.Q 4.F., B R 6.G.{ ] _.k.H._ E S.8.J.J.J.J.J.T.5 6 ` 0.U. .a +.a.V.e f J.J.J.J.k #.w.W.$.L ].e.M.t u *.o.X.N /.1.p.Y.r.z.E.Z.`.",
";.4.B., B R 6.G.S ] _.k.H._ E S.8.I.J.1  +9.T.5 Z <.0..+ .a +.a.V.v.f @.b.++j K J.J.J.$.p %.e.M.C.u *.o.N.N /.(.p.P.r.z.E.Z.@+#+",
"4.F.$+' R 6.G.%+] T k.H.&+: S.u.I.*+J.X 9.T.=+6 ` 0.U.-+..+.n.V.;+f @.b.K.>+K #.c.W.,+p %.e.'+)+u *.o.X.!+/.(.p.P.~+Q.E.R.@+#+{+",
"B.$+B R 6.G.%+] _.k.H.]+E V 8.I.*+^+J.9.T./+Z ` (+.+-+..+.a.V.;+f |.b.K.>+K #.c.W.,+L %._+'+:+u *.o.X.!+/.(.O.Y.<+Q.E.R.@+[+{+}+",
"$+B R t.G.%+] T k.H.&+E V u.I.*+1 X J.T.=+6 ` 0..+-+..+.n.V.;+}.|.b.++>+K #.c.L.,+p %._+M.)+u *.o.X.|+/.(.O.Y.~+z.1+R.`.[+{+2+3+",
"4+R 6.5+%+6+_.7.H.&+7+V u.8+*+1  +9.J.=+6 ` 0..+-+a +.a.V.9+}.|.b.K.>+K {.c.W.,+L %.e.'+)+u *.o.N.!+/.(.O.Y.~+z.1+Z.@+[+{+}+3+0+",
"R t.G.%+6+_.k.H.]+7+V 8.I.*+a+X 9.T./+J.` (+U.-+b+m.n.V.9+c+|.b.++>+d+#.c.W.,+e+].e.'+)+f+*.o.X.|+g+(.p.Y.<+h+1+R.@+[+i+2+j+0+k+",
"t.5+l+m+_.7.H.&+7+V 8.8+*+n+X l.T.=+o+J.0.U.-+b+m.n.V.;+c+@.b.K.>+d+#.c.W.,+p+%.e.M.)+f+*.x.X.|+g+(.p.Y.~+h+E.Z.@+[+q+2+3+0+k+r+",
"G.%+6+_.k.H.&+7+V u.I.*+a+X l.T.=+s+` J.U.-+b++.a.V.9+c+|.b.K.>+d+{.c.W.,+p+]._+M.:+t+*.o.X.|+u+1.O.Y.<+h+E.R.@+[+i+2+3+0+v+w+x+",
"%+m+y+k.z+]+7+A+8.I.*+n+B+9.T./+o+C+0.J.-+b+D+a.V.;+c+E+b.++>+d+F+w.W.,+e+G+e.'+)+f+H+o.X.!+g+I+p.Y.<+h+J+R.`.[+q+K+3+0+v+r+L+M+",
"6+y+7.H.]+7+A+u.I.*+n+B+l.T.=+s+C+0.U.J.b+D+n.V.9+c+E+b.K.>+N+F+c.W.,+p+G+e.M.:+f+O+o.N.!+u+I+p.P.~+h+J+Z.`.[+i+P+j+Q+v+w+L+M+R+",
"y+k.H.]+7+A+u.8+*+n+B+9.T./+o+C+0.U.-+J.D+a.V.9+c+E+b.K.>+d+F+c.L.,+p+G+e.M.)+f+O+o.X.!+g+I+p.Y.~+h+S+R.`.[+i+P+3+0+k+r+T+M+R+U+",
"V+H.]+7+A+W+I.*+a+B+X+T.=+o+C+Y+.+-+Z+J.`+V.;+c+E+b.K. @d+F+c.W..@p+G+e.'+)+f+O+x.X.!+u+I+p.Y.~++@S+R.@+[+q+P+3+0+k+w+L+M+@@U+#@",
"H.&+7+A+$@I.*+a+%@X+T./+o+C+&@.+-+Z+D+J.V.;+c+E+*@K.>+d+=@-@W..@e+G+;@M.:+f+H+>@N.!+g+I+,@Y.<+h+S+'@@+[+q+P+)@0+v+r+L+!@@@U+#@~@",
"&+7+{@W+I.*+n+B+X+T.=+o+C+Y+.+-+b+D+]@J.;+^@E+/@K.>+d+=@-@W.,+p+G+(@M.)+t+H+>@X.!+u+I+_@Y.~+h+S+'@@+[+q+P+:@0+v+r+L+<@@@U+[@}@|@",
"7+A+W+8+*+a+B+1@T.=+s+C+Y+U.-+b+D+`+V.9+J.E+*@K.>+d+=@-@W..@e+G+;@M.)+f+O+>@X.!+g+I+_@P.~+h+J+'@@+[+i+P+:@0+k+r+L+!@R+U+#@}@|@2@",
"{@W+3@*+a+B+X+4@=+o+5@&@6@-+b+D+`+7@;+^@J./@8@>+d+F+-@9@,+p+G+(@0@:+f+O+>@a@!+g+I+_@b@~+h+J+'@c@[+i+P+)@d@v+r+L+!@e@U+#@}@|@f@g@",
"W+3@*+n+B+X+4@=+o+C+Y+6@-+b+h@`+7@9+c+E+*@J.>+d+F+i@j@,+p+G+(@0@)+f+H+k@a@!+g+I+,@l@<+h+S+'@c@[+q+P+:@m@v+r+L+!@e@U+#@}@|@f@g@n@",
"3@*+n+%@X+4@/+o+C+&@6@-+Z+D+`+7@9+^@E+*@8@J.d+=@-@j@,+p+G+;@0@:+f+H+>@a@|+g+I+_@b@<+h+S+'@o@[+q+P+:@m@v+r+L+!@e@U+[@}@|@p@g@n@q@",
"r@n+B+X+4@s@s+C+&@6@t@b+h@]@u@v@c+E+/@8@w@J.=@-@j@x@e+G+(@0@:+f+H+>@a@!+u+I+,@l@<+h+J+'@c@[+q+P+:@d@v+r+L+!@e@U+#@}@|@p@y@n@q@z@",
"n+B+1@4@s@o+C+Y+6@A@b+D+`+7@v@^@B@/@C@D@d+=@J.J.J.e+G+;@0@E@f+O+>@a@F@g+I+,@b@G@h+S+'@c@H@i+K+)@m@I@r+L+!@e@J@#@}@|@f@K@n@q@L@M@",
"B+X+4@s@o+C+Y+6@t@b+D+`+u@N@c+E+*@8@w@d+=@-@J.O@p+J.J.0@P@f+O+>@a@Q@u+I+_@b@G@h+S+R@c@H@q+P+:@d@I@w+L+!@e@J@#@}@|@f@S@n@q@L@M@T@",
"X+4@s@s+C+&@6@t@Z+D+`+7@v@c+E+/@C@D@d+=@-@j@J.p+G+;@0@J.J.H+>@a@Q@g+I+_@b@G@h+S+'@c@U@q+K+:@m@I@r+L+!@e@J@#@}@|@f@K@n@q@z@M@V@W@",
"4@s@H C+Y+6@A@b D+`+7@N@g E+*@8@w@X@=@-@9@O@J.G+(@0@E@M H+>@a@F@Y@I+_@b@G@Z@J+'@c@U@`@P+:@d@I@ #T+<@e@.#+#}@|@f@K@@#q@z@M@V@##$#",
"s@7 C+&@6@A@b D+`+7@v@g E+/@8@D@l =@-@j@x@q J.(@0@E@v O+>@%#F@Y@I+,@b@G@&#J+'@c@U@`@P+:@m@I@*#L+<@e@.#+#~@=#f@K@@#q@z@M@V@##-#;#",
"H C+&@6@t@b D+`+7@v@>#E+/@8@D@X@=@-@9@O@q G+J.0@E@v H+>@a@F@Y@I+,@b@G@Z@S+'@c@U@`@P+)@m@I@*#L+<@e@J@,#}@|@f@K@@#q@z@M@V@'#$#;#)#",
"[.Y+6@A@I !#`+u@N@>#~#*@8@D@l m -@j@O@q ^.;@J.E@v w k@a@F@Y@g.,@b@G@Z@{#'@c@H@`@P+:@d@I@*#L+!@e@J@+#}@|@f@S@@#]#L@M@T@'#-#;#^#/#",
"Y+6@A@I c `+7@v@g h *@8@D@X@m -@j@O@q ^.;@0@E@J.w >@a@F@Y@2._@b@G@Z@{#'@c@H@`@(#:@d@I@*#_#<@e@.#+#:#|@f@K@@#<#z@M@T@'#[#;#^#}#|#",
"6@t@I c `+7@v@g ~#/@8@D@X@1#-@j@x@q r ;@2#E@M w J.a@Q@Y@2.,@b@G@&#{#'@c@U@`@(#:@d@I@*#3#!@e@J@+#:#|@p@K@4#5#L@M@T@##[#;#)#/#|#6#",
"t@b c `+7@v@g h /@8@D@l m -@j@O@q ^.;@0@E@v w >@J.F@Y@g._@b@G@Z@7#'@c@U@`@(#:@d@I@ #3#!@e@J@+#:#|@p@K@@#5#z@M@T@'#[#;#^#}#|#8#9#",
"b c J u@v@g ~#i 8@D@X@m d.j@x@q r s 0@E@v w x a@J.Y@2.q.b@G@Z@{#0#c@U@`@(#a#m@I@*#_#b#e@.#+#:#c#f@K@@#5#d#M@T@##[#e#)#}#|#8#f#g#",
"c J 7@v@>#~#i 8@w@l m n j@x@q ^.s 0@E@M w y.%#J.Y@2.q.l@G@Z@7#0#c@U@`@h#i#m@I@*#_#b#j#.#+#k#l#f@K@@#<#d#M@T@'#[#m#^#/#|#6#f#n#o#",
"d 7@v@g h i 8@D@l m n j@x@q ^.f.0@E@v w x %#F@J.g.h.l@G@Z@7#0#c@H@`@(#i#d@I@*#_#b#j#J@+#:#c#f@S@@#<#d#M@V@##[#e#^#}#|#6#p#g#o#q#",
"e N@g ~#i j D@l m d.$.x@q r s t E@M w y.D.F@Y@J.q.r#G@&#{#0#s#U@t#h#a#u#I@ #3#b#v#.#+#:#c#f@K@@#<#d#M@T@'#[#m#^#}#|#6#f#n#w#x#y#",
"v@g h i ~.D@X@m n $.O@q ^.s t E@v w y.D.F@Y@J.J.r.G@Z@{#z#s#H@`@(#i#A#I@*#_#B#C#.#+#k#c#D#K@@#5#d#E#V@##[#m#F#/#|#8#f#G#w#x#y#H#",
">#~#i j D@l m d.$.x@q ^.s t P@v w y.D.F@Y@2.J.r#G@Z@{#0#s#H@`@(#i#A#I@*#_#b#v#J@+#:#l#D#K@@#5#d#E#V@'#[#e#I#}#|#8#f#J#o#q#y#H#K#",
"h i ~.D@l m d.$.O@L#r s t P@v w y.N Q@Y@g.J.r.G@&#{#z#s#H@`@h#i#u#I@*#_#b#v#J@+#:#c#D#S@@#<#d#E#V@'#[#e#F#}#|#8#f#J#o#x#y#H#K#M#",
"i ~.K l 1#d.$.p q ^.s t u M w x N /.Y@2.h.J.z.Z@7#0##+{+`@(#i#u#N# #_#B#C#O#+#k#c#D#P#4#<#d#E#Q###[#e#I#R#|#6#f#J#S#q#y#T#K#U#V#",
"j K l m n o p q ^.f.C.&.v w x N =.Y@2.h.r.J.&#{#0##+{+`@(#i#u#W#*#_#b#C#O#,#:#c#D#X#@#5#d#E#Y#'#[#e#F#Z#|#6#f#J#`#x#y#H#K#U#V# $",
"k l m n $.L q ^.s C.&.M w y.N /.Y@2.h.r.z.J.7#0#s#{+`@(#i#u#W#*#_#b#C#.$+#:#c#D#X#4#5#d#E#Q#'#[#e#F#R#|#8#f#G#S#q#y#H#+$U#V#@$#$",
"#.m d.$.p %.^.s t u *.w x N /.1.g.h.r.z.E.J.0#s#{+}+(#a#u#W#$$3#b#C#O#%$:#c#D#X#&$5#d#*$Q#=$[#e#F#Z#|#8#f#G#S#q#y#H#K#-$V#@$;$>$",
"m n $.p %.^.s t u *.,$x D./.1.2.q.r.z.E.J.J.J.J.J.J.J.J.J.J.J.J.J.J.J.J.J.J.J.J.J.J.J.J.J.J.J.J.Z#'$8#f#G#S#)$y#H#K#U#!$ $#$>$~$",
"d.$.p ].^.s t u *.w x N /.1.g.h.r.z.E.{#0##+{+2+(#i#u#W#x+_#b#v#O#%$:#c#D#X#{$5#d#E#Q#=$[#m#I#Z#'$6#f#G#S#)$]$T#K#U#^$ $#$/$($_$",
"$.p ].e.s t u *.w x N /.1.2.h.r.z.E.{#0#s#{+2+(#a#u#N#x+_#b#C#O#%$:#c#D#X#&$5#d#E#Q#=$:$e#I#R#<$6#f#J#S#)$y#H#K#U#!$ $#$>$($[$}$",
"p ]._+f.t &.*.o.x D./.1.p.q.r.z.E.R.z#s#{+2+3+i#u#W#x+M+B#C#O#|$1$l#D#P#{$2$d#*$Q#=$3$m#F#Z#'$4$f#G#S#)$5$H#K#U#!$6$#$>$~$_$7$8$",
"].e.s t u *.x.x N /.(.p.q.r.z.E.R.0#s#{+2+3+a#u#W#$$M+b#C#O#%$9$c#D#P#{$2$d#*$Q#=$3$m#I#Z#'$4$f#G#`#)$5$T#K#U#^$6$#$>$($_$0$8$a$",
"e.s t u *.o.y.N /.1.p.q.r#Q.E.R.0#s#{+2+3+i#u#N#$$M+b#C#O#|$9$l#b$X#{$2$d#E#Q#=$c$e#F#Z#'$4$f#J#S#)$5$H#K#U#!$6$;$>$~$_$7$8$a$d$",
"'+t u *.o.N.N /.1.p.P.r.Q.E.Z.@+s#{+2+j+0+u#N#x+e$@@C#O#%$1$2@D#P#{$2$f$*$Q#=$c$g$F#R#<$4$h$G#`#)$i$j$K#U#^$6$k$>$($_$0$8$l$d$m$",
"C.u *.o.N.D./.(.p.Y.r.z.E.Z.`.#+{+}+3+0+u#W#x+e$R+C#O#%$1$2@D#X#&$2$f$E#Q#=$3$g$I#Z#<$4$h$J#S#)$5$j$+$U#^$6$n$>$~$_$7$o$a$d$p$q$",
"&.*.o.X.N /.1.p.P.r.Q.E.Z.@+#+{+}+j+0+u#N#x+M+@@v#O#|$9$2@D#P#{$r$s$E#Q#=$3$t$I#Z#'$u$h$G#`#)$5$j$K#U#^$6$k$>$($_$7$o$l$d$p$q$v$",
"*.o.X.!+/.1.p.Y.~+z.E.Z.`.#+{+2+3+0+u#W#x+M+@@C#O#%$1$2@b$X#{$2$s$E#Y#=$c$g$F#Z#<$4$h$J#S#)$5$j$K#U#!$6$n$>$~$_$7$o$a$d$p$q$v$w$",
"o.X.!+/.1.p.Y.<+z.E.Z.`.[+{+2+3+0+k+N#x+e$@@U+O#|$9$2@y@P#{$r$f$x$Q#=$3$g$y$Z#'$4$z$A$S#)$5$B$C$U#^$6$k$D$~$_$7$o$E$d$p$q$v$F$. ",
"X.!+/.(.O.Y.~+Q.E.R.@+[+{+2+j+0+v+W#x+M+R+U+.$%$9$2@y@X#{$2$f$x$Y#=$c$g$G$Z#'$4$z$H$S#)$5$j$C$U#!$6$n$I$~$_$7$o$E$d$m$q$v$J$. . ",
"!+/.(.p.Y.<+z.1+R.@+[+{+}+3+Q+v+N#x+M+@@U+O#|$9$2@g@X#{$2$s$x$Y#=$3$g$G$Z#'$4$z$H$S#)$5$j$C$U#!$6$k$I$($_$7$K$E$d$p$L$v$J$. . . "};
