/* XPM */
static char * test_s_xpm[] = {
"64 64 537 2",
"  	c None",
". 	c #FF0000",
"+ 	c #FF0900",
"@ 	c #FF1600",
"# 	c #FF2300",
"$ 	c #FF2D00",
"% 	c #FF3A00",
"& 	c #FF4700",
"* 	c #FF5500",
"= 	c #FF6200",
"- 	c #FF6B00",
"; 	c #FF7900",
"> 	c #FF8600",
", 	c #FF9300",
"' 	c #FFA000",
") 	c #FFA900",
"! 	c #FFB700",
"~ 	c #FFC400",
"{ 	c #FFD200",
"] 	c #FFDF00",
"^ 	c #FFE800",
"/ 	c #FFF500",
"( 	c #FCFF00",
"_ 	c #EEFF00",
": 	c #E1FF00",
"< 	c #D8FF00",
"[ 	c #CAFF00",
"} 	c #BCFF00",
"| 	c #B0FF00",
"1 	c #A2FF00",
"2 	c #99FF00",
"3 	c #8CFF00",
"4 	c #7EFF00",
"5 	c #71FF00",
"6 	c #64FF00",
"7 	c #5BFF00",
"8 	c #4DFF00",
"9 	c #40FF00",
"0 	c #33FF00",
"a 	c #25FF00",
"b 	c #1CFF00",
"c 	c #0FFF00",
"d 	c #01FF00",
"e 	c #00FF0C",
"f 	c #00FF19",
"g 	c #00FF22",
"h 	c #00FF30",
"i 	c #00FF3D",
"j 	c #00FF4A",
"k 	c #00FF57",
"l 	c #00FF61",
"m 	c #00FF6E",
"n 	c #00FF7B",
"o 	c #00FF88",
"p 	c #00FF96",
"q 	c #00FF9F",
"r 	c #00FFAC",
"s 	c #00FFBA",
"t 	c #00FFC7",
"u 	c #00FFD5",
"v 	c #00FFDE",
"w 	c #00FFEB",
"x 	c #00FFF8",
"y 	c #FF1700",
"z 	c #FF2400",
"A 	c #FF5400",
"B 	c #FFA100",
"C 	c #FFAA00",
"D 	c #FBFF00",
"E 	c #E0FF00",
"F 	c #BDFF00",
"G 	c #9AFF00",
"H 	c #5AFF00",
"I 	c #1DFF00",
"J 	c #02FF00",
"K 	c #00FF58",
"L 	c #00FF97",
"M 	c #00FFDD",
"N 	c #00F8FF",
"O 	c #FF3100",
"P 	c #FF4800",
"Q 	c #FF6F00",
"R 	c #FFAE00",
"S 	c #FFD100",
"T 	c #FFED00",
"U 	c #FFF600",
"V 	c #D3FF00",
"W 	c #AFFF00",
"X 	c #95FF00",
"Y 	c #7FFF00",
"Z 	c #63FF00",
"` 	c #56FF00",
" .	c #32FF00",
"..	c #26FF00",
"+.	c #18FF00",
"@.	c #00FF27",
"#.	c #00FF65",
"$.	c #00FF89",
"%.	c #00FFA4",
"&.	c #00FFD4",
"*.	c #00FFE2",
"=.	c #00EAFF",
"-.	c #FF3200",
";.	c #FF7000",
">.	c #FF9400",
",.	c #FFB600",
"'.	c #FFC500",
").	c #EDFF00",
"!.	c #3FFF00",
"~.	c #00FF4B",
"{.	c #00FF66",
"].	c #00FFA3",
"^.	c #00FFAD",
"/.	c #00EBFF",
"(.	c #00DDFF",
"_.	c #FFEC00",
":.	c #CBFF00",
"<.	c #57FF00",
"[.	c #4EFF00",
"}.	c #00FF1A",
"|.	c #00FF26",
"1.	c #00DEFF",
"2.	c #00D5FF",
"3.	c #FF3E00",
"4.	c #FF7D00",
"5.	c #FF8500",
"6.	c #FFBB00",
"7.	c #FFF900",
"8.	c #C5FF00",
"9.	c #87FF00",
"0.	c #49FF00",
"a.	c #0AFF00",
"b.	c #00FF34",
"c.	c #00FF72",
"d.	c #00FF7C",
"e.	c #00FFB1",
"f.	c #00FFB9",
"g.	c #00D4FF",
"h.	c #00C7FF",
"i.	c #FF6300",
"j.	c #FF7C00",
"k.	c #FFFA00",
"l.	c #000000",
"m.	c #0BFF00",
"n.	c #00FFEF",
"o.	c #00D0FF",
"p.	c #00C8FF",
"q.	c #00BAFF",
"r.	c #FF3F00",
"s.	c #FFBC00",
"t.	c #C6FF00",
"u.	c #00FF73",
"v.	c #00FFF0",
"w.	c #00FFF9",
"x.	c #00ACFF",
"y.	c #FF4C00",
"z.	c #FF8B00",
"A.	c #00FFC8",
"B.	c #00F9FF",
"C.	c #009FFF",
"D.	c #FF8A00",
"E.	c #FFC900",
"F.	c #F7FF00",
"G.	c #B8FF00",
"H.	c #7AFF00",
"I.	c #3BFF00",
"J.	c #00FF03",
"K.	c #00FF41",
"L.	c #00FF7F",
"M.	c #00FFBE",
"N.	c #00FFFC",
"O.	c #00D1FF",
"P.	c #00C2FF",
"Q.	c #00ADFF",
"R.	c #0091FF",
"S.	c #D4FF00",
"T.	c #00FF42",
"U.	c #00FFFD",
"V.	c #00C3FF",
"W.	c #0092FF",
"X.	c #0085FF",
"Y.	c #94FF00",
"Z.	c #3CFF00",
"`.	c #00FF0B",
" +	c #00FF80",
".+	c #0084FF",
"++	c #007CFF",
"@+	c #FF9800",
"#+	c #FFD600",
"$+	c #E9FF00",
"%+	c #ABFF00",
"&+	c #6DFF00",
"*+	c #2EFF00",
"=+	c #00FF11",
"-+	c #00FF4F",
";+	c #00FF8D",
">+	c #00FFCC",
",+	c #00F4FF",
"'+	c #00B6FF",
")+	c #006EFF",
"!+	c #EAFF00",
"~+	c #A3FF00",
"{+	c #6CFF00",
"]+	c #48FF00",
"^+	c #00FFB0",
"/+	c #00FFBF",
"(+	c #00FFCB",
"_+	c #00B5FF",
":+	c #0077FF",
"<+	c #0060FF",
"[+	c #00F3FF",
"}+	c #00A0FF",
"|+	c #0061FF",
"1+	c #0053FF",
"2+	c #FFA500",
"3+	c #FFC800",
"4+	c #FFE300",
"5+	c #DCFF00",
"6+	c #B9FF00",
"7+	c #00FF10",
"8+	c #0046FF",
"9+	c #9DFF00",
"0+	c #5FFF00",
"a+	c #21FF00",
"b+	c #17FF00",
"c+	c #00FF1E",
"d+	c #00FF5C",
"e+	c #00FF9A",
"f+	c #00FFD9",
"g+	c #00E6FF",
"h+	c #00A8FF",
"i+	c #006AFF",
"j+	c #0054FF",
"k+	c #0039FF",
"l+	c #FFD700",
"m+	c #FFE400",
"n+	c #9EFF00",
"o+	c #88FF00",
"p+	c #00FF9B",
"q+	c #0069FF",
"r+	c #002BFF",
"s+	c #60FF00",
"t+	c #00FFDA",
"u+	c #00E7FF",
"v+	c #0038FF",
"w+	c #002CFF",
"x+	c #0022FF",
"y+	c #FFF100",
"z+	c #F6FF00",
"A+	c #CEFF00",
"B+	c #90FF00",
"C+	c #52FF00",
"D+	c #13FF00",
"E+	c #00FF2B",
"F+	c #00FF69",
"G+	c #00FFA8",
"H+	c #00FFE6",
"I+	c #00D9FF",
"J+	c #009AFF",
"K+	c #005DFF",
"L+	c #001EFF",
"M+	c #0015FF",
"N+	c #00FF5D",
"O+	c #00FFE7",
"P+	c #005CFF",
"Q+	c #0045FF",
"R+	c #0008FF",
"S+	c #009BFF",
"T+	c #001DFF",
"U+	c #0600FF",
"V+	c #FFFE00",
"W+	c #C1FF00",
"X+	c #83FF00",
"Y+	c #44FF00",
"Z+	c #20FF00",
"`+	c #14FF00",
" @	c #06FF00",
".@	c #00FF4E",
"+@	c #00FF8E",
"@@	c #00A9FF",
"#@	c #0007FF",
"$@	c #1300FF",
"%@	c #C2FF00",
"&@	c #91FF00",
"*@	c #45FF00",
"=@	c #00FF39",
"-@	c #00FF6A",
";@	c #00FF77",
">@	c #00FFB5",
",@	c #00FFF4",
"'@	c #00CCFF",
")@	c #008DFF",
"!@	c #004EFF",
"~@	c #0010FF",
"{@	c #2000FF",
"]@	c #CFFF00",
"^@	c #05FF00",
"/@	c #00FF1D",
"(@	c #00FF38",
"_@	c #00FFB6",
":@	c #00CBFF",
"<@	c #004FFF",
"[@	c #0011FF",
"}@	c #1400FF",
"|@	c #2100FF",
"1@	c #2E00FF",
"2@	c #82FF00",
"3@	c #3700FF",
"4@	c #B4FF00",
"5@	c #75FF00",
"6@	c #51FF00",
"7@	c #37FF00",
"8@	c #00FF07",
"9@	c #00FF46",
"0@	c #00FF85",
"a@	c #00FDFF",
"b@	c #00BEFF",
"c@	c #0080FF",
"d@	c #0042FF",
"e@	c #0003FF",
"f@	c #3B00FF",
"g@	c #4400FF",
"h@	c #00FF45",
"i@	c #00FF76",
"j@	c #00FF84",
"k@	c #00FFC3",
"l@	c #00FFF3",
"m@	c #00BFFF",
"n@	c #0041FF",
"o@	c #5200FF",
"p@	c #007FFF",
"q@	c #3C00FF",
"r@	c #5F00FF",
"s@	c #A7FF00",
"t@	c #68FF00",
"u@	c #2AFF00",
"v@	c #00FF08",
"w@	c #00FF15",
"x@	c #00FF54",
"y@	c #00FF92",
"z@	c #4500FF",
"A@	c #6D00FF",
"B@	c #29FF00",
"C@	c #00FF2C",
"D@	c #00FF53",
"E@	c #00FFD0",
"F@	c #00EFFF",
"G@	c #00B1FF",
"H@	c #0072FF",
"I@	c #0034FF",
"J@	c #0B00FF",
"K@	c #4900FF",
"L@	c #6C00FF",
"M@	c #7A00FF",
"N@	c #00FF14",
"O@	c #00FF91",
"P@	c #00FFD1",
"Q@	c #00F0FF",
"R@	c #008EFF",
"S@	c #4800FF",
"T@	c #8700FF",
"U@	c #0073FF",
"V@	c #8800FF",
"W@	c #9100FF",
"X@	c #00FF60",
"Y@	c #00E2FF",
"Z@	c #00A4FF",
"`@	c #0065FF",
" #	c #0026FF",
".#	c #0A00FF",
"+#	c #1800FF",
"@#	c #5600FF",
"##	c #9400FF",
"$#	c #9D00FF",
"%#	c #00FCFF",
"&#	c #00A3FF",
"*#	c #0027FF",
"=#	c #2F00FF",
"-#	c #9E00FF",
";#	c #AB00FF",
">#	c #00FF23",
",#	c #1700FF",
"'#	c #9500FF",
")#	c #B900FF",
"!#	c #0EFF00",
"~#	c #00FF2F",
"{#	c #0096FF",
"]#	c #6000FF",
"^#	c #B800FF",
"/#	c #C500FF",
"(#	c #0058FF",
"_#	c #0019FF",
":#	c #2500FF",
"<#	c #6300FF",
"[#	c #A200FF",
"}#	c #C600FF",
"|#	c #D300FF",
"1#	c #00FF6F",
"2#	c #00FFC2",
"3#	c #001AFF",
"4#	c #5700FF",
"5#	c #6400FF",
"6#	c #E000FF",
"7#	c #0097FF",
"8#	c #E100FF",
"9#	c #E900FF",
"0#	c #0089FF",
"a#	c #004BFF",
"b#	c #000CFF",
"c#	c #3300FF",
"d#	c #7100FF",
"e#	c #AF00FF",
"f#	c #EE00FF",
"g#	c #F600FF",
"h#	c #0057FF",
"i#	c #004AFF",
"j#	c #0002FF",
"k#	c #2600FF",
"l#	c #3200FF",
"m#	c #B000FF",
"n#	c #F700FF",
"o#	c #FF00FA",
"p#	c #ED00FF",
"q#	c #FF00EC",
"r#	c #00B9FF",
"s#	c #007BFF",
"t#	c #0066FF",
"u#	c #003DFF",
"v#	c #0200FF",
"w#	c #FF00F9",
"x#	c #FF00ED",
"y#	c #FF00DF",
"z#	c #0088FF",
"A#	c #000BFF",
"B#	c #0100FF",
"C#	c #4000FF",
"D#	c #7E00FF",
"E#	c #BD00FF",
"F#	c #FB00FF",
"G#	c #FF00D2",
"H#	c #003CFF",
"I#	c #BC00FF",
"J#	c #FC00FF",
"K#	c #FF00C4",
"L#	c #00FFA0",
"M#	c #FF00BB",
"N#	c #0030FF",
"O#	c #0F00FF",
"P#	c #4E00FF",
"Q#	c #8C00FF",
"R#	c #CB00FF",
"S#	c #FF00F5",
"T#	c #FF00D1",
"U#	c #FF00B7",
"V#	c #FF00AE",
"W#	c #002FFF",
"X#	c #4D00FF",
"Y#	c #8B00FF",
"Z#	c #CA00FF",
"`#	c #FF00F6",
" $	c #FF00A1",
".$	c #0E00FF",
"+$	c #FF00C5",
"@$	c #FF00A0",
"#$	c #FF0093",
"$$	c #0023FF",
"%$	c #1D00FF",
"&$	c #5A00FF",
"*$	c #7F00FF",
"=$	c #9900FF",
"-$	c #FF00B6",
";$	c #FF0094",
">$	c #FF0086",
",$	c #00FFEA",
"'$	c #1C00FF",
")$	c #5B00FF",
"!$	c #D800FF",
"~$	c #FF00E8",
"{$	c #FF00AA",
"]$	c #FF0078",
"^$	c #FF00E0",
"/$	c #FF00A9",
"($	c #FF0085",
"_$	c #FF0079",
":$	c #FF006B",
"<$	c #A300FF",
"[$	c #D700FF",
"}$	c #FF006C",
"|$	c #FF0062",
"1$	c #2900FF",
"2$	c #6800FF",
"3$	c #A600FF",
"4$	c #E500FF",
"5$	c #FF00DB",
"6$	c #FF009C",
"7$	c #FF005E",
"8$	c #FF0055",
"9$	c #2A00FF",
"0$	c #FF005D",
"a$	c #FF0047",
"b$	c #3F00FF",
"c$	c #A700FF",
"d$	c #FF003A",
"e$	c #0014FF",
"f$	c #7600FF",
"g$	c #B400FF",
"h$	c #F200FF",
"i$	c #FF00DA",
"j$	c #FF00CD",
"k$	c #FF008E",
"l$	c #FF0048",
"m$	c #FF002C",
"n$	c #FF008F",
"o$	c #FF0050",
"p$	c #FF002D",
"q$	c #FF001F",
"r$	c #6900FF",
"s$	c #7500FF",
"t$	c #B300FF",
"u$	c #E400FF",
"v$	c #FF0012",
"w$	c #FF0009",
"x$	c #8300FF",
"y$	c #C200FF",
"z$	c #F300FF",
"A$	c #FF00FF",
"B$	c #FF00CE",
"C$	c #FF00C0",
"D$	c #FF0082",
"E$	c #FF0043",
"F$	c #FF0005",
"G$	c #C100FF",
"H$	c #FF00FE",
"I$	c #FF0081",
"J$	c #FF0004",
"K$	c #FF0051",
"L$	c #FF0020",
". . . + @ # $ % & * = - ; > , ' ) ! ~ { ] ^ / ( _ : < [ } | 1 2 3 4 5 6 7 8 9 0 a b c d e f g h i j k l m n o p q r s t u v w x ",
". . + y z $ % & A = - ; > , B C ! ~ { ] ^ / D _ E < [ F | 1 G 3 4 5 6 H 8 9 0 a I c J e f g h i j K l m n o L q r s t u M w x N ",
". + @ z O % P * = Q ; > , B R ! ~ S ] T U D _ : V [ F W 1 X 3 Y 5 Z ` 8 9  ...+.c d e f @.h i j K #.m n $.p %.r s t &.*.w x N =.",
"+ y # -.% & * = ;.; > >.B R ,.'.S ] T / D ).: V [ F W 1 X 3 Y 5 Z ` 8 !.0 a +.c d e f @.h i ~.K {.m n $.p ].^.s t &.*.w x N /.(.",
"y # O % & * = Q ; > >.' R ! ~ { ] _./ D ).: V :.F | 1 X 3 Y 5 6 <.[.!. .a +.c J e }.|.h i j K #.m n $.p %.^.s t u *.w x N =.1.2.",
"# O 3.& * = Q 4.5.>.' R 6.~ { ] T 7.D _ : V 8.F W 1 X 9.Y 5 6 <.0.9  .a +.a.J e f @.b.i ~.k #.c.d.$.p ].e.f.t &.*.w x N /.1.g.h.",
"O 3.P * i.Q j.> , ' R 6.~ { ] _.k.D _ : V 8.F W 1 l.l.l.l.l.l.l.l.l.l.l.m.d e f |.b.i j K #.c.d.o L ].e.s t u *.n.x N /.1.o.p.q.",
"r.& A = ;.4.> , ' R s.~ { ] _.k.D _ E V t.F | 1 X l.4 5 Z ` 0.9  .a +.a.l.l.f |.b.i j k {.u.d.$.p ].e.s t u *.v.w.N /.1.o.h.q.x.",
"y.A = Q j.z., B R 6.~ S ] _.7.( ).E V 8.F | 1 X l.4 5 6 ` 0.9  .a +.a.d e f l.l.i j K #.u.n $.p ].e.s A.&.*.v.x B./.1.o.h.q.x.C.",
"* = Q 4.D., B R s.E.{ ] _.7.F._ : V t.G.W 1 X l.H.5 Z ` 0.I.0 a +.a.J.e }.|.b.K.l.l.#.c.L.$.p ].e.M.A.&.*.n.N.N /.(.O.P.q.Q.C.R.",
"i.Q 4.D., B R 6.E.{ ] _.k.F._ E S.8.G.W 1 X l.H.5 6 ` 0.I. .a +.a.J.e f @.b.T.j k #.l.l.$.L ].e.M.t u *.n.U.N /.1.o.V.q.x.C.W.X.",
";.4.z., B R 6.E.S ] _.k.F._ E S.8.G.| 1 Y.l.H.5 Z <.0.Z. .a +.a.J.`.f @.b.T.j K {.u. +$.l.l.l.M.A.u *.n.N.N /.(.o.P.q.x.C.W..+++",
"4.D.@+' R 6.E.#+] T k.F.$+: S.t.G.%+1 X l.H.&+6 ` 0.I.*+..+.m.J.=+f @.b.K.-+K #.c. +;+p %.e.l.>+u *.n.U.,+/.(.o.P.'+Q.C.R..+++)+",
"z.@+B R 6.E.#+] _.k.F.!+E V 8.G.%+~+X 9.l.{+Z ` ]+Z.*+..+.a.J.=+f |.b.K.-+K #.c. +;+L %.^+/+(+u *.n.U.,+/.(.O.V._+Q.C.R..+:+)+<+",
"@+B R s.E.#+] T k.F.$+E V t.G.%+1 X 9.H.l.6 ` 0.Z.*+..+.m.J.=+}.|.b.T.-+K #.c.L.;+p %.^+M.>+u *.n.U.[+/.(.O.V.'+x.}+R.X.:+)+|+1+",
"2+R 6.3+#+4+_.7.F.$+5+V t.6+%+1 Y.9.H.&+l.l.0.Z.*+a +.a.J.7+}.|.b.K.-+K {.c. +;+L %.e./+>+u *.n.N.,+/.(.O.V.'+x.}+W..+:+)+<+1+8+",
"R s.E.#+4+_.k.F.!+5+V 8.G.%+9+X 9.H.{+0+` ]+l.*+a+b+m.J.7+c+|.b.T.-+d+#.c. +;+e+].e./+>+f+*.n.U.[+g+(.o.V._+h+}+R..+:+i+|+j+8+k+",
"s.3+l+m+_.7.F.$+5+V 8.6+%+n+X o+H.&+0+` 0.I.*+l.b+m.J.=+c+@.b.K.-+d+#.c. +;+p+%.e.M.>+f+*.v.U.[+g+(.o.V.'+h+C.W..+:+q+|+1+8+k+r+",
"E.#+4+_.k.F.$+5+V t.G.%+9+X o+H.&+s+` 0.I.*+a++.l.J.7+c+|.b.K.-+d+{.c. +;+p+].^+M.(+t+*.n.U.[+u+1.O.V._+h+C.R..+:+i+|+1+8+v+w+x+",
"#+m+y+k.z+!+5+A+8.G.%+n+B+9.H.{+0+C+0.Z.*+a+D+a.l.=+c+E+b.T.-+d+F+u. +;+e+G+e./+>+f+H+n.U.,+g+I+o.V._+h+J+R.X.:+q+K+1+8+v+r+L+M+",
"4+y+7.F.!+5+A+t.G.%+n+B+o+H.&+s+C+0.I.*+a+D+m.J.7+l.E+b.K.-+N+F+c. +;+p+G+e.M.(+f+O+n.N.,+u+I+o.P.'+h+J+W.X.:+i+P+j+Q+v+w+L+M+R+",
"y+k.F.!+5+A+t.6+%+n+B+9.H.{+0+C+0.I.*+a+D+a.J.7+c+E+l.l.-+d+F+c.L.;+p+G+e.M.>+f+O+n.U.,+g+I+o.V.'+h+S+R.X.:+i+P+1+8+k+r+T+M+R+U+",
"V+F.!+5+A+W+G.%+9+B+X+H.&+0+C+Y+Z.*+Z+`+ @J.=+c+E+b.K..@l.l.c. ++@p+G+e./+>+f+O+v.U.,+u+I+o.V.'+@@S+R..+:+q+P+1+8+k+w+L+M+#@U+$@",
"F.$+5+A+%@G.%+9+&@X+H.{+0+C+*@Z.*+Z+D+ @J.=+c+E+=@K.-+d+-@;@l.+@e+G+>@M.(+f+H+,@N.,+g+I+'@V._+h+S+)@.+:+q+P+!@8+v+r+L+~@#@U+$@{@",
"$+5+]@W+G.%+n+B+X+H.&+0+C+Y+Z.*+a+D+^@J.=+/@E+(@K.-+d+-@;@ +l.p+G+_@M.>+t+H+,@U.,+u+I+:@V.'+h+S+)@.+:+q+P+<@8+v+r+L+[@#@U+}@|@1@",
"5+A+W+6+%+9+B+2@H.&+s+C+Y+I.*+a+D+ @J.7+c+E+=@K.-+d+-@;@ ++@e+l.>@M.>+f+O+,@U.,+g+I+:@P.'+h+J+)@.+:+i+P+<@8+k+r+L+~@R+U+$@|@1@3@",
"]@W+4@%+9+B+X+5@&+0+6@*@7@*+a+D+ @8@=+/@E+(@9@-+d+F+;@0@;+p+G+_@l.l.f+O+,@a@,+g+I+:@b@'+h+J+)@c@:+i+P+!@d@v+r+L+~@e@U+$@|@1@f@g@",
"W+4@%+n+B+X+5@&+0+C+Y+7@*+a+`+ @8@7+c+E+=@h@-+d+F+i@j@;+p+G+_@k@>+f+l.l@a@,+g+I+'@m@_+h+S+)@c@:+q+P+<@n@v+r+L+~@e@U+$@|@1@f@g@o@",
"4@%+n+&@X+5@{+0+C+*@7@*+Z+D+ @8@7+/@E+=@9@.@d+-@;@j@;+p+G+>@k@(+f+H+l.a@[+g+I+:@b@_+h+S+)@p@:+q+P+<@n@v+r+L+~@e@U+}@|@1@q@g@o@r@",
"s@n+B+X+5@t@s+C+*@7@u@a+`+^@v@w@c+E+(@9@x@d+-@;@j@y@e+G+_@k@(+f+H+,@l.l.u+I+'@m@_+h+J+)@c@:+q+P+<@d@v+r+L+~@e@U+$@|@1@q@z@o@r@A@",
"n+B+2@5@t@0+C+Y+7@B@a+D+ @8@w@/@C@(@h@D@d+-@;@0@y@e+G+>@k@E@f+O+,@a@F@g+l.'@b@G@h+S+)@c@H@i+K+!@n@I@r+L+~@e@J@$@|@1@f@K@o@r@L@M@",
"B+X+5@t@0+C+Y+7@u@a+D+ @v@N@c+E+=@9@x@d+-@;@j@O@p+G+>@k@P@f+O+,@a@Q@u+I+:@l.G@h+S+R@c@H@q+P+<@d@I@w+L+~@e@J@$@|@1@f@S@o@r@L@M@T@",
"X+5@t@s+C+*@7@u@Z+D+ @8@w@c+E+(@h@D@d+-@;@j@y@p+G+>@k@E@f+H+,@a@Q@g+I+:@b@G@l.S+)@c@U@q+K+<@n@I@r+L+~@e@J@$@|@1@f@K@o@r@A@M@V@W@",
"5@t@H C+Y+7@B@b D+ @8@N@g E+=@9@x@X@-@;@0@O@q G+_@k@E@M H+,@a@F@Y@I+:@b@G@Z@l.)@c@U@`@P+<@d@I@ #T+[@e@.#+#|@1@f@K@@#r@A@M@V@##$#",
"t@7 C+*@7@B@b D+ @8@w@g E+(@9@D@l -@;@j@y@q G+_@k@E@v O+,@%#F@Y@I+'@b@G@&#J+)@l.U@`@P+<@n@I@*#L+[@e@.#+#{@=#f@K@@#r@A@M@V@##-#;#",
"H C+*@7@u@b D+ @8@w@>#E+(@9@D@X@-@;@0@O@q G+_@k@E@v H+,@a@F@Y@I+'@b@G@Z@S+)@c@l.`@P+!@n@I@*#L+[@e@J@,#|@1@f@K@@#r@A@M@V@'#$#;#)#",
"[.Y+7@B@I !# @v@N@>#~#=@9@D@l m ;@j@O@q ^.>@k@E@v w l@a@F@Y@g.'@b@G@Z@{#)@c@H@l.P+<@d@I@*#L+~@e@J@+#|@1@f@S@@#]#L@M@T@'#-#;#^#/#",
"Y+7@B@I c  @8@w@g h =@9@D@X@m ;@j@O@q ^.>@k@E@M w ,@a@F@Y@2.:@b@G@Z@{#)@c@H@`@(#l.d@I@*#_#[@e@.#+#:#1@f@K@@#<#A@M@T@'#[#;#^#}#|#",
"7@u@I c  @8@w@g ~#(@9@D@X@1#;@j@y@q r >@2#E@M w ,@a@Q@Y@2.'@b@G@&#{#)@c@U@`@(#<@l.I@*#3#~@e@J@+#:#1@q@K@4#5#L@M@T@##[#;#)#/#|#6#",
"u@b c  @8@w@g h (@9@D@l m ;@j@O@q ^.>@k@E@v w ,@%#F@Y@g.:@b@G@Z@7#)@c@U@`@(#<@d@l. #3#~@e@J@+#:#1@q@K@@#5#A@M@T@'#[#;#^#}#|#8#9#",
"b c J v@w@g ~#i 9@D@X@m d.j@y@q r s k@E@v w x a@F@Y@2.p.b@G@Z@{#0#c@U@`@(#a#n@I@l._#b#e@.#+#:#c#f@K@@#5#d#M@T@##[#e#)#}#|#8#f#g#",
"c J 8@w@>#~#i 9@x@l m n j@y@q ^.s k@E@M w w.%#Q@Y@2.p.m@G@Z@7#0#c@U@`@h#i#n@I@*#l.b#j#.#+#k#l#f@K@@#<#d#M@T@'#[#m#^#/#|#6#f#n#o#",
"d 8@w@g h i 9@D@l m n j@y@q ^.f.k@E@v w x %#F@Y@g.h.m@G@Z@7#0#c@H@`@(#i#d@I@l.l.l.j#J@+#:#c#f@S@@#<#d#M@V@##[#e#^#}#|#6#p#g#o#q#",
"e N@g ~#i j D@l m d.$.y@q r s t E@M w w.B.F@Y@g.p.r#G@&#{#0#s#U@t#h#a#u#l.l.3#b#v#.#+#:#c#f@K@@#<#d#M@T@'#[#m#^#}#|#6#f#n#w#x#y#",
"w@g h i ~.D@X@m n $.O@q ^.s t E@v w w.B.F@Y@g.h.q.G@Z@{#z#s#H@`@l.l.l.l.*#_#A#B#.#+#k#c#C#K@@#5#d#D#V@##[#m#E#/#|#8#f#F#w#x#y#G#",
">#~#i j D@l m d.$.y@q ^.s t P@v w w.B.F@Y@2.p.r#G@Z@{#0#s#l.l.l.i#H#I@*#_#b#v#J@+#:#l#C#K@@#5#d#D#V@'#[#e#I#}#|#8#f#J#o#q#y#G#K#",
"h i ~.D@l m d.$.O@L#r s t P@v w w.N Q@Y@g.h.q.G@&#{#l.l.l.`@h#i#u#I@*#_#b#v#J@+#:#c#C#S@@#<#d#D#V@'#[#e#E#}#|#8#f#J#o#x#y#G#K#M#",
"i ~.K l 1#d.$.p q ^.s t u M w x N /.Y@l.l.l.l.l.l.l.++)+`@(#i#u#N# #_#A#B#O#+#k#c#C#P#4#<#d#D#Q###[#e#I#R#|#6#f#J#S#q#y#T#K#U#V#",
"j K l m n o p q ^.f.A.&.v w x N =.Y@2.h.q.x.&#{#0#++)+`@(#i#u#W#*#_#b#B#O#,#:#c#C#X#@#5#d#D#Y#'#[#e#E#Z#|#6#f#J#`#x#y#G#K#U#V# $",
"k l m n $.L q ^.s A.&.M w w.N /.Y@2.h.q.x.Z@7#0#s#)+`@(#i#u#W#*#_#b#B#.$+#:#c#C#X#4#5#d#D#Q#'#[#e#E#R#|#8#f#F#S#q#y#G#+$U#V#@$#$",
"#.m d.$.p %.^.s t u *.w x N /.1.g.h.q.x.C.{#0#s#)+<+(#a#u#W#$$3#b#B#O#%$:#c#C#X#&$5#d#*$Q#=$[#e#E#Z#|#8#f#F#S#q#y#G#K#-$V#@$;$>$",
"m n $.p %.^.s t u *.,$x B./.1.2.p.q.x.C.7#0#++)+|+(#i#u#N#x+_#b#v#.$'$:#c#C#X#)$<#d#D#Q#=$[#e#E#Z#!$8#f#F#S#~$y#G#K#U#{$ $#$>$]$",
"d.$.p ].^.s t u *.w x N /.1.g.h.q.x.C.{#0#++)+|+(#i#u#W#x+_#b#v#O#%$:#c#C#X#)$5#d#D#Q#=$[#m#I#Z#!$6#f#F#S#~$^$T#K#U#/$ $#$($_$:$",
"$.p ].e.s t u *.w x N /.1.2.h.q.x.C.{#0#s#)+|+(#a#u#N#x+_#b#B#O#%$:#c#C#X#&$5#d#D#Q#=$<$e#I#R#[$6#f#J#S#~$y#G#K#U#{$ $#$>$_$}$|$",
"p ].^+f.t &.*.n.x B./.1.o.p.q.x.C.R.z#s#)+|+1+i#u#W#x+M+A#B#O#'$1$l#C#P#)$2$d#*$Q#=$3$m#E#Z#!$4$f#F#S#~$5$G#K#U#{$6$#$>$]$:$7$8$",
"].e.s t u *.v.x N /.(.o.p.q.x.C.R.0#s#)+|+1+a#u#W#$$M+b#B#O#%$9$c#C#P#)$2$d#*$Q#=$3$m#I#Z#!$4$f#F#`#~$5$T#K#U#/$6$#$>$_$:$0$8$a$",
"e.s t u *.n.w.N /.1.o.p.r#Q.C.R.0#s#)+|+1+i#u#N#$$M+b#B#O#'$9$l#b$X#)$2$d#D#Q#=$c$e#E#Z#!$4$f#J#S#~$5$G#K#U#{$6$;$>$]$:$7$8$a$d$",
"/+t u *.n.N.N /.1.o.P.q.Q.C.W..+s#)+|+j+8+u#N#x+e$#@B#O#%$1$3@C#P#)$2$f$*$Q#=$c$g$E#R#[$4$h$F#`#~$i$j$K#U#/$6$k$>$_$:$0$8$l$d$m$",
"A.u *.n.N.B./.(.o.V.q.x.C.W.X.++)+<+1+8+u#W#x+e$R+B#O#%$1$3@C#X#&$2$f$D#Q#=$3$g$I#Z#[$4$h$J#S#~$5$j$+$U#/$6$n$>$]$:$7$o$a$d$p$q$",
"&.*.n.U.N /.1.o.P.q.Q.C.W..+++)+<+j+8+u#N#x+M+#@v#O#'$9$3@C#P#)$r$s$D#Q#=$3$t$I#Z#!$u$h$F#`#~$5$j$K#U#/$6$k$>$_$:$7$o$l$d$p$q$v$",
"*.n.U.,+/.1.o.V.'+x.C.W.X.++)+|+1+8+u#W#x+M+#@B#O#%$1$3@b$X#)$2$s$D#Y#=$c$g$E#Z#[$4$h$J#S#~$5$j$K#U#{$6$n$>$]$:$7$o$a$d$p$q$v$w$",
"n.U.,+/.1.o.V._+x.C.W.X.:+)+|+1+8+k+N#x+e$#@U+O#'$9$3@z@P#)$r$f$x$Q#=$3$g$y$Z#!$4$z$A$S#~$5$B$C$U#/$6$k$D$]$:$7$o$E$d$p$q$v$F$. ",
"U.,+/.(.O.V.'+Q.C.R..+:+)+|+j+8+v+W#x+M+R+U+.$%$9$3@z@X#)$2$f$x$Y#=$c$g$G$Z#!$4$z$H$S#~$5$j$C$U#{$6$n$I$]$:$7$o$E$d$m$q$v$J$. . ",
",+/.(.o.V._+x.}+R..+:+)+<+1+Q+v+N#x+M+#@U+O#'$9$3@g@X#)$2$s$x$Y#=$3$g$G$Z#!$4$z$H$S#~$5$j$C$U#{$6$k$I$_$:$7$K$E$d$p$L$v$J$. . . "};
