/* XPM */
static char * test_w_xpm[] = {
"64 64 536 2",
"  	c None",
". 	c #FF0000",
"+ 	c #FF0900",
"@ 	c #FF1600",
"# 	c #FF2300",
"$ 	c #FF2D00",
"% 	c #FF3A00",
"& 	c #FF4700",
"* 	c #FF5500",
"= 	c #FF6200",
"- 	c #FF6B00",
"; 	c #FF7900",
"> 	c #FF8600",
", 	c #FF9300",
"' 	c #FFA000",
") 	c #FFA900",
"! 	c #FFB700",
"~ 	c #FFC400",
"{ 	c #FFD200",
"] 	c #FFDF00",
"^ 	c #FFE800",
"/ 	c #FFF500",
"( 	c #FCFF00",
"_ 	c #EEFF00",
": 	c #E1FF00",
"< 	c #D8FF00",
"[ 	c #CAFF00",
"} 	c #BCFF00",
"| 	c #B0FF00",
"1 	c #A2FF00",
"2 	c #99FF00",
"3 	c #8CFF00",
"4 	c #7EFF00",
"5 	c #71FF00",
"6 	c #64FF00",
"7 	c #5BFF00",
"8 	c #4DFF00",
"9 	c #40FF00",
"0 	c #33FF00",
"a 	c #25FF00",
"b 	c #1CFF00",
"c 	c #0FFF00",
"d 	c #01FF00",
"e 	c #00FF0C",
"f 	c #00FF19",
"g 	c #00FF22",
"h 	c #00FF30",
"i 	c #00FF3D",
"j 	c #00FF4A",
"k 	c #00FF57",
"l 	c #00FF61",
"m 	c #00FF6E",
"n 	c #00FF7B",
"o 	c #00FF88",
"p 	c #00FF96",
"q 	c #00FF9F",
"r 	c #00FFAC",
"s 	c #00FFBA",
"t 	c #00FFC7",
"u 	c #00FFD5",
"v 	c #00FFDE",
"w 	c #00FFEB",
"x 	c #00FFF8",
"y 	c #FF1700",
"z 	c #FF2400",
"A 	c #FF5400",
"B 	c #FFA100",
"C 	c #FFAA00",
"D 	c #FBFF00",
"E 	c #E0FF00",
"F 	c #BDFF00",
"G 	c #9AFF00",
"H 	c #5AFF00",
"I 	c #1DFF00",
"J 	c #02FF00",
"K 	c #00FF58",
"L 	c #00FF97",
"M 	c #00FFDD",
"N 	c #00F8FF",
"O 	c #FF3100",
"P 	c #FF4800",
"Q 	c #FF6F00",
"R 	c #FFAE00",
"S 	c #FFD100",
"T 	c #FFED00",
"U 	c #FFF600",
"V 	c #D3FF00",
"W 	c #AFFF00",
"X 	c #95FF00",
"Y 	c #7FFF00",
"Z 	c #63FF00",
"` 	c #56FF00",
" .	c #32FF00",
"..	c #26FF00",
"+.	c #18FF00",
"@.	c #00FF27",
"#.	c #00FF65",
"$.	c #00FF89",
"%.	c #00FFA4",
"&.	c #00FFD4",
"*.	c #00FFE2",
"=.	c #00EAFF",
"-.	c #FF3200",
";.	c #FF7000",
">.	c #FF9400",
",.	c #FFB600",
"'.	c #FFC500",
").	c #EDFF00",
"!.	c #3FFF00",
"~.	c #00FF4B",
"{.	c #00FF66",
"].	c #00FFA3",
"^.	c #00FFAD",
"/.	c #00EBFF",
"(.	c #00DDFF",
"_.	c #FFEC00",
":.	c #CBFF00",
"<.	c #57FF00",
"[.	c #4EFF00",
"}.	c #00FF1A",
"|.	c #00FF26",
"1.	c #00DEFF",
"2.	c #00D5FF",
"3.	c #FF3E00",
"4.	c #FF7D00",
"5.	c #FF8500",
"6.	c #FFBB00",
"7.	c #FFF900",
"8.	c #C5FF00",
"9.	c #87FF00",
"0.	c #49FF00",
"a.	c #0AFF00",
"b.	c #00FF34",
"c.	c #00FF72",
"d.	c #00FF7C",
"e.	c #00FFB1",
"f.	c #00FFB9",
"g.	c #00D4FF",
"h.	c #00C7FF",
"i.	c #FF6300",
"j.	c #FF7C00",
"k.	c #FFFA00",
"l.	c #88FF00",
"m.	c #17FF00",
"n.	c #0BFF00",
"o.	c #00FFEF",
"p.	c #00D0FF",
"q.	c #00C8FF",
"r.	c #00BAFF",
"s.	c #FF3F00",
"t.	c #FFBC00",
"u.	c #C6FF00",
"v.	c #00FF0B",
"w.	c #00FF73",
"x.	c #00FFF0",
"y.	c #00FFF9",
"z.	c #00ACFF",
"A.	c #FF4C00",
"B.	c #FF8B00",
"C.	c #00FFC8",
"D.	c #00F9FF",
"E.	c #009FFF",
"F.	c #FF8A00",
"G.	c #FFC900",
"H.	c #F7FF00",
"I.	c #B8FF00",
"J.	c #7AFF00",
"K.	c #3BFF00",
"L.	c #00FF03",
"M.	c #00FF41",
"N.	c #00FF7F",
"O.	c #00FFBE",
"P.	c #00FFFC",
"Q.	c #00D1FF",
"R.	c #00C2FF",
"S.	c #00ADFF",
"T.	c #0091FF",
"U.	c #D4FF00",
"V.	c #00FF42",
"W.	c #00FF80",
"X.	c #00FFFD",
"Y.	c #00C3FF",
"Z.	c #0092FF",
"`.	c #0085FF",
" +	c #94FF00",
".+	c #3CFF00",
"++	c #0084FF",
"@+	c #007CFF",
"#+	c #FF9800",
"$+	c #FFD600",
"%+	c #E9FF00",
"&+	c #ABFF00",
"*+	c #6DFF00",
"=+	c #2EFF00",
"-+	c #00FF11",
";+	c #00FF4F",
">+	c #00FF8D",
",+	c #00FFBF",
"'+	c #00FFCC",
")+	c #00F4FF",
"!+	c #00B6FF",
"~+	c #006EFF",
"{+	c #EAFF00",
"]+	c #A3FF00",
"^+	c #6CFF00",
"/+	c #48FF00",
"(+	c #00FFB0",
"_+	c #00FFCB",
":+	c #00B5FF",
"<+	c #0077FF",
"[+	c #0060FF",
"}+	c #00F3FF",
"|+	c #00A0FF",
"1+	c #0061FF",
"2+	c #0053FF",
"3+	c #FFA500",
"4+	c #FFC800",
"5+	c #FFE300",
"6+	c #DCFF00",
"7+	c #B9FF00",
"8+	c #00FF10",
"9+	c #0046FF",
"0+	c #9DFF00",
"a+	c #5FFF00",
"b+	c #21FF00",
"c+	c #00FF1E",
"d+	c #00FF5C",
"e+	c #00FF9A",
"f+	c #00FFD9",
"g+	c #00E6FF",
"h+	c #00A8FF",
"i+	c #006AFF",
"j+	c #0054FF",
"k+	c #0039FF",
"l+	c #FFD700",
"m+	c #FFE400",
"n+	c #9EFF00",
"o+	c #00FF9B",
"p+	c #0069FF",
"q+	c #002BFF",
"r+	c #60FF00",
"s+	c #00FFDA",
"t+	c #00E7FF",
"u+	c #0038FF",
"v+	c #002CFF",
"w+	c #0022FF",
"x+	c #FFF100",
"y+	c #F6FF00",
"z+	c #000000",
"A+	c #90FF00",
"B+	c #52FF00",
"C+	c #13FF00",
"D+	c #00FF2B",
"E+	c #00FF69",
"F+	c #00FFA8",
"G+	c #00FFE6",
"H+	c #00D9FF",
"I+	c #009AFF",
"J+	c #005DFF",
"K+	c #001EFF",
"L+	c #0015FF",
"M+	c #CEFF00",
"N+	c #00FF5D",
"O+	c #00FFE7",
"P+	c #005CFF",
"Q+	c #0045FF",
"R+	c #0008FF",
"S+	c #001DFF",
"T+	c #0600FF",
"U+	c #FFFE00",
"V+	c #C1FF00",
"W+	c #83FF00",
"X+	c #44FF00",
"Y+	c #20FF00",
"Z+	c #14FF00",
"`+	c #06FF00",
" @	c #00FF4E",
".@	c #00FF8E",
"+@	c #00A9FF",
"@@	c #009BFF",
"#@	c #0007FF",
"$@	c #1300FF",
"%@	c #C2FF00",
"&@	c #45FF00",
"*@	c #00FF39",
"=@	c #00FF6A",
"-@	c #00FF77",
";@	c #00FFB5",
">@	c #00FFF4",
",@	c #00CCFF",
"'@	c #008DFF",
")@	c #004EFF",
"!@	c #0010FF",
"~@	c #2000FF",
"{@	c #CFFF00",
"]@	c #05FF00",
"^@	c #00FF1D",
"/@	c #00FF38",
"(@	c #00FFB6",
"_@	c #00CBFF",
":@	c #004FFF",
"<@	c #0011FF",
"[@	c #1400FF",
"}@	c #2100FF",
"|@	c #2E00FF",
"1@	c #82FF00",
"2@	c #3700FF",
"3@	c #B4FF00",
"4@	c #75FF00",
"5@	c #37FF00",
"6@	c #00FF07",
"7@	c #00FF46",
"8@	c #00FF85",
"9@	c #00FFC3",
"0@	c #00FDFF",
"a@	c #00BEFF",
"b@	c #0080FF",
"c@	c #0042FF",
"d@	c #0003FF",
"e@	c #3B00FF",
"f@	c #4400FF",
"g@	c #00FF45",
"h@	c #00FF76",
"i@	c #00FF84",
"j@	c #00FFF3",
"k@	c #00BFFF",
"l@	c #0041FF",
"m@	c #5200FF",
"n@	c #91FF00",
"o@	c #007FFF",
"p@	c #3C00FF",
"q@	c #5F00FF",
"r@	c #A7FF00",
"s@	c #68FF00",
"t@	c #2AFF00",
"u@	c #00FF08",
"v@	c #00FF15",
"w@	c #00FF54",
"x@	c #00FF92",
"y@	c #4500FF",
"z@	c #6D00FF",
"A@	c #29FF00",
"B@	c #00FF2C",
"C@	c #00FF53",
"D@	c #00FFD0",
"E@	c #00EFFF",
"F@	c #00B1FF",
"G@	c #0072FF",
"H@	c #0034FF",
"I@	c #0B00FF",
"J@	c #4900FF",
"K@	c #6C00FF",
"L@	c #7A00FF",
"M@	c #00FF14",
"N@	c #00FF91",
"O@	c #00FFD1",
"P@	c #00F0FF",
"Q@	c #008EFF",
"R@	c #4800FF",
"S@	c #8700FF",
"T@	c #0073FF",
"U@	c #8800FF",
"V@	c #9100FF",
"W@	c #00FF60",
"X@	c #00E2FF",
"Y@	c #00A4FF",
"Z@	c #0065FF",
"`@	c #0026FF",
" #	c #0A00FF",
".#	c #1800FF",
"+#	c #5600FF",
"@#	c #9400FF",
"##	c #9D00FF",
"$#	c #00FCFF",
"%#	c #00A3FF",
"&#	c #2F00FF",
"*#	c #9E00FF",
"=#	c #AB00FF",
"-#	c #00FF23",
";#	c #1700FF",
">#	c #9500FF",
",#	c #B900FF",
"'#	c #0EFF00",
")#	c #00FF2F",
"!#	c #0096FF",
"~#	c #0027FF",
"{#	c #6000FF",
"]#	c #B800FF",
"^#	c #C500FF",
"/#	c #0058FF",
"(#	c #2500FF",
"_#	c #6300FF",
":#	c #A200FF",
"<#	c #C600FF",
"[#	c #D300FF",
"}#	c #00FF6F",
"|#	c #00FFC2",
"1#	c #001AFF",
"2#	c #5700FF",
"3#	c #6400FF",
"4#	c #E000FF",
"5#	c #0097FF",
"6#	c #E100FF",
"7#	c #E900FF",
"8#	c #0089FF",
"9#	c #004BFF",
"0#	c #0019FF",
"a#	c #000CFF",
"b#	c #3300FF",
"c#	c #7100FF",
"d#	c #AF00FF",
"e#	c #EE00FF",
"f#	c #F600FF",
"g#	c #0057FF",
"h#	c #004AFF",
"i#	c #0002FF",
"j#	c #2600FF",
"k#	c #3200FF",
"l#	c #B000FF",
"m#	c #F700FF",
"n#	c #FF00FA",
"o#	c #ED00FF",
"p#	c #FF00EC",
"q#	c #00B9FF",
"r#	c #007BFF",
"s#	c #0066FF",
"t#	c #003DFF",
"u#	c #0200FF",
"v#	c #FF00F9",
"w#	c #FF00ED",
"x#	c #FF00DF",
"y#	c #0088FF",
"z#	c #000BFF",
"A#	c #0100FF",
"B#	c #4000FF",
"C#	c #7E00FF",
"D#	c #BD00FF",
"E#	c #FB00FF",
"F#	c #FF00D2",
"G#	c #003CFF",
"H#	c #BC00FF",
"I#	c #FC00FF",
"J#	c #FF00C4",
"K#	c #00FFA0",
"L#	c #FF00BB",
"M#	c #0030FF",
"N#	c #4E00FF",
"O#	c #8C00FF",
"P#	c #CB00FF",
"Q#	c #FF00F5",
"R#	c #FF00D1",
"S#	c #FF00B7",
"T#	c #FF00AE",
"U#	c #002FFF",
"V#	c #0F00FF",
"W#	c #4D00FF",
"X#	c #8B00FF",
"Y#	c #CA00FF",
"Z#	c #FF00F6",
"`#	c #FF00A1",
" $	c #0E00FF",
".$	c #FF00C5",
"+$	c #FF00A0",
"@$	c #FF0093",
"#$	c #0023FF",
"$$	c #1D00FF",
"%$	c #7F00FF",
"&$	c #9900FF",
"*$	c #FF00B6",
"=$	c #FF0094",
"-$	c #FF0086",
";$	c #00FFEA",
">$	c #1C00FF",
",$	c #5B00FF",
"'$	c #D800FF",
")$	c #FF00E8",
"!$	c #FF00AA",
"~$	c #FF0078",
"{$	c #FF00E0",
"]$	c #FF00A9",
"^$	c #FF0085",
"/$	c #FF0079",
"($	c #FF006B",
"_$	c #5A00FF",
":$	c #A300FF",
"<$	c #D700FF",
"[$	c #FF006C",
"}$	c #FF0062",
"|$	c #2900FF",
"1$	c #6800FF",
"2$	c #A600FF",
"3$	c #E500FF",
"4$	c #FF00DB",
"5$	c #FF009C",
"6$	c #FF005E",
"7$	c #FF0055",
"8$	c #2A00FF",
"9$	c #FF005D",
"0$	c #FF0047",
"a$	c #3F00FF",
"b$	c #A700FF",
"c$	c #FF003A",
"d$	c #0014FF",
"e$	c #7600FF",
"f$	c #B400FF",
"g$	c #F200FF",
"h$	c #FF00DA",
"i$	c #FF00CD",
"j$	c #FF008E",
"k$	c #FF0048",
"l$	c #FF002C",
"m$	c #FF008F",
"n$	c #FF0050",
"o$	c #FF002D",
"p$	c #FF001F",
"q$	c #6900FF",
"r$	c #7500FF",
"s$	c #B300FF",
"t$	c #E400FF",
"u$	c #FF0012",
"v$	c #FF0009",
"w$	c #8300FF",
"x$	c #C200FF",
"y$	c #F300FF",
"z$	c #FF00FF",
"A$	c #FF00CE",
"B$	c #FF00C0",
"C$	c #FF0082",
"D$	c #FF0043",
"E$	c #FF0005",
"F$	c #C100FF",
"G$	c #FF00FE",
"H$	c #FF0081",
"I$	c #FF0004",
"J$	c #FF0051",
"K$	c #FF0020",
". . . + @ # $ % & * = - ; > , ' ) ! ~ { ] ^ / ( _ : < [ } | 1 2 3 4 5 6 7 8 9 0 a b c d e f g h i j k l m n o p q r s t u v w x ",
". . + y z $ % & A = - ; > , B C ! ~ { ] ^ / D _ E < [ F | 1 G 3 4 5 6 H 8 9 0 a I c J e f g h i j K l m n o L q r s t u M w x N ",
". + @ z O % P * = Q ; > , B R ! ~ S ] T U D _ : V [ F W 1 X 3 Y 5 Z ` 8 9  ...+.c d e f @.h i j K #.m n $.p %.r s t &.*.w x N =.",
"+ y # -.% & * = ;.; > >.B R ,.'.S ] T / D ).: V [ F W 1 X 3 Y 5 Z ` 8 !.0 a +.c d e f @.h i ~.K {.m n $.p ].^.s t &.*.w x N /.(.",
"y # O % & * = Q ; > >.' R ! ~ { ] _./ D ).: V :.F | 1 X 3 Y 5 6 <.[.!. .a +.c J e }.|.h i j K #.m n $.p %.^.s t u *.w x N =.1.2.",
"# O 3.& * = Q 4.5.>.' R 6.~ { ] T 7.D _ : V 8.F W 1 X 9.Y 5 6 <.0.9  .a +.a.J e f @.b.i ~.k #.c.d.$.p ].e.f.t &.*.w x N /.1.g.h.",
"O 3.P * i.Q j.> , ' R 6.~ { ] _.k.D _ : V 8.F W 1 X l.4 5 Z ` 0.!.0 a m.n.d e f |.b.i j K #.c.d.o L ].e.s t u *.o.x N /.1.p.q.r.",
"s.& A = ;.4.> , ' R t.~ { ] _.k.D _ E V u.F | 1 X 9.4 5 Z ` 0.9  .a +.a.J v.f |.b.i j k {.w.d.$.p ].e.s t u *.x.y.N /.1.p.h.r.z.",
"A.A = Q j.B., B R 6.~ S ] _.7.( ).E V 8.F | 1 X 9.4 5 6 ` 0.9  .a +.a.d e f @.b.i j K #.w.n $.p ].e.s C.&.*.x.x D./.1.p.h.r.z.E.",
"* = Q 4.F., B R t.G.{ ] _.7.H._ : V u.I.W 1 X 9.J.5 Z ` 0.K.0 a +.a.L.e }.|.b.M.j k #.c.N.$.p ].e.O.C.&.*.o.P.N /.(.Q.R.r.S.E.T.",
"i.Q 4.F., B R 6.G.{ ] _.k.H._ E U.8.I.W 1 X 9.J.5 6 ` 0.K. .a +.a.L.e f @.b.V.j k #.w.W.$.L ].e.O.t u *.o.X.N /.1.p.Y.r.z.E.Z.`.",
";.4.B., B R 6.G.S ] _.k.H._ E U.8.I.| 1  +9.J.5 Z <.0..+ .a +.a.L.v.f @.b.V.j K {.w.W.$.p %.e.O.C.u *.o.P.N /.(.p.R.r.z.E.Z.++@+",
"4.F.#+' R 6.G.$+] T k.H.%+: U.u.I.&+1 X 9.J.*+6 ` 0.K.=+..+.n.L.-+f @.b.M.;+K #.c.W.>+p %.e.,+'+u *.o.X.)+/.(.p.R.!+S.E.T.++@+~+",
"B.#+B R 6.G.$+] _.k.H.{+E V 8.I.&+]+X 9.J.^+Z ` /+.+=+..+.a.L.-+f |.b.M.;+K #.c.W.>+L %.(+,+_+u *.o.X.)+/.(.Q.Y.:+S.E.T.++<+~+[+",
"#+B R t.G.$+] T k.H.%+E V u.I.&+1 X 9.J.*+6 ` 0..+=+..+.n.L.-+}.|.b.V.;+K #.c.N.>+p %.(+O.'+u *.o.X.}+/.(.Q.Y.!+z.|+T.`.<+~+1+2+",
"3+R 6.4+$+5+_.7.H.%+6+V u.7+&+1  +9.J.*+6 ` 0..+=+a +.a.L.8+}.|.b.M.;+K {.c.W.>+L %.e.,+'+u *.o.P.)+/.(.Q.Y.!+z.|+Z.++<+~+[+2+9+",
"R t.G.$+5+_.k.H.{+6+V 8.I.&+0+X 9.J.^+a+` /+K.=+b+m.n.L.8+c+|.b.V.;+d+#.c.W.>+e+].e.,+'+f+*.o.X.}+g+(.p.Y.:+h+|+T.++<+i+1+j+9+k+",
"t.4+l+m+_.7.H.%+6+V 8.7+&+n+X l.J.*+a+` 0.K.=+b+m.n.L.-+c+@.b.M.;+d+#.c.W.>+o+%.e.O.'+f+*.x.X.}+g+(.p.Y.!+h+E.Z.++<+p+1+2+9+k+q+",
"G.$+5+_.k.H.%+6+V u.I.&+0+X l.J.*+r+` 0.K.=+b++.a.L.8+c+|.b.M.;+d+{.c.W.>+o+].(+O._+s+*.o.X.}+t+1.Q.Y.:+h+E.T.++<+i+1+2+9+u+v+w+",
"$+m+x+k.y+{+6+z+8.I.&+n+A+9.J.^+a+B+0..+=+b+C+a.L.-+c+D+b.V.;+d+E+w.W.>+e+F+e.,+'+f+G+o.X.)+g+H+p.Y.:+h+I+T.`.<+p+J+2+9+u+q+K+L+",
"5+x+7.H.{+6+M+z+I.&+n+A+l.J.*+r+B+0.K.=+b+C+n.L.8+c+D+b.M.;+N+E+c.W.>+o+F+e.O._+f+O+o.P.)+t+H+p.R.!+h+z+Z.`.<+i+P+j+Q+u+v+K+L+R+",
"x+k.H.{+6+M+u.7+z+n+A+9.J.^+a+B+0.K.=+b+C+a.L.8+c+D+b.M.;+d+E+c.N.>+o+F+e.O.'+f+O+o.X.)+g+H+p.Y.!+h+z+T.`.<+i+P+2+9+k+q+S+L+R+T+",
"U+H.{+6+M+V+I.&+z+A+W+J.*+a+B+X+.+=+Y+Z+`+L.-+c+D+b.M. @d+E+c.W..@o+F+e.,+'+f+O+x.X.)+t+H+p.Y.!++@@@z+++<+p+P+2+9+k+v+K+L+#@T+$@",
"H.%+6+M+%@I.&+0+z+W+J.^+a+B+&@.+=+Y+C+`+L.-+c+D+*@M.;+d+=@-@W..@e+F+;@O._+f+G+>@P.)+g+H+,@Y.:+h+@@'@z+<+p+P+)@9+u+q+K+!@#@T+$@~@",
"%+6+{@V+I.&+n+A+W+z+*+a+B+X+.+=+b+C+]@L.-+^@D+/@M.;+d+=@-@W.>+o+F+(@O.'+s+G+>@X.)+t+H+_@Y.!+h+@@'@z+<+p+P+:@9+u+q+K+<@#@T+[@}@|@",
"6+M+V+7+&+0+A+1@J.z+r+B+X+K.=+b+C+`+L.8+c+D+*@M.;+d+=@-@W..@e+F+;@O.'+f+O+>@X.)+g+H+_@R.!+h+I+'@++z+i+P+:@9+k+q+K+!@R+T+$@}@|@2@",
"{@V+3@&+0+A+W+4@*+a+z+&@5@=+b+C+`+6@-+^@D+/@7@;+d+E+-@8@>+o+F+(@9@_+f+O+>@0@)+g+H+_@a@!+h+I+'@b@z+i+P+)@c@u+q+K+!@d@T+$@}@|@e@f@",
"V+3@&+n+A+W+4@*+a+B+X+z+=+b+Z+`+6@8+c+D+*@g@;+d+E+h@i@>+o+F+(@9@'+f+G+j@0@)+g+H+,@k@:+h+@@'@b@z+p+P+:@l@u+q+K+!@d@T+$@}@|@e@f@m@",
"3@&+n+n@W+4@^+a+B+&@5@=+z+C+`+6@8+^@D+*@7@ @d+=@-@i@>+o+F+;@9@_+f+G+>@0@}+g+H+_@a@:+h+@@'@o@<+z+P+:@l@u+q+K+!@d@T+[@}@|@p@f@m@q@",
"r@n+A+W+4@s@r+B+&@5@t@b+z+]@u@v@c+D+/@7@w@d+=@-@i@x@e+F+(@9@_+f+G+>@0@)+t+H+,@k@:+h+I+'@b@<+p+z+:@c@u+q+K+!@d@T+$@}@|@p@y@m@q@z@",
"n+A+1@4@s@a+B+X+5@A@b+C+z+6@v@^@B@/@g@C@d+=@-@8@x@e+F+;@9@D@f+O+>@0@E@g+H+,@a@F@h+@@'@b@G@i+J+z+l@H@q+K+!@d@I@$@}@|@e@J@m@q@K@L@",
"A+W+4@s@a+B+X+5@t@b+C+`+z+M@c+D+*@7@w@d+=@-@i@N@o+F+;@9@O@f+O+>@0@P@t+H+_@a@F@h+@@Q@b@G@p+P+z+c@H@v+K+!@d@I@$@}@|@e@R@m@q@K@L@S@",
"W+4@s@r+B+&@5@t@Y+C+`+6@v@z+D+/@g@C@d+=@-@i@x@o+F+;@9@D@f+G+>@0@P@g+H+_@a@F@h+@@'@b@T@p+J+:@z+H@q+K+!@d@I@$@}@|@e@J@m@q@z@L@U@V@",
"4@s@H B+X+5@A@b C+`+6@M@g z+*@7@w@W@=@-@8@N@q F+(@9@D@M G+>@0@E@X@H+_@a@F@Y@I+'@b@T@Z@P+:@c@z+`@S+<@d@ #.#}@|@e@J@+#q@z@L@U@@###",
"s@7 B+&@5@A@b C+`+6@v@g D+/@z+C@l =@-@i@x@q F+(@9@D@v O+>@$#E@X@H+,@a@F@%#I+'@b@T@Z@P+:@l@H@z+K+<@d@ #.#~@&#e@J@+#q@z@L@U@@#*#=#",
"H B+&@5@t@b C+`+6@v@-#D+/@7@z+W@=@-@8@N@q F+(@9@D@v G+>@0@z+X@H+,@a@F@Y@@@'@b@T@Z@P+)@l@H@z+K+<@d@I@;#}@|@e@J@+#q@z@L@U@>###=#,#",
"[.X+5@A@I '#`+u@M@-#)#*@7@C@z+m -@i@N@q ^.;@9@D@v w j@0@z+z+g.,@a@F@Y@!#'@b@G@Z@P+:@c@H@~#z+!@d@I@.#}@|@e@R@+#{#K@L@S@>#*#=#]#^#",
"X+5@A@I c `+6@v@g h *@7@C@W@m z+i@N@q ^.;@9@D@M w >@0@E@z+2.z+a@F@Y@!#'@b@G@Z@/#:@c@H@~#z+<@d@ #.#(#|@e@J@+#_#z@L@S@>#:#=#]#<#[#",
"5@t@I c `+6@v@g )#/@7@C@W@}#-@z+x@q r ;@|#D@M w >@0@P@z+2.,@z+F@%#!#'@b@T@Z@/#:@c@H@~#1#z+d@I@.#(#|@p@J@2#3#K@L@S@@#:#=#,#^#[#4#",
"t@b c `+6@v@g h /@7@C@l m -@i@z+q ^.;@9@D@v w >@$#E@X@z+_@a@F@z+5#'@b@T@Z@/#:@c@H@`@1#!@z+I@.#(#|@p@J@+#3#z@L@S@>#:#=#]#<#[#6#7#",
"b c J u@v@g )#i 7@C@W@m d.i@x@z+r s 9@D@v w x 0@E@X@z+q.a@F@Y@z+8#b@T@Z@/#9#l@H@~#0#a#z+ #.#(#b#e@J@+#3#c#L@S@@#:#d#,#<#[#6#e#f#",
"c J 6@v@-#)#i 7@w@l m n i@x@q ^.z+9@D@M w y.$#P@X@z+q.k@F@Y@5#8#z+T@Z@g#h#l@H@~#0#a#i#z+.#j#k#e@J@+#_#c#L@S@>#:#l#]#^#[#4#e#m#n#",
"d 6@v@g h i 7@C@l m n i@x@q ^.f.z+D@v w x $#E@X@z+h.k@F@Y@5#8#b@z+Z@/#h#c@H@~#0#a#i#z+.#(#b#e@R@+#_#c#L@U@@#:#d#]#<#[#4#o#f#n#p#",
"e M@g )#i j C@l m d.$.x@q r s t z+M w y.D.E@X@z+q.q#F@%#!#8#r#T@s#z+z+t#H@`@1#a#u#z+z+(#b#e@J@+#_#c#L@S@>#:#l#]#<#[#4#e#m#v#w#x#",
"v@g h i ~.C@W@m n $.N@q ^.s t D@z+w y.D.E@X@z+h.r.F@Y@!#y#r#G@Z@/#h#z+H@~#0#z#A# #z+j#b#B#J@+#3#c#C#U@@#:#l#D#^#[#6#e#E#v#w#x#F#",
"-#)#i j C@l m d.$.x@q ^.s t O@v w z+D.E@X@z+q.q#F@Y@!#8#r#G@Z@/#h#G#H@z+0#a#u#I@.#z+k#B#J@+#3#c#C#U@>#:#d#H#<#[#6#e#I#n#p#x#F#J#",
"h i ~.C@l m d.$.N@K#r s t O@v w y.z+P@X@z+h.r.F@%#!#y#r#G@Z@g#h#t#H@~#0#z+u#I@.#(#z+B#R@+#_#c#C#U@>#:#d#D#<#[#6#e#I#n#w#x#F#J#L#",
"i ~.K l }#d.$.p q ^.s t u M w x N /.z+2.z+r.z.Y@5#8#@+~+Z@/#h#t#M#`@0#z#A#z+.#j#z+B#N#2#_#c#C#O#@#:#d#H#P#[#4#e#I#Q#p#x#R#J#S#T#",
"j K l m n o p q ^.f.C.&.v w x N =.X@2.z+r.z.%#!#8#@+~+Z@/#h#t#U#~#0#a#A#V#z+z+b#z+W#+#3#c#C#X#>#:#d#D#Y#[#4#e#I#Z#w#x#F#J#S#T#`#",
"k l m n $.L q ^.s C.&.M w y.N /.X@2.h.r.z.Y@5#8#r#~+Z@/#h#t#U#~#0#a#A# $.#(#b#z+z+2#3#c#C#O#>#:#d#D#P#[#6#e#E#Q#p#x#F#.$S#T#+$@$",
"#.m d.$.p %.^.s t u *.w x N /.1.g.h.r.z.E.!#8#r#~+[+/#9#t#U##$1#a#A#V#$$(#b#B#W#z+3#c#%$O#&$:#d#D#Y#[#6#e#E#Q#p#x#F#J#*$T#+$=$-$",
"m n $.p %.^.s t u *.;$x D./.1.2.q.r.z.E.5#8#@+~+1+/#h#t#M#w+0#a#u# $>$(#b#B#W#,$_#c#C#O#&$:#d#D#Y#'$6#e#E#Q#)$x#F#J#S#!$`#@$-$~$",
"d.$.p ].^.s t u *.w x N /.1.g.h.r.z.E.!#8#@+~+1+/#h#t#U#w+0#a#u#V#$$(#b#B#W#,$3#c#C#O#&$:#l#H#Y#'$4#e#E#Q#)${$R#J#S#]$`#@$^$/$($",
"$.p ].e.s t u *.w x N /.1.2.h.r.z.E.!#8#r#~+1+/#9#t#M#w+0#a#A#V#$$(#b#B#W#_$3#c#C#O#&$:$d#H#P#<$4#e#I#Q#)$x#F#J#S#!$`#@$-$/$[$}$",
"p ].(+f.t &.*.o.x D./.1.p.q.r.z.E.T.y#r#~+1+2+h#t#U#w+L+z#A#V#>$|$k#B#N#,$1$c#%$O#&$2$l#D#Y#'$3$e#E#Q#)$4$F#J#S#!$5$@$-$~$($6$7$",
"].e.s t u *.x.x N /.(.p.q.r.z.E.T.8#r#~+1+2+9#t#U##$L+a#A#V#$$8$b#B#N#,$1$c#%$O#&$2$l#H#Y#'$3$e#E#Z#)$4$R#J#S#]$5$@$-$/$($9$7$0$",
"e.s t u *.o.y.N /.1.p.q.q#S.E.T.8#r#~+1+2+h#t#M##$L+a#A#V#>$8$k#a$W#,$1$c#C#O#&$b$d#D#Y#'$3$e#I#Q#)$4$F#J#S#!$5$=$-$~$($6$7$0$c$",
",+t u *.o.P.N /.1.p.R.r.S.E.Z.++r#~+1+j+9+t#M#w+d$#@A#V#$$|$2@B#N#,$1$e$%$O#&$b$f$D#P#<$3$g$E#Z#)$h$i$J#S#]$5$j$-$/$($9$7$k$c$l$",
"C.u *.o.P.D./.(.p.Y.r.z.E.Z.`.@+~+[+2+9+t#U#w+d$R+A#V#$$|$2@B#W#_$1$e$C#O#&$2$f$H#Y#<$3$g$I#Q#)$4$i$.$S#]$5$m$-$~$($6$n$0$c$o$p$",
"&.*.o.X.N /.1.p.R.r.S.E.Z.++@+~+[+j+9+t#M#w+L+#@u#V#>$8$2@B#N#,$q$r$C#O#&$2$s$H#Y#'$t$g$E#Z#)$4$i$J#S#]$5$j$-$/$($6$n$k$c$o$p$u$",
"*.o.X.)+/.1.p.Y.!+z.E.Z.`.@+~+1+2+9+t#U#w+L+#@A#V#$$|$2@a$W#,$1$r$C#X#&$b$f$D#Y#<$3$g$I#Q#)$4$i$J#S#!$5$m$-$~$($6$n$0$c$o$p$u$v$",
"o.X.)+/.1.p.Y.:+z.E.Z.`.<+~+1+2+9+k+M#w+d$#@T+V#>$8$2@y@N#,$q$e$w$O#&$2$f$x$Y#'$3$y$z$Q#)$4$A$B$S#]$5$j$C$~$($6$n$D$c$o$p$u$E$. ",
"X.)+/.(.Q.Y.!+S.E.T.++<+~+1+j+9+u+U#w+L+R+T+ $$$8$2@y@W#,$1$e$w$X#&$b$f$F$Y#'$3$y$G$Q#)$4$i$B$S#!$5$m$H$~$($6$n$D$c$l$p$u$I$. . ",
")+/.(.p.Y.:+z.|+T.++<+~+[+2+Q+u+M#w+L+#@T+V#>$8$2@f@W#,$1$r$w$X#&$2$f$F$Y#'$3$y$G$Q#)$4$i$B$S#!$5$j$H$/$($6$J$D$c$o$K$u$I$. . . "};
