/* XPM */
static char * test_xpm[] = {
"64 64 242 2",
"  	c None",
". 	c #FF0800",
"+ 	c #FF1500",
"@ 	c #FF2200",
"# 	c #FF2F00",
"$ 	c #FF3B00",
"% 	c #FF4800",
"& 	c #FF5100",
"* 	c #FF5D00",
"= 	c #FF6B00",
"- 	c #FF7800",
"; 	c #FF8400",
"> 	c #FF9100",
", 	c #FF9A00",
"' 	c #FFA600",
") 	c #FFB300",
"! 	c #FFC000",
"~ 	c #FFCD00",
"{ 	c #FFD500",
"] 	c #FFE200",
"^ 	c #FFEF00",
"/ 	c #FFFB00",
"( 	c #F5FF00",
"_ 	c #E9FF00",
": 	c #E1FF00",
"< 	c #D3FF00",
"[ 	c #C7FF00",
"} 	c #BAFF00",
"| 	c #AEFF00",
"1 	c #A5FF00",
"2 	c #98FF00",
"3 	c #8CFF00",
"4 	c #7EFF00",
"5 	c #71FF00",
"6 	c #64FF00",
"7 	c #5CFF00",
"8 	c #50FF00",
"9 	c #43FF00",
"0 	c #36FF00",
"a 	c #29FF00",
"b 	c #21FF00",
"c 	c #14FF00",
"d 	c #08FF00",
"e 	c #00FF06",
"f 	c #00FF13",
"g 	c #00FF20",
"h 	c #00FF28",
"i 	c #00FF35",
"j 	c #00FF42",
"k 	c #00FF4F",
"l 	c #00FF5B",
"m 	c #00FF67",
"n 	c #00FF70",
"o 	c #00FF7D",
"p 	c #00FF89",
"q 	c #00FF97",
"r 	c #00FFA4",
"s 	c #00FFAC",
"t 	c #00FFB9",
"u 	c #00FFC6",
"v 	c #00FFD2",
"w 	c #00FFDF",
"x 	c #00FFEC",
"y 	c #00FFF4",
"z 	c #00FDFF",
"A 	c #FF3C00",
"B 	c #FF5E00",
"C 	c #FF7700",
"D 	c #FF9900",
"E 	c #FFD600",
"F 	c #F6FF00",
"G 	c #D4FF00",
"H 	c #C6FF00",
"I 	c #ADFF00",
"J 	c #8BFF00",
"K 	c #72FF00",
"L 	c #65FF00",
"M 	c #20FF00",
"N 	c #07FF00",
"O 	c #00FF12",
"P 	c #00FF1F",
"Q 	c #00FF27",
"R 	c #00FF34",
"S 	c #00FF41",
"T 	c #00FF4E",
"U 	c #00FF8A",
"V 	c #00FF96",
"W 	c #00F0FF",
"X 	c #FF2E00",
"Y 	c #FF6A00",
"Z 	c #FFA700",
"` 	c #FFCC00",
" .	c #FFE100",
"..	c #FFEE00",
"+.	c #00FF05",
"@.	c #00FF68",
"#.	c #00FFA3",
"$.	c #00E3FF",
"%.	c #FF4900",
"&.	c #FF8500",
"*.	c #2AFF00",
"=.	c #00FFC5",
"-.	c #00FFF5",
";.	c #00D7FF",
">.	c #FFFC00",
",.	c #A4FF00",
"'.	c #7FFF00",
").	c #4FFF00",
"!.	c #00D6FF",
"~.	c #00CEFF",
"{.	c #E0FF00",
"].	c #00C1FF",
"^.	c #000000",
"/.	c #00C2FF",
"(.	c #00B4FF",
"_.	c #FF9000",
":.	c #13FF00",
"<.	c #00FF71",
"[.	c #00A8FF",
"}.	c #00FFAB",
"|.	c #00FFB8",
"1.	c #00B5FF",
"2.	c #00A7FF",
"3.	c #009BFF",
"4.	c #42FF00",
"5.	c #008EFF",
"6.	c #5DFF00",
"7.	c #00E4FF",
"8.	c #009AFF",
"9.	c #0086FF",
"0.	c #00C6FF",
"a.	c #00FCFF",
"b.	c #0079FF",
"c.	c #006CFF",
"d.	c #FFBF00",
"e.	c #0085FF",
"f.	c #0078FF",
"g.	c #005FFF",
"h.	c #008FFF",
"i.	c #0052FF",
"j.	c #00FFD3",
"k.	c #0053FF",
"l.	c #0046FF",
"m.	c #003DFF",
"n.	c #003EFF",
"o.	c #0031FF",
"p.	c #006BFF",
"q.	c #0045FF",
"r.	c #0023FF",
"s.	c #BBFF00",
"t.	c #00FFE0",
"u.	c #0030FF",
"v.	c #0024FF",
"w.	c #0016FF",
"x.	c #000AFF",
"y.	c #0017FF",
"z.	c #00FFEB",
"A.	c #0C00FF",
"B.	c #0001FF",
"C.	c #0B00FF",
"D.	c #1800FF",
"E.	c #1900FF",
"F.	c #2500FF",
"G.	c #0009FF",
"H.	c #0002FF",
"I.	c #3200FF",
"J.	c #0060FF",
"K.	c #3E00FF",
"L.	c #3F00FF",
"M.	c #4700FF",
"N.	c #5400FF",
"O.	c #6100FF",
"P.	c #6000FF",
"Q.	c #6E00FF",
"R.	c #6D00FF",
"S.	c #7A00FF",
"T.	c #3100FF",
"U.	c #8200FF",
"V.	c #2400FF",
"W.	c #9000FF",
"X.	c #8300FF",
"Y.	c #9D00FF",
"Z.	c #00FF5A",
"`.	c #5300FF",
" +	c #8F00FF",
".+	c #9C00FF",
"++	c #AA00FF",
"@+	c #A900FF",
"#+	c #B500FF",
"$+	c #B600FF",
"%+	c #C200FF",
"&+	c #00F1FF",
"*+	c #CB00FF",
"=+	c #C300FF",
"-+	c #D800FF",
";+	c #E500FF",
">+	c #CC00FF",
",+	c #F200FF",
"'+	c #FE00FF",
")+	c #D700FF",
"!+	c #FF00F3",
"~+	c #FF00EA",
"{+	c #F100FF",
"]+	c #FF00EB",
"^+	c #FF00DE",
"/+	c #7B00FF",
"(+	c #FF00FF",
"_+	c #FF00D1",
":+	c #FF00DD",
"<+	c #FF00D0",
"[+	c #FF00C4",
"}+	c #FF00B7",
"|+	c #FF00C5",
"1+	c #FF00AE",
"2+	c #FF00A2",
"3+	c #FF00AF",
"4+	c #FF0095",
"5+	c #E400FF",
"6+	c #FF00B8",
"7+	c #FF0088",
"8+	c #FF0089",
"9+	c #FF007B",
"0+	c #FF007C",
"a+	c #FF006F",
"b+	c #FF0067",
"c+	c #FF0096",
"d+	c #FF0066",
"e+	c #FF005A",
"f+	c #FF00A1",
"g+	c #FF006E",
"h+	c #FF0059",
"i+	c #FF004D",
"j+	c #FF0040",
"k+	c #FF00F2",
"l+	c #FF0034",
"m+	c #FF004C",
"n+	c #FF0033",
"o+	c #FF002A",
"p+	c #FF002B",
"q+	c #FF001E",
"r+	c #FF0011",
"s+	c #FF0004",
"^ + @ # $ % & * = - ; > , ' ) ! ~ { ] ^ / ( _ : < [ } | 1 2 3 4 5 6 7 8 9 0 a b c d e f g h i j k l m n o p q r s t u v w x y ^ ",
"+ @ # A % & B = C ; > D ' ) ! ~ E ] ^ / F _ : G H } I 1 2 J 4 K L 7 8 9 0 a M c N e O P Q R S T l m n o U V r s t u v w x y z W ",
"@ X A % & B Y - ; > D Z ) ! ` {  .../ F _ : G [ } | 1 2 3 4 5 L 7 8 9 0 a b c N +.O P h R j T l @.n o p q #.s t u v w x y z W $.",
"# A %.& * = C &.> , ' ) ! ~ { ] ^ / F _ : < [ } I 1 2 J 4 5 L 7 8 9 0 *.M c N e O P h i S T l @.n o U V r s t =.v w x -.z W $.;.",
"$ %.& B = C &.> , ' ) ! ` { ] ^ >.( _ : G [ } I ,.2 J '.5 L 7 ).9 0 *.M c N e f P Q R S T l @.n o U V #.s t u v w x -.z W $.!.~.",
"% & B = C &.> D ' ) ! ` {  .../ F _ {.G [ } I ,.2 3 '.K L 7 8 9 0 a M c N e f P h i S T l @.n o U V #.s t =.v w x y z W $.;.~.].",
"& * Y C ; > D ' ) ! ~ { ] ^ >.( _ {.G [ } I 1 2 J 4 5 L 7 ).9 0 *.b c N +.O P h i ^.T l m n o U V #.s t =.v w x y z W $.;.~./.(.",
"B = C ; _., Z ) ! ` { ] ^ / ( _ : < [ } I 1 2 3 4 K L 7 8 9 0 a b :.N e O P h R j ^.l m <.o U q r s t =.v w x y z W $.;.~.].(.[.",
"= C ; > D ' ) ! ` { ] ..>.F _ {.< [ } | 1 2 J 4 K L 7 8 9 0 a M c N +.O g Q i S T ^.@.n o U q r }.|.u v w x y z W $.!.~./.1.2.3.",
"C ; _., ' ) ! ~ {  .^ >.F ^.{.< [ } I 1 2 J 4 K L 7 8 4.0 a M c N e O P h i S T l ^.^.o U V #.s |.u v w x y z W $.;.~.].(.2.3.5.",
"; > , ' ) ! ~ { ] ../ F ^.^.^.[ } | 1 2 J 4 5 6 6.8 9 0 a b c N e O P h R S T l @.n ^.U q r s t =.v w x y z W 7.;.~.].(.2.8.5.9.",
"> D ' ) ! ~ E ] ..>.F _ ^.0.^.} | ,.2 J '.5 L 6.).9 0 a b c N e O P h i j T l m n o ^.q #.s t =.v w x y a.W $.;.~.].1.[.3.5.9.b.",
"D ' ) ! ` { ] ^ >.( _ ^.^.0.^.^.,.2 3 4 K L 7 8 9 0 a b c ^.e f P h R S T l m <.o U ^.#.s t =.v w x y z W $.;.~.].(.2.3.5.9.b.c.",
"' ) d.~ { ] ^ >.F _ ^.^.0.0.0.^.2 J 4 K L 7 ).9 0 *.M c N ^.O g h R S k l @.n o U q #.^.|.u v w x y z W 7.!.~.].(.2.8.5.e.f.c.g.",
") ! ~ { ] ^ / F _ ^.0.0.0.0.0.^.J '.K L 7 ).9 0 *.b c N e ^.P h R j T l @.n o U V r s ^.=.v w x y z W $.!.~.].(.[.3.h.e.f.c.g.i.",
"! ` { ] ^ / F _ ^.^.0.0.0.0.0.^.^.K L 7 8 9 0 a b c N e f ^.h i S T l m n o U q #.s t ^.j.w x y z W $.;.~./.1.2.3.5.9.b.c.g.k.l.",
"` {  .../ ( _ {.^.^.^.0.0.0.0.0.^.L 7 8 9 0 a b :.N +.f P ^.R S T l @.n o U V #.s t =.j.^.x y z W $.!.~.].(.2.3.5.e.b.c.g.i.l.m.",
"{  .^ >.F _ ^.^.[ } ^.^.^.^.^.^.^.^.8 9 0 *.b :.d e O g h ^.S T l @.n o U q r s t u v w ^.y z W $.;.~.].1.[.3.5.9.f.c.g.i.l.n.o.",
"] ../ F _ : ^.[ } I 1 2 J 4 K L 6.^.9 0 a b c N +.f P h i ^.T l @.<.o p q r s t u j.w x ^.z W 7.;.~.].1.2.3.5.9.b.p.g.i.q.n.o.r.",
"^ / F _ : ^.[ s.I 1 2 J 4 5 6 7 8 ^.^.a M c d +.O P h R S ^.l m n o U V r s t =.j.t.x y ^.W $.!.~.].1.[.3.5.9.b.c.g.k.l.m.u.v.w.",
">.F _ : G [ } I 1 2 J '.5 6 7 8 9 0 ^.M c N +.f P h i S T ^.@.n o p q #.s |.^.v w x -.z W ^.!.~.].1.2.3.5.e.b.c.g.i.l.m.o.r.w.x.",
"F _ {.G [ } I ,.2 J 4 5 L 7 ).9 0 a ^.c d e O g h i S T l ^.<.o U V ^.^.^.^.^.w x -.z W $.^.~.].(.2.3.5.9.b.c.g.i.l.m.u.v.y.^.^.",
"_ {.G [ } I 1 2 J 4 K L 7 ).9 0 a b c ^.e f P h R j T l m ^.o U ^.^.^.t =.v w z.y z W $.;.^.^.(.[.3.5.e.f.c.g.k.l.m.^.^.^.^.^.A.",
": G [ } I ,.2 J 4 K L 7 8 9 0 a b :.N ^.^.P h i S T l @.<.^.^.^.^.s t =.v w x y z W 7.!.~.].^.[.3.5.9.b.c.g.k.^.^.^.^.y.x.B.C.D.",
"< [ s.I ,.2 J '.5 L 6.8 4.0 a b c N e f ^.h R S T l m n o ^.^.#.s |.u j.w z.y z W 7.;.~.].1.^.3.5.9.f.^.^.^.^.^.u.v.y.x.B.C.E.F.",
"H } I ,.2 J 4 K L 7 8 9 0 a M c N e O P ^.i S T l m n o U q r s t =.v w z.y z W $.!.~.].1.[.^.^.e.^.^.^.i.l.m.u.v.y.G.H.C.D.F.I.",
"} | 1 2 J 4 5 L 6.8 9 0 a M c N e f P h ^.^.T l @.n o U V r s t u v w x y z W $.!.~./.1.[.3.5.^.^.^.J.k.q.m.u.r.y.x.H.A.D.F.I.K.",
"| ,.2 J '.K L 6.8 9 0 *.M :.N e f P Q i S ^.l @.n o U q r s t u j.w z.-.z W $.!.~./.1.2.8.5.9.b.c.g.i.l.m.u.v.w.x.H.C.D.F.I.L.M.",
",.2 J '.5 L 6.8 9 0 a b c N e f P h i S T ^.@.<.o U V #.}.|.=.j.w z.y z W $.!.~.].1.[.3.5.9.b.c.g.k.l.m.u.r.y.x.H.C.E.F.I.L.M.N.",
"2 J '.K L 7 ).9 0 *.M c N +.f g h i S T l m <.o U V r s t =.j.w z.y a.W $.;.~.].1.2.8.5.9.f.c.J.k.q.m.u.r.y.x.H.C.D.F.I.K.M.N.O.",
"J 4 K L 7 ).9 0 a b c d e O P h i S T l @.n o U q r s |.=.v w z.y z W $.;.~./.1.[.3.5.9.b.c.g.i.q.m.o.r.y.x.H.A.D.F.I.L.M.N.P.Q.",
"4 K 6 7 8 9 0 a b c N e f P h i S T l @.n o U V r s t =.v w x -.z W $.!.~.].(.2.3.5.e.b.c.g.k.q.m.u.v.y.x.H.A.D.F.I.K.M.N.P.R.S.",
"K L 6.8 4.0 a b c N +.f P h R S k l @.n o U q r s |.=.v w x -.z W $.!.~.].(.[.3.5.e.b.c.g.i.q.m.u.v.w.x.B.C.E.F.T.K.M.N.O.Q.S.U.",
"L 7 8 9 0 a ^.^.^.+.O P h R S T l @.<.o p V #.s t =.v w x y z W $.!.~.].1.2.8.5.9.b.c.g.i.l.m.o.v.y.x.B.C.D.V.I.L.M.N.P.Q.S.U.W.",
"7 ).4.0 a b c N ^.^.P h i S k l m <.o U q #.}.t u v w x y z W $.;.~.].(.2.3.5.e.b.c.g.i.l.m.u.v.y.x.H.C.D.F.I.L.M.N.P.Q.S.X.W.Y.",
"8 4.0 a b :.N e O g ^.^.S T Z.@.<.o p V #.s |.=.v w x -.z W $.!.~.].(.[.8.5.e.b.c.g.i.l.m.u.r.w.x.B.C.D.F.I.K.M.`.O.R.S.X. +.+++",
"4.0 a b c N +.f P h i j ^.^.^.n o U ^.#.s t =.j.w x y z W $.!.~.].1.[.3.h.e.b.c.g.i.l.m.u.v.w.x.B.C.D.F.I.L.M.N.P.R.S.X.W.Y.@+#+",
"0 a b c N e ^.P Q R S T l m n ^.^.^.^.}.t =.v w x y z W $.!.~.].1.[.3.5.e.b.c.g.k.^.m.u.r.^.^.^.^.^.^.^.^.^.N.O.R.S.U. +.+@+$+%+",
"a b c N e f ^.h i S T l @.n o U V r ^.^.^.^.^.z.-.z &+^.^.^.].(.2.3.5.9.b.c.g.k.q.^.u.r.w.^.B.A.D.F.I.L.M.N.P.Q.S.X. +Y.@+#+%+*+",
"b c N e O P ^.i S T Z.@.<.o p q r s ^.u v w x -.z W 7.^.~.^.^.2.3.5.e.b.c.g.k.q.m.^.v.w.x.^.C.D.V.I.L.M.N.P.Q.S.X.W..+@+$+=+*+-+",
"c N e O g h ^.S T l @.n o p V r s t ^.j.w x y z &+$.!.^.].(.^.3.5.9.b.c.g.k.l.m.u.^.y.x.B.^.E.F.I.L.M.`.O.R.S.X.W.Y.@+$+=+*+-+;+",
"N +.O P Q i ^.T l @.n o U q r }.t u ^.w z.y z W $.;.~.^.(.[.^.^.9.b.c.J.k.l.m.o.v.^.G.H.C.^.F.I.K.M.`.O.R.S.X. +.+@+$+=+>+-+;+,+",
"e f P h i j ^.l @.n o U V r s t u v ^.x -.a.W 7.;.~.].^.2.3.5.^.^.c.g.i.q.m.o.r.^.^.H.C.D.^.I.K.M.N.O.Q.S.X.W..+@+#+%+*+-+;+,+'+",
"O g h i j k ^.@.n o U q #.}.t =.j.w ^.y a.W $.!.~.].1.^.3.5.e.b.^.g.i.l.m.u.v.y.^.B.C.D.^.^.^.^.^.^.^.^.^.^.^.^.^.=+*+)+;+,+'+!+",
"P h i j T l ^.n o U q r s t =.v w z.^.z W $.;.~.].(.2.^.5.9.b.c.g.^.l.m.u.r.w.x.^.C.D.F.T.^.M.`.O.R.S.X.W..+@+$+=+*+-+;+,+'+!+~+",
"Q i S T l @.^.^.^.^.^.^.^.u v w x y ^.W $.!.~.].(.[.3.^.e.b.c.g.k.^.m.u.r.y.x.^.^.D.F.I.K.^.N.P.Q.S.X.W.Y.@+$+%+>+-+;+{+'+!+]+^+",
"R S T l @.<.^.U V #.s |.=.j.w x y z ^.7.!.~./.(.[.3.5.^.b.c.g.i.l.^.^.r.y.G.B.^.D.F.I.K.M.^.O.Q./+X. +Y.@+$+%+*+-+;+,+(+!+~+^+_+",
"S T l @.n o ^.q r s |.u v w x y z W ^.!.~.].(.[.3.5.e.^.c.g.i.q.m.o.^.y.x.H.^.^.F.I.K.M.N.^.Q.S.X.W.Y.++$+=+*+-+;+,+'+!+~+:+<+[+",
"T l m n o U ^.#.s t =.v w x y z W $.^.~./.1.[.3.5.9.f.^.g.k.q.m.u.v.^.^.H.C.^.F.I.L.M.N.O.^.S.X.W..+@+#+%+*+-+;+,+'+!+~+:+_+[+}+",
"l m n o p q ^.s |.=.v w x -.z W $.!.^.].(.[.3.5.e.f.c.^.i.q.m.u.v.y.x.^.C.^.^.I.K.M.N.O.R.^.X.W.Y.@+#+=+*+-+;+{+^.^.^.^.^.^.^.^.",
"@.n o U q r ^.t =.j.w x y z W 7.;.~.^.(.[.3.5.9.b.c.g.i.l.m.u.r.w.x.H.^.^.^.I.L.M.N.O.R.S.^.W..+@+$+%+*+-+^.^.^.!+]+:+_+|+}+1+2+",
"n o U q #.s ^.=.v w x y a.W 7.!.~.].^.[.3.5.e.f.c.g.i.q.m.o.v.w.x.B.C.D.^.^.L.M.N.P.Q./+X.^.^.^.^.^.^.^.^.{+'+!+~+^+_+[+}+3+2+4+",
"o U V #.}.|.^.j.w x -.z W $.!.~.].1.^.8.5.e.b.c.g.i.q.m.u.r.w.x.B.C.D.F.T.L.M.N.O.R.S.X. +.+++$+%+*+-+5+{+'+!+]+^+_+[+6+3+2+4+7+",
"U q r s |.u v w x y z W $.!.~.].1.^.^.^.^.^.^.^.k.q.n.o.v.y.x.H.C.D.F.T.K.M.`.O.R.S.X. +.+@+$+%+*+-+;+,+'+!+]+^+_+[+}+3+2+4+8+9+",
"q #.s |.=.v w x -.z W 7.;.~.].(.^.8.h.e.b.c.g.k.l.m.o.r.w.x.B.C.E.F.I.K.M.N.O.R.S.U. +.+@+#+=+>+-+;+{+'+!+~+:+_+[+6+3+2+4+7+0+a+",
"#.s t u j.w x -.z W $.;.~.].(.2.3.h.e.b.c.g.i.l.m.u.r.y.x.B.C.D.F.I.L.M.N.O.Q.S.X.W.Y.@+$+=+*+-+;+{+(+!+~+:+_+[+}+3+2+4+7+0+a+b+",
"s |.=.j.w x -.a.W $.;.~.].(.2.3.5.9.f.c.g.i.l.m.u.v.y.x.B.C.E.F.T.L.M.N.P.R.S.X. +.+@+$+=+*+-+;+,+'+!+]+^+<+[+}+3+2+c+7+0+a+d+e+",
"t =.j.w x -.z W $.!.~.].1.[.3.h.e.f.c.g.i.l.m.u.r.y.x.B.C.D.F.I.K.M.`.O.Q.S.U.W.Y.@+$+=+*+-+;+{+'+!+]+:+<+[+6+3+f+4+7+0+g+d+h+i+",
"u v w z.y z &+$.!.~.].1.[.3.5.9.b.c.g.i.q.m.u.v.w.x.B.C.D.F.I.K.M.N.O.R.S.X. +.+@+$+=+*+-+;+{+'+!+~+^+_+[+}+3+2+4+8+9+a+d+h+i+j+",
"j.w x -.z W 7.;.~.].(.[.3.5.9.b.c.g.i.l.m.u.v.y.x.B.C.E.F.I.K.M.N.P.Q.S.X. +.+@+#+=+*+-+;+,+(+k+]+^+_+[+}+1+2+4+7+0+g+d+h+i+j+l+",
"w x y z W 7.;.~.].(.2.3.5.e.b.c.g.k.l.m.o.v.y.x.H.A.D.F.I.K.M.N.O.Q.S.X.W..+@+#+=+*+-+;+{+'+!+~+:+_+[+}+1+2+4+8+0+a+b+e+m+j+n+o+",
"z.y a.W 7.;.~./.(.[.3.5.e.b.c.g.i.l.m.u.r.w.x.H.C.E.F.I.K.M.N.O.Q.S.U. +.+@+#+=+*+-+5+,+(+!+]+^+<+[+}+3+2+4+8+0+a+b+h+i+j+n+p+q+",
"y z W $.!.~./.(.2.8.5.9.b.c.g.i.l.m.o.v.y.x.B.C.D.V.I.L.M.N.P.R.S.X. +Y.@+$+=+>+-+5+,+'+!+~+^+<+[+}+3+2+4+8+9+g+d+h+i+j+l+o+q+r+",
"^ W $.;.~.].(.[.3.5.e.b.c.g.i.q.m.u.r.y.x.B.C.D.F.T.L.M.N.P.Q.S.U.W..+@+#+=+>+-+;+,+(+!+~+^+_+[+}+3+2+4+7+0+a+d+e+i+j+n+o+q+r+^+"};
