/* XPM */
static char * test_n_xpm[] = {
"64 64 536 2",
"  	c None",
". 	c #FF0000",
"+ 	c #FF0900",
"@ 	c #FF1600",
"# 	c #FF2300",
"$ 	c #FF2D00",
"% 	c #FF3A00",
"& 	c #FF4700",
"* 	c #FF5500",
"= 	c #FF6200",
"- 	c #FF6B00",
"; 	c #FF7900",
"> 	c #FF8600",
", 	c #FF9300",
"' 	c #FFA000",
") 	c #FFA900",
"! 	c #FFB700",
"~ 	c #FFC400",
"{ 	c #FFD200",
"] 	c #FFDF00",
"^ 	c #FFE800",
"/ 	c #FFF500",
"( 	c #FCFF00",
"_ 	c #EEFF00",
": 	c #E1FF00",
"< 	c #D8FF00",
"[ 	c #CAFF00",
"} 	c #BCFF00",
"| 	c #B0FF00",
"1 	c #A2FF00",
"2 	c #99FF00",
"3 	c #8CFF00",
"4 	c #7EFF00",
"5 	c #71FF00",
"6 	c #64FF00",
"7 	c #5BFF00",
"8 	c #4DFF00",
"9 	c #40FF00",
"0 	c #33FF00",
"a 	c #25FF00",
"b 	c #1CFF00",
"c 	c #0FFF00",
"d 	c #01FF00",
"e 	c #00FF0C",
"f 	c #00FF19",
"g 	c #00FF22",
"h 	c #00FF30",
"i 	c #00FF3D",
"j 	c #00FF4A",
"k 	c #00FF57",
"l 	c #00FF61",
"m 	c #00FF6E",
"n 	c #00FF7B",
"o 	c #00FF88",
"p 	c #00FF96",
"q 	c #00FF9F",
"r 	c #00FFAC",
"s 	c #00FFBA",
"t 	c #00FFC7",
"u 	c #00FFD5",
"v 	c #00FFDE",
"w 	c #00FFEB",
"x 	c #00FFF8",
"y 	c #FF1700",
"z 	c #FF2400",
"A 	c #FF5400",
"B 	c #FFA100",
"C 	c #FFAA00",
"D 	c #FBFF00",
"E 	c #E0FF00",
"F 	c #BDFF00",
"G 	c #9AFF00",
"H 	c #5AFF00",
"I 	c #1DFF00",
"J 	c #02FF00",
"K 	c #00FF58",
"L 	c #00FF97",
"M 	c #00FFDD",
"N 	c #00F8FF",
"O 	c #FF3100",
"P 	c #FF4800",
"Q 	c #FF6F00",
"R 	c #FFAE00",
"S 	c #FFD100",
"T 	c #FFED00",
"U 	c #FFF600",
"V 	c #D3FF00",
"W 	c #AFFF00",
"X 	c #95FF00",
"Y 	c #7FFF00",
"Z 	c #63FF00",
"` 	c #56FF00",
" .	c #32FF00",
"..	c #26FF00",
"+.	c #18FF00",
"@.	c #00FF27",
"#.	c #00FF65",
"$.	c #00FF89",
"%.	c #00FFA4",
"&.	c #00FFD4",
"*.	c #00FFE2",
"=.	c #00EAFF",
"-.	c #FF3200",
";.	c #FF7000",
">.	c #FF9400",
",.	c #FFB600",
"'.	c #FFC500",
").	c #EDFF00",
"!.	c #3FFF00",
"~.	c #00FF4B",
"{.	c #00FF66",
"].	c #00FFA3",
"^.	c #00FFAD",
"/.	c #00EBFF",
"(.	c #00DDFF",
"_.	c #FFEC00",
":.	c #CBFF00",
"<.	c #57FF00",
"[.	c #4EFF00",
"}.	c #00FF1A",
"|.	c #00FF26",
"1.	c #00DEFF",
"2.	c #00D5FF",
"3.	c #FF3E00",
"4.	c #FF7D00",
"5.	c #FF8500",
"6.	c #FFBB00",
"7.	c #FFF900",
"8.	c #C5FF00",
"9.	c #87FF00",
"0.	c #49FF00",
"a.	c #0AFF00",
"b.	c #00FF34",
"c.	c #00FF72",
"d.	c #00FF7C",
"e.	c #00FFB1",
"f.	c #00FFB9",
"g.	c #00D4FF",
"h.	c #00C7FF",
"i.	c #FF6300",
"j.	c #FF7C00",
"k.	c #FFFA00",
"l.	c #88FF00",
"m.	c #17FF00",
"n.	c #0BFF00",
"o.	c #00FFEF",
"p.	c #00D0FF",
"q.	c #00C8FF",
"r.	c #00BAFF",
"s.	c #FF3F00",
"t.	c #FFBC00",
"u.	c #C6FF00",
"v.	c #00FF0B",
"w.	c #00FF73",
"x.	c #00FFF0",
"y.	c #00FFF9",
"z.	c #00ACFF",
"A.	c #FF4C00",
"B.	c #FF8B00",
"C.	c #00FFC8",
"D.	c #00F9FF",
"E.	c #009FFF",
"F.	c #FF8A00",
"G.	c #FFC900",
"H.	c #F7FF00",
"I.	c #B8FF00",
"J.	c #7AFF00",
"K.	c #3BFF00",
"L.	c #00FF03",
"M.	c #00FF41",
"N.	c #00FF7F",
"O.	c #00FFBE",
"P.	c #00FFFC",
"Q.	c #00D1FF",
"R.	c #00C2FF",
"S.	c #00ADFF",
"T.	c #0091FF",
"U.	c #D4FF00",
"V.	c #000000",
"W.	c #00FF42",
"X.	c #00FF80",
"Y.	c #00FFFD",
"Z.	c #00C3FF",
"`.	c #0092FF",
" +	c #0085FF",
".+	c #94FF00",
"++	c #3CFF00",
"@+	c #0084FF",
"#+	c #007CFF",
"$+	c #FF9800",
"%+	c #E9FF00",
"&+	c #ABFF00",
"*+	c #6DFF00",
"=+	c #2EFF00",
"-+	c #00FF11",
";+	c #00FF8D",
">+	c #00FFBF",
",+	c #00FFCC",
"'+	c #00F4FF",
")+	c #00B6FF",
"!+	c #006EFF",
"~+	c #FFD600",
"{+	c #A3FF00",
"]+	c #6CFF00",
"^+	c #48FF00",
"/+	c #00FF4F",
"(+	c #00FFB0",
"_+	c #00FFCB",
":+	c #00B5FF",
"<+	c #0077FF",
"[+	c #0060FF",
"}+	c #00F3FF",
"|+	c #00A0FF",
"1+	c #0061FF",
"2+	c #0053FF",
"3+	c #FFA500",
"4+	c #FFC800",
"5+	c #FFE300",
"6+	c #DCFF00",
"7+	c #00FF10",
"8+	c #0046FF",
"9+	c #EAFF00",
"0+	c #5FFF00",
"a+	c #21FF00",
"b+	c #00FF1E",
"c+	c #00FF5C",
"d+	c #00FF9A",
"e+	c #00FFD9",
"f+	c #00E6FF",
"g+	c #00A8FF",
"h+	c #006AFF",
"i+	c #0054FF",
"j+	c #0039FF",
"k+	c #FFD700",
"l+	c #FFE400",
"m+	c #B9FF00",
"n+	c #9EFF00",
"o+	c #00FF9B",
"p+	c #0069FF",
"q+	c #002BFF",
"r+	c #9DFF00",
"s+	c #60FF00",
"t+	c #00FFDA",
"u+	c #00E7FF",
"v+	c #0038FF",
"w+	c #002CFF",
"x+	c #0022FF",
"y+	c #FFF100",
"z+	c #F6FF00",
"A+	c #CEFF00",
"B+	c #90FF00",
"C+	c #13FF00",
"D+	c #00FF2B",
"E+	c #00FF69",
"F+	c #00FFA8",
"G+	c #00FFE6",
"H+	c #00D9FF",
"I+	c #009AFF",
"J+	c #005DFF",
"K+	c #001EFF",
"L+	c #0015FF",
"M+	c #52FF00",
"N+	c #00FF5D",
"O+	c #00FFE7",
"P+	c #005CFF",
"Q+	c #0045FF",
"R+	c #0008FF",
"S+	c #009BFF",
"T+	c #001DFF",
"U+	c #0600FF",
"V+	c #FFFE00",
"W+	c #C1FF00",
"X+	c #83FF00",
"Y+	c #44FF00",
"Z+	c #20FF00",
"`+	c #00FF4E",
" @	c #00FF8E",
".@	c #00A9FF",
"+@	c #0007FF",
"@@	c #1300FF",
"#@	c #C2FF00",
"$@	c #91FF00",
"%@	c #45FF00",
"&@	c #06FF00",
"*@	c #00FF39",
"=@	c #00FF6A",
"-@	c #00FF77",
";@	c #00FFB5",
">@	c #00FFF4",
",@	c #00CCFF",
"'@	c #008DFF",
")@	c #004EFF",
"!@	c #0010FF",
"~@	c #2000FF",
"{@	c #CFFF00",
"]@	c #05FF00",
"^@	c #00FFB6",
"/@	c #00CBFF",
"(@	c #004FFF",
"_@	c #0011FF",
":@	c #1400FF",
"<@	c #2100FF",
"[@	c #2E00FF",
"}@	c #3700FF",
"|@	c #B4FF00",
"1@	c #51FF00",
"2@	c #37FF00",
"3@	c #00FF07",
"4@	c #00FF1D",
"5@	c #00FF38",
"6@	c #00FF46",
"7@	c #00FF85",
"8@	c #00FFC3",
"9@	c #00FDFF",
"0@	c #00BEFF",
"a@	c #0080FF",
"b@	c #0042FF",
"c@	c #0003FF",
"d@	c #3B00FF",
"e@	c #4400FF",
"f@	c #75FF00",
"g@	c #14FF00",
"h@	c #00FF45",
"i@	c #00FFF3",
"j@	c #00BFFF",
"k@	c #0041FF",
"l@	c #5200FF",
"m@	c #00FF84",
"n@	c #007FFF",
"o@	c #3C00FF",
"p@	c #5F00FF",
"q@	c #A7FF00",
"r@	c #68FF00",
"s@	c #2AFF00",
"t@	c #00FF08",
"u@	c #00FF15",
"v@	c #00FF54",
"w@	c #00FF92",
"x@	c #4500FF",
"y@	c #6D00FF",
"z@	c #82FF00",
"A@	c #29FF00",
"B@	c #00FF2C",
"C@	c #00FF53",
"D@	c #00EFFF",
"E@	c #00B1FF",
"F@	c #0072FF",
"G@	c #0034FF",
"H@	c #0B00FF",
"I@	c #4900FF",
"J@	c #6C00FF",
"K@	c #7A00FF",
"L@	c #00FF14",
"M@	c #00FF91",
"N@	c #00FFD1",
"O@	c #00F0FF",
"P@	c #008EFF",
"Q@	c #4800FF",
"R@	c #8700FF",
"S@	c #00FFD0",
"T@	c #0073FF",
"U@	c #8800FF",
"V@	c #9100FF",
"W@	c #00FF60",
"X@	c #00A4FF",
"Y@	c #0065FF",
"Z@	c #0026FF",
"`@	c #0A00FF",
" #	c #1800FF",
".#	c #5600FF",
"+#	c #9400FF",
"@#	c #9D00FF",
"##	c #00FCFF",
"$#	c #00E2FF",
"%#	c #00A3FF",
"&#	c #0027FF",
"*#	c #2F00FF",
"=#	c #9E00FF",
"-#	c #AB00FF",
";#	c #00FF23",
">#	c #1700FF",
",#	c #9500FF",
"'#	c #B900FF",
")#	c #0EFF00",
"!#	c #00FF2F",
"~#	c #6000FF",
"{#	c #B800FF",
"]#	c #C500FF",
"^#	c #0096FF",
"/#	c #0058FF",
"(#	c #0019FF",
"_#	c #2500FF",
":#	c #6300FF",
"<#	c #A200FF",
"[#	c #C600FF",
"}#	c #D300FF",
"|#	c #00FF6F",
"1#	c #00FFC2",
"2#	c #001AFF",
"3#	c #5700FF",
"4#	c #6400FF",
"5#	c #E000FF",
"6#	c #0097FF",
"7#	c #E100FF",
"8#	c #E900FF",
"9#	c #0089FF",
"0#	c #000CFF",
"a#	c #3300FF",
"b#	c #7100FF",
"c#	c #AF00FF",
"d#	c #EE00FF",
"e#	c #F600FF",
"f#	c #0057FF",
"g#	c #004AFF",
"h#	c #2600FF",
"i#	c #3200FF",
"j#	c #B000FF",
"k#	c #F700FF",
"l#	c #FF00FA",
"m#	c #0002FF",
"n#	c #ED00FF",
"o#	c #FF00EC",
"p#	c #00B9FF",
"q#	c #007BFF",
"r#	c #0066FF",
"s#	c #004BFF",
"t#	c #003DFF",
"u#	c #FF00F9",
"v#	c #FF00ED",
"w#	c #FF00DF",
"x#	c #0088FF",
"y#	c #003CFF",
"z#	c #000BFF",
"A#	c #0100FF",
"B#	c #4000FF",
"C#	c #7E00FF",
"D#	c #BD00FF",
"E#	c #FB00FF",
"F#	c #FF00D2",
"G#	c #0200FF",
"H#	c #BC00FF",
"I#	c #FC00FF",
"J#	c #FF00C4",
"K#	c #00FFA0",
"L#	c #FF00BB",
"M#	c #0030FF",
"N#	c #0F00FF",
"O#	c #8C00FF",
"P#	c #CB00FF",
"Q#	c #FF00F5",
"R#	c #FF00D1",
"S#	c #FF00B7",
"T#	c #FF00AE",
"U#	c #002FFF",
"V#	c #4D00FF",
"W#	c #8B00FF",
"X#	c #CA00FF",
"Y#	c #FF00F6",
"Z#	c #FF00A1",
"`#	c #0E00FF",
" $	c #FF00C5",
".$	c #FF00A0",
"+$	c #FF0093",
"@$	c #0023FF",
"#$	c #1D00FF",
"$$	c #5A00FF",
"%$	c #7F00FF",
"&$	c #9900FF",
"*$	c #FF00B6",
"=$	c #FF0094",
"-$	c #FF0086",
";$	c #00FFEA",
">$	c #1C00FF",
",$	c #5B00FF",
"'$	c #D800FF",
")$	c #FF00E8",
"!$	c #FF00AA",
"~$	c #FF0078",
"{$	c #FF00E0",
"]$	c #FF00A9",
"^$	c #FF0085",
"/$	c #FF0079",
"($	c #FF006B",
"_$	c #A300FF",
":$	c #D700FF",
"<$	c #FF006C",
"[$	c #FF0062",
"}$	c #2900FF",
"|$	c #4E00FF",
"1$	c #6800FF",
"2$	c #A600FF",
"3$	c #E500FF",
"4$	c #FF00DB",
"5$	c #FF009C",
"6$	c #FF005E",
"7$	c #FF0055",
"8$	c #2A00FF",
"9$	c #FF005D",
"0$	c #FF0047",
"a$	c #3F00FF",
"b$	c #A700FF",
"c$	c #FF003A",
"d$	c #0014FF",
"e$	c #7600FF",
"f$	c #B400FF",
"g$	c #F200FF",
"h$	c #FF00DA",
"i$	c #FF00CD",
"j$	c #FF008E",
"k$	c #FF0048",
"l$	c #FF002C",
"m$	c #FF008F",
"n$	c #FF0050",
"o$	c #FF002D",
"p$	c #FF001F",
"q$	c #6900FF",
"r$	c #7500FF",
"s$	c #B300FF",
"t$	c #E400FF",
"u$	c #FF0012",
"v$	c #FF0009",
"w$	c #8300FF",
"x$	c #C200FF",
"y$	c #F300FF",
"z$	c #FF00FF",
"A$	c #FF00CE",
"B$	c #FF00C0",
"C$	c #FF0082",
"D$	c #FF0043",
"E$	c #FF0005",
"F$	c #C100FF",
"G$	c #FF00FE",
"H$	c #FF0081",
"I$	c #FF0004",
"J$	c #FF0051",
"K$	c #FF0020",
". . . + @ # $ % & * = - ; > , ' ) ! ~ { ] ^ / ( _ : < [ } | 1 2 3 4 5 6 7 8 9 0 a b c d e f g h i j k l m n o p q r s t u v w x ",
". . + y z $ % & A = - ; > , B C ! ~ { ] ^ / D _ E < [ F | 1 G 3 4 5 6 H 8 9 0 a I c J e f g h i j K l m n o L q r s t u M w x N ",
". + @ z O % P * = Q ; > , B R ! ~ S ] T U D _ : V [ F W 1 X 3 Y 5 Z ` 8 9  ...+.c d e f @.h i j K #.m n $.p %.r s t &.*.w x N =.",
"+ y # -.% & * = ;.; > >.B R ,.'.S ] T / D ).: V [ F W 1 X 3 Y 5 Z ` 8 !.0 a +.c d e f @.h i ~.K {.m n $.p ].^.s t &.*.w x N /.(.",
"y # O % & * = Q ; > >.' R ! ~ { ] _./ D ).: V :.F | 1 X 3 Y 5 6 <.[.!. .a +.c J e }.|.h i j K #.m n $.p %.^.s t u *.w x N =.1.2.",
"# O 3.& * = Q 4.5.>.' R 6.~ { ] T 7.D _ : V 8.F W 1 X 9.Y 5 6 <.0.9  .a +.a.J e f @.b.i ~.k #.c.d.$.p ].e.f.t &.*.w x N /.1.g.h.",
"O 3.P * i.Q j.> , ' R 6.~ { ] _.k.D _ : V 8.F W 1 X l.4 5 Z ` 0.!.0 a m.n.d e f |.b.i j K #.c.d.o L ].e.s t u *.o.x N /.1.p.q.r.",
"s.& A = ;.4.> , ' R t.~ { ] _.k.D _ E V u.F | 1 X 9.4 5 Z ` 0.9  .a +.a.J v.f |.b.i j k {.w.d.$.p ].e.s t u *.x.y.N /.1.p.h.r.z.",
"A.A = Q j.B., B R 6.~ S ] _.7.( ).E V 8.F | 1 X 9.4 5 6 ` 0.9  .a +.a.d e f @.b.i j K #.w.n $.p ].e.s C.&.*.x.x D./.1.p.h.r.z.E.",
"* = Q 4.F., B R t.G.{ ] _.7.H._ : V u.I.W 1 X 9.J.5 Z ` 0.K.0 a +.a.L.e }.|.b.M.j k #.c.N.$.p ].e.O.C.&.*.o.P.N /.(.Q.R.r.S.E.T.",
"i.Q 4.F., B R 6.G.{ ] _.k.H._ E U.8.I.W 1 X 9.J.5 6 ` 0.K. .a +.a.L.e f @.V.W.j k #.w.X.$.L ].e.O.t u *.o.Y.N /.1.p.Z.r.z.E.`. +",
";.4.B., B R 6.G.V.V._.k.H._ E U.8.I.| 1 .+9.J.5 Z <.0.++ .a +.a.L.v.f @.b.V.j K {.w.X.$.p %.e.O.C.u *.o.P.N /.(.p.R.r.z.E.`.@+#+",
"4.F.$+' R 6.G.V.V.V.V.H.%+: U.u.I.&+1 X 9.J.*+6 ` 0.K.=+..+.n.L.-+f @.b.M.V.K #.c.X.;+p %.e.>+,+u *.o.Y.'+/.(.p.R.)+S.E.T.@+#+!+",
"B.$+B R 6.G.~+V._.k.H.V.E V 8.I.&+{+X 9.J.]+Z ` ^+++=+..+.a.L.-+f |.b.M./+V.#.c.X.;+L %.(+>+_+u *.o.Y.'+/.(.Q.Z.:+S.E.T.@+<+!+[+",
"$+B R t.G.~+] V.k.H.%+E V.V.I.&+1 X 9.J.*+6 ` 0.++=+..+.n.L.-+}.|.b.W./+K V.c.N.;+p %.(+O.,+u *.o.Y.}+/.(.Q.Z.)+z.|+T. +<+!+1+2+",
"3+R 6.4+~+5+V.V.H.%+6+V u.V.V.1 .+9.J.*+6 ` 0.++=+a +.a.L.7+}.|.b.M./+K {.V.X.;+L %.e.>+,+u *.o.P.'+/.(.Q.Z.)+z.|+`.@+<+!+[+2+8+",
"R t.G.~+5+_.V.H.9+6+V 8.I.&+V.X 9.J.]+0+` ^+K.=+a+m.n.L.7+b+|.b.W./+c+#.c.V.;+d+].e.>+,+e+*.o.Y.}+f+(.p.Z.:+g+|+T.@+<+h+1+i+8+j+",
"t.4+k+l+_.7.V.%+6+V 8.m+&+n+V.V.J.*+0+` 0.K.=+a+m.n.L.-+b+@.b.M./+c+#.c.X.V.o+%.e.O.,+e+*.x.Y.}+f+(.p.Z.)+g+E.`.@+<+p+1+2+8+j+q+",
"G.~+5+_.k.H.V.6+V u.I.&+r+X l.J.V.s+` 0.K.=+a++.a.L.7+b+|.b.M./+c+{.c.X.;+o+V.(+O._+t+*.o.Y.}+u+1.Q.Z.:+g+E.T.@+<+h+1+2+8+v+w+x+",
"~+l+y+k.z+9+V.A+8.I.&+n+B+9.J.]+V.V.0.++=+a+C+a.L.-+b+D+b.W./+c+E+w.X.;+d+F+V.>+,+e+G+o.Y.'+f+H+p.Z.:+g+I+T. +<+p+J+2+8+v+q+K+L+",
"5+y+7.H.9+6+V.u.I.&+n+B+l.J.*+s+M+V.V.=+a+C+n.L.7+b+D+b.M./+N+E+c.X.;+o+F+e.V._+e+O+o.P.'+u+H+p.R.)+g+I+`. +<+h+P+i+Q+v+w+K+L+R+",
"y+k.H.9+6+A+V.m+&+n+B+9.J.]+0+M+0.K.=+V.C+a.L.7+b+D+b.M./+c+E+c.N.;+o+F+e.O.V.e+O+o.Y.'+f+H+p.Z.)+g+S+T. +<+h+P+2+8+j+q+T+L+R+U+",
"V+H.9+6+A+W+V.&+r+B+X+J.*+0+M+Y+++=+Z+V.V.L.-+b+D+b.M.`+c+E+c.X. @o+F+e.>+,+V.O+x.Y.'+u+H+p.Z.)+.@S+T.@+<+p+P+2+8+j+w+K+L++@U+@@",
"H.%+6+A+#@I.&+V.$@X+J.]+0+M+%@++=+Z+C+&@V.V.b+D+*@M./+c+=@-@X. @d+F+;@O._+e+V.>@P.'+f+H+,@Z.:+g+S+'@@+<+p+P+)@8+v+q+K+!@+@U+@@~@",
"%+6+{@W+I.&+n+V.X+J.*+0+M+Y+++=+a+C+]@L.-+V.V.V.M./+c+=@-@X.;+o+F+^@O.,+t+G+V.V.'+u+H+/@Z.)+g+S+'@@+<+p+P+(@8+v+q+K+_@+@U+:@<@[@",
"6+A+W+m+&+r+B+V.J.*+s+M+Y+K.=+a+C+&@L.7+b+D+*@M.V.c+=@-@X. @d+F+;@O.,+e+O+>@Y.V.f+H+/@R.)+g+I+'@@+<+h+P+(@8+j+q+K+!@R+U+@@<@[@}@",
"{@W+|@&+r+B+X+V.*+0+1@%@2@=+a+C+&@3@-+4@D+5@6@/+c+V.-@7@;+o+F+^@8@_+e+O+>@9@'+V.H+/@0@)+g+I+'@a@<+h+P+)@b@v+q+K+!@c@U+@@<@[@d@e@",
"W+|@&+n+B+X+f@V.0+M+Y+2@=+a+g@&@3@7+b+D+*@h@/+c+E+V.V.;+o+F+^@8@,+e+G+i@9@'+f+V.,@j@:+g+S+'@a@<+p+P+(@k@v+q+K+!@c@U+@@<@[@d@e@l@",
"|@&+n+$@X+f@]+V.M+%@2@=+Z+C+&@3@7+4@D+*@6@`+c+=@-@m@V.o+F+;@8@_+e+G+>@9@}+f+H+V.0@:+g+S+'@n@<+p+P+(@k@v+q+K+!@c@U+:@<@[@o@e@l@p@",
"q@n+B+X+f@r@s+V.%@2@s@a+g@]@t@u@b+D+5@6@v@c+=@-@m@w@d+V.V.8@_+e+G+>@9@'+u+H+,@V.V.g+I+'@a@<+p+P+(@b@v+q+K+!@c@U+@@<@[@o@x@l@p@y@",
"n+B+z@f@r@0+M+V.2@A@a+C+&@3@u@4@B@5@h@C@c+=@-@7@w@d+F+;@V.V.e+O+>@9@D@f+H+,@0@E@V.S+'@a@F@h+J+)@k@G@q+K+!@c@H@@@<@[@d@I@l@p@J@K@",
"B+X+f@r@0+M+Y+2@V.a+C+&@t@L@b+D+*@6@v@c+=@-@m@M@o+F+;@8@N@V.V.V.9@O@u+H+/@0@E@g+V.P@a@F@p+P+(@b@G@w+K+!@c@H@@@<@[@d@Q@l@p@J@K@R@",
"X+f@r@s+M+%@2@s@V.C+&@3@u@b+D+5@h@C@c+=@-@m@w@o+F+;@8@S@e+G+>@V.O@f+H+/@0@E@g+S+V.a@T@p+J+(@k@G@q+K+!@c@H@@@<@[@d@I@l@p@y@K@U@V@",
"f@r@H M+Y+2@A@b V.&@3@L@g D+*@6@v@W@=@-@7@M@q F+^@8@S@M G+>@9@D@V.H+/@0@E@X@I+'@V.T@Y@P+(@b@G@Z@T+_@c@`@ #<@[@d@I@.#p@y@K@U@+#@#",
"r@7 M+%@2@A@b C+V.3@u@g D+5@6@C@l =@-@m@w@q F+^@8@S@v O+>@##D@$#H+V.0@E@%#I+'@a@V.Y@P+(@k@G@&#K+_@c@`@ #~@*#d@I@.#p@y@K@U@+#=#-#",
"H M+%@2@s@b C+&@V.u@;#D+5@6@C@W@=@-@7@M@q F+^@8@S@v G+>@9@D@$#H+,@V.V.X@S+'@a@T@V.P+)@k@G@&#K+_@c@H@>#<@[@d@I@.#p@y@K@U@,#@#-#'#",
"[.Y+2@A@I )#&@t@V.;#!#*@6@C@l m -@m@M@q ^.;@8@S@v w i@9@D@$#g.,@0@E@V.V.'@a@F@Y@V.(@b@G@&#K+!@c@H@ #<@[@d@Q@.#~#J@K@R@,#=#-#{#]#",
"Y+2@A@I c &@3@u@g V.*@6@C@W@m -@m@M@q ^.;@8@S@M w >@9@D@$#2./@0@E@X@^#V.a@F@Y@/#V.b@G@&#(#_@c@`@ #_#[@d@I@.#:#y@K@R@,#<#-#{#[#}#",
"2@s@I c &@3@u@g !#V.6@C@W@|#-@m@w@q r ;@1#S@M w >@9@O@$#2.,@0@E@%#^#'@V.V.Y@/#(@V.V.&#2#!@c@H@ #_#[@o@I@3#4#J@K@R@+#<#-#'#]#}#5#",
"s@b c &@3@u@g h 5@V.C@l m -@m@M@q ^.;@8@S@v w >@##D@$#g./@0@E@X@6#'@a@T@V.V.(@b@G@V.2#!@c@H@ #_#[@o@I@.#4#y@K@R@,#<#-#{#[#}#7#8#",
"b c J t@u@g !#i 6@V.W@m d.m@w@q r s 8@S@v w x 9@D@$#2.q.0@E@X@^#9#a@T@Y@/#V.k@G@&#V.0#c@`@ #_#a#d@I@.#4#b#K@R@+#<#c#'#[#}#7#d#e#",
"c J 3@u@;#!#i 6@v@V.m n m@w@q ^.s 8@S@M w y.##O@$#2.q.j@E@X@6#9#a@T@Y@f#g#V.V.&#(#V.V.`@ #h#i#d@I@.#:#b#K@R@,#<#j#{#]#}#5#d#k#l#",
"d 3@u@g h i 6@C@l V.n m@w@q ^.f.8@S@v w x ##D@$#g.h.j@E@X@6#9#a@F@Y@/#g#b@G@&#V.0#m#V. #_#a#d@Q@.#:#b#K@U@+#<#c#{#[#}#5#n#e#l#o#",
"e L@g !#i j C@l m V.$.w@q r s t S@M w y.D.D@$#g.q.p#E@%#^#9#q#T@r#f#s#t#G@Z@2#V.V.`@V._#a#d@I@.#:#b#K@R@,#<#j#{#[#}#5#d#k#u#v#w#",
"u@g h i ~.C@W@m n $.V.q ^.s t S@v w y.D.D@$#g.h.r.E@X@^#x#q#F@Y@/#g#y#G@&#(#z#A#V. #V.a#B#I@.#4#b#C#U@+#<#j#D#]#}#7#d#E#u#v#w#F#",
";#!#i j C@l m d.$.w@V.^.s t N@v w y.D.D@$#2.q.p#E@X@^#9#q#F@Y@/#g#y#G@&#(#0#G#H@V._#V.V.I@.#4#b#C#U@,#<#c#H#[#}#7#d#I#l#o#w#F#J#",
"h i ~.C@l m d.$.M@K#V.s t N@v w y.N O@$#g.h.r.E@%#^#x#q#F@Y@f#g#t#G@&#(#0#G#H@ #V.V.B#V..#:#b#C#U@,#<#c#D#[#}#7#d#I#l#v#w#F#J#L#",
"i ~.K l |#d.$.p q ^.V.t u M w x N /.$#2.h.r.z.X@6#9##+!+Y@/#g#t#M#Z@(#z#A#N# #h#a#V.V.V.:#b#C#O#+#<#c#H#P#}#5#d#I#Q#o#w#R#J#S#T#",
"j K l m n o p q ^.f.V.&.v w x N =.$#2.h.r.z.%#^#9##+!+Y@/#g#t#U#&#(#0#A#N#>#_#a#B#V#V.V.b#C#W#,#<#c#D#X#}#5#d#I#Y#v#w#F#J#S#T#Z#",
"k l m n $.L q ^.s C.V.M w y.N /.$#2.h.r.z.X@6#9#q#!+Y@/#g#t#U#&#(#0#A#`# #_#a#B#V#3#4#V.C#O#,#<#c#D#P#}#7#d#E#Q#o#w#F# $S#T#.$+$",
"#.m d.$.p %.^.s t u *.w x N /.1.g.h.r.z.E.^#9#q#!+[+/#s#t#U#@$2#0#A#N##$_#a#B#V#$$4#b#%$O#&$<#c#D#X#}#7#d#E#Q#o#w#F#J#*$T#.$=$-$",
"m n $.p %.^.s t u *.;$x D./.1.2.q.r.z.E.6#9##+!+1+/#g#t#M#x+(#0#G#`#>$_#a#B#V#,$:#b#C#O#&$<#c#D#X#'$7#d#E#Q#)$w#F#J#S#!$Z#+$-$~$",
"d.$.p ].^.s t u *.w x N /.1.g.h.r.z.E.^#9##+!+1+/#g#t#U#x+(#0#G#N##$_#a#B#V#,$4#b#C#O#&$<#j#H#X#'$5#d#E#Q#)${$R#J#S#]$Z#+$^$/$($",
"$.p ].e.s t u *.w x N /.1.2.h.r.z.E.^#9#q#!+1+/#s#t#M#x+(#0#A#N##$_#a#B#V#$$4#b#C#O#&$_$c#H#P#:$5#d#I#Q#)$w#F#J#S#!$Z#+$-$/$<$[$",
"p ].(+f.t &.*.o.x D./.1.p.q.r.z.E.T.x#q#!+1+2+g#t#U#x+L+z#A#N#>$}$i#B#|$,$1$b#%$O#&$2$j#D#X#'$3$d#E#Q#)$4$F#J#S#!$5$+$-$~$($6$7$",
"].e.s t u *.x.x N /.(.p.q.r.z.E.T.9#q#!+1+2+s#t#U#@$L+0#A#N##$8$a#B#|$,$1$b#%$O#&$2$j#H#X#'$3$d#E#Y#)$4$R#J#S#]$5$+$-$/$($9$7$0$",
"e.s t u *.o.y.N /.1.p.q.p#S.E.T.9#q#!+1+2+g#t#M#@$L+0#A#N#>$8$i#a$V#,$1$b#C#O#&$b$c#D#X#'$3$d#I#Q#)$4$F#J#S#!$5$=$-$~$($6$7$0$c$",
">+t u *.o.P.N /.1.p.R.r.S.E.`.@+q#!+1+i+8+t#M#x+d$+@A#N##$}$}@B#|$,$1$e$%$O#&$b$f$D#P#:$3$g$E#Y#)$h$i$J#S#]$5$j$-$/$($9$7$k$c$l$",
"C.u *.o.P.D./.(.p.Z.r.z.E.`. +#+!+[+2+8+t#U#x+d$R+A#N##$}$}@B#V#$$1$e$C#O#&$2$f$H#X#:$3$g$I#Q#)$4$i$ $S#]$5$m$-$~$($6$n$0$c$o$p$",
"&.*.o.Y.N /.1.p.R.r.S.E.`.@+#+!+[+i+8+t#M#x+L++@G#N#>$8$}@B#|$,$q$r$C#O#&$2$s$H#X#'$t$g$E#Y#)$4$i$J#S#]$5$j$-$/$($6$n$k$c$o$p$u$",
"*.o.Y.'+/.1.p.Z.)+z.E.`. +#+!+1+2+8+t#U#x+L++@A#N##$}$}@a$V#,$1$r$C#W#&$b$f$D#X#:$3$g$I#Q#)$4$i$J#S#!$5$m$-$~$($6$n$0$c$o$p$u$v$",
"o.Y.'+/.1.p.Z.:+z.E.`. +<+!+1+2+8+j+M#x+d$+@U+N#>$8$}@x@|$,$q$e$w$O#&$2$f$x$X#'$3$y$z$Q#)$4$A$B$S#]$5$j$C$~$($6$n$D$c$o$p$u$E$. ",
"Y.'+/.(.Q.Z.)+S.E.T.@+<+!+1+i+8+v+U#x+L+R+U+`##$8$}@x@V#,$1$e$w$W#&$b$f$F$X#'$3$y$G$Q#)$4$i$B$S#!$5$m$H$~$($6$n$D$c$l$p$u$I$. . ",
"'+/.(.p.Z.:+z.|+T.@+<+!+[+2+Q+v+M#x+L++@U+N#>$8$}@e@V#,$1$r$w$W#&$2$f$F$X#'$3$y$G$Q#)$4$i$B$S#!$5$j$H$/$($6$J$D$c$o$K$u$I$. . . "};
