/* XPM */
static char * test2_xpm[] = {
"28 61 164 2",
"  	c None",
". 	c #00FFEB",
"+ 	c #00FFDF",
"@ 	c #00FFD3",
"# 	c #00FFC6",
"$ 	c #00FFB8",
"% 	c #00FFAC",
"& 	c #00FFA3",
"* 	c #00FF97",
"= 	c #00FF8A",
"- 	c #00FF7D",
"; 	c #00FF70",
"> 	c #00FF68",
", 	c #00FF5B",
"' 	c #00FF4E",
") 	c #00FF42",
"! 	c #00FF35",
"~ 	c #00FF28",
"{ 	c #00FF1F",
"] 	c #00FF12",
"^ 	c #00FF06",
"/ 	c #07FF00",
"( 	c #14FF00",
"_ 	c #21FF00",
": 	c #29FF00",
"< 	c #36FF00",
"[ 	c #43FF00",
"} 	c #50FF00",
"| 	c #5CFF00",
"1 	c #00FFF4",
"2 	c #00FFEC",
"3 	c #00FFC5",
"4 	c #00FFAB",
"5 	c #00FF89",
"6 	c #00FF27",
"7 	c #00FF20",
"8 	c #42FF00",
"9 	c #00FDFF",
"0 	c #00FFF5",
"a 	c #00FFD2",
"b 	c #00FFA4",
"c 	c #00FF71",
"d 	c #00FF4F",
"e 	c #00FF13",
"f 	c #13FF00",
"g 	c #00F1FF",
"h 	c #000000",
"i 	c #00FF05",
"j 	c #00E3FF",
"k 	c #00F0FF",
"l 	c #00FCFF",
"m 	c #00FFB9",
"n 	c #00FF41",
"o 	c #00D6FF",
"p 	c #00FF96",
"q 	c #00CEFF",
"r 	c #00FF34",
"s 	c #00C1FF",
"t 	c #00D7FF",
"u 	c #00FF5A",
"v 	c #00B5FF",
"w 	c #00E4FF",
"x 	c #00A8FF",
"y 	c #009BFF",
"z 	c #00B4FF",
"A 	c #00FF67",
"B 	c #008EFF",
"C 	c #00A7FF",
"D 	c #0086FF",
"E 	c #008FFF",
"F 	c #0079FF",
"G 	c #0085FF",
"H 	c #006CFF",
"I 	c #0078FF",
"J 	c #009AFF",
"K 	c #005FFF",
"L 	c #0052FF",
"M 	c #0045FF",
"N 	c #00C2FF",
"O 	c #003DFF",
"P 	c #0046FF",
"Q 	c #0030FF",
"R 	c #0024FF",
"S 	c #0053FF",
"T 	c #0016FF",
"U 	c #0023FF",
"V 	c #000AFF",
"W 	c #0017FF",
"X 	c #0001FF",
"Y 	c #0031FF",
"Z 	c #003EFF",
"` 	c #0B00FF",
" .	c #1800FF",
"..	c #2500FF",
"+.	c #3200FF",
"@.	c #1900FF",
"#.	c #3E00FF",
"$.	c #0002FF",
"%.	c #4700FF",
"&.	c #3100FF",
"*.	c #5400FF",
"=.	c #3F00FF",
"-.	c #6100FF",
";.	c #5300FF",
">.	c #6D00FF",
",.	c #0060FF",
"'.	c #7A00FF",
").	c #6E00FF",
"!.	c #6000FF",
"~.	c #8300FF",
"{.	c #0009FF",
"].	c #8F00FF",
"^.	c #8200FF",
"/.	c #9C00FF",
"(.	c #9000FF",
"_.	c #A900FF",
":.	c #9D00FF",
"<.	c #B600FF",
"[.	c #C300FF",
"}.	c #CB00FF",
"|.	c #7B00FF",
"1.	c #D800FF",
"2.	c #E500FF",
"3.	c #B500FF",
"4.	c #F100FF",
"5.	c #AA00FF",
"6.	c #FE00FF",
"7.	c #CC00FF",
"8.	c #C200FF",
"9.	c #0C00FF",
"0.	c #FF00F3",
"a.	c #F200FF",
"b.	c #2400FF",
"c.	c #FF00EA",
"d.	c #FF00DE",
"e.	c #FF00EB",
"f.	c #FF00FF",
"g.	c #FF00D1",
"h.	c #FF00DD",
"i.	c #E400FF",
"j.	c #FF00C4",
"k.	c #FF00D0",
"l.	c #FF00B7",
"m.	c #FF00AF",
"n.	c #FF00B8",
"o.	c #FF00A2",
"p.	c #FF0095",
"q.	c #FF00A1",
"r.	c #FF0089",
"s.	c #FF007B",
"t.	c #FF0088",
"u.	c #FF0096",
"v.	c #FF006F",
"w.	c #FF007C",
"x.	c #D700FF",
"y.	c #FF0066",
"z.	c #FF006E",
"A.	c #FF00C5",
"B.	c #FF0059",
"C.	c #FF004D",
"D.	c #FF00AE",
"E.	c #FF0040",
"F.	c #FF005A",
"G.	c #FF0067",
". + @ # $ % & * = - ; > , ' ) ! ~ { ] ^ / ( _ : < [ } | ",
"1 2 + @ 3 $ 4 & * 5 - ; > , ' ) ! 6 7 ] ^ / ( _ : < 8 } ",
"9 0 2 + a # $ % b * = - c > , d ) ! ~ { e ^ / f _ : < [ ",
"g 9 0 2 + a h h h h h h h h h h h h h h h h i / ( h : < ",
"j k l 0 2 + @ 3 m % & * = h ; > , ' n ! ~ { e ^ / h _ : ",
"o j k 9 0 2 + a 3 $ % b p h - ; > , ' n ! 6 { ] h h ( _ ",
"q o j k 9 1 2 + @ 3 m % & h = - ; > , ' n r ~ 7 h i / ( ",
"s q t j k 9 0 2 + a 3 $ % h * = - ; > u ' n ! h { ] i / ",
"v s q t w k 9 1 2 + a # $ h b * = - ; > , ' ) h ~ { e ^ ",
"x v s q t j k l 1 2 + a 3 h % & p = - c > , h n ! ~ { e ",
"y x z s q o j k 9 0 2 + @ # m 4 b * 5 - ; A h ' n r ~ { ",
"B y C z s q o w k 9 1 2 + a 3 m % b p 5 - ; h u d n r ~ ",
"D E y C z s q o w k 9 1 2 + a 3 m 4 b * = h ; > , ' n ! ",
"F G B y h v s q t j k 9 1 2 + @ # m % b p h - c A , d n ",
"H I D E J h v s q o j k 9 1 . + a # m % b h = - c > , ' ",
"K H I G E h h h h h h h h h h h h h h h h h h 5 - c > , ",
"L K H F G h J x z s q o w k 9 1 2 + @ # h 4 & p = - ; > ",
"M L K H F h B y x z N q o j k l 0 . + a h m % & * 5 - ; ",
"O P L K H h G B y x v s q o j k l 1 2 + h 3 m % & p = - ",
"Q O P L K h F G B y x z N q t j k 9 1 2 h a 3 $ 4 & * = ",
"R Q O P S h H I D B y x z s q o w k 9 0 . + @ 3 m % b p ",
"T U Q O P S K H F G B y x z s q t j g 9 0 2 + a # m % b ",
"V W R Q O M L K H I D B y x z s q t j k 9 1 2 + a 3 $ % ",
"X V W U Y Z M L K H I G B y C v s q o w g 9 1 2 + a 3 m ",
"` X V W U Y O M L h h h h h h h h h h h h k 9 0 2 + a 3 ",
" .` X V T R Q O P L K H F G B y C z s q h j k 9 1 2 + a ",
".. .` X V W U Y O M S K H F D B y x z h h o j k 9 1 2 + ",
"+...@.` X V T R Q O M L K H F G B h h h s q o j k 9 0 2 ",
"#.+... .` $.V T U Q O M L K H F h h y C z s q o j k 9 0 ",
"%.#.&...@.` X V T R Q O P S K h h D B y C v s q t j k 9 ",
"*.%.=.+... .` X V W R Y h h h K H F D B y x v s q o j k ",
"-.;.%.=.+... .` $.V h h h O P L K H F G B y x z s q o j ",
">.-.*.%.#.&... .h h h W U Q O P L ,.H F D B y x z s q o ",
"'.).!.*.%.#.&.h h ` $.V W U Q O M S K H F G E J C v s q ",
"~.'.>.-.*.%.=.h h h ` $.{.W U Q O P S K H F G B y C z s ",
"].^.'.).-.;.%.=.+.h h h X V T R Y O P S K H F G B J x z ",
"/.(.~.'.>.-.*.%.=.+...h h h V W U Y O M S K H F G B y C ",
"_.:.].~.'.>.-.*.%.#.+... .h h h h R Q O M S K H F D B y ",
"<._./.(.^.'.>.!.*.%.=.+... .` X h h h h h h L K H F G B ",
"[.<._.:.].~.'.).-.*.%.#.+... .` $.{.W R Q O P L K H F G ",
"}.[.<._./.].~.|.>.-.*.%.#.+... .` $.V T U Q O P L K H F ",
"1.}.[.<._./.].~.'.>.-.*.%.#.&.h  .` X V T U Q O P L K H ",
"2.1.}.[.3._./.h h h h h h h h h h h h h h h R Q O P L K ",
"4.2.1.}.[.<.5.h (.~.'.).-.*.%.h +...@.` X h T U Q O M S ",
"6.4.2.1.7.8.<.h /.(.~.'.).!.;.h #.+... .9.h V T R Y O M ",
"0.6.a.2.1.}.8.h _.:.(.~.|.).-.h %.#.+.b. .h X V W R Q O ",
"c.0.6.4.2.1.}.h <._./.(.~.'.>.h *.%.=.+...h ` X V W R Q ",
"d.e.0.f.4.2.1.h 8.3._.:.].~.'.h -.;.%.=.+.h  .` $.V T R ",
"g.h.e.0.6.a.i.h }.[.3.5.:.(.~.h ).-.;.%.=.h .. .` X V W ",
"j.k.d.c.0.6.4.h 1.}.8.<._.:.(.h '.>.-.*.%.h +... .` X V ",
"l.j.k.h.c.0.6.4.h 1.}.[.<._./.h ~.'.>.!.*.h =.+... .` $.",
"m.n.j.g.h.e.0.6.h 2.1.}.8.<._.h (.~.'.).!.*.%.#.+.b.@.9.",
"o.m.l.j.g.d.e.0.h 4.2.1.}.8.<.h /.].~.'.).-.*.%.=.+... .",
"p.q.m.l.j.g.d.c.0.h a.2.1.7.[.h _./.(.~.'.>.!.;.%.=.&...",
"r.p.o.m.n.j.g.d.e.h 6.a.2.1.}.[.3._.:.(.~.'.>.-.*.%.#.+.",
"s.t.u.o.m.l.j.g.h.h 0.6.a.2.1.}.8.<._./.].^.'.>.!.*.%.#.",
"v.w.t.p.o.m.n.j.g.h c.0.f.4.2.x.}.[.<._.:.].~.'.).!.*.%.",
"y.z.w.t.p.o.m.l.A.h h.c.0.6.a.2.1.7.[.<._./.(.~.'.).-.*.",
"B.y.v.w.t.p.o.m.l.h g.h.c.0.6.a.2.1.}.[.3._.:.].~.'.).!.",
"C.B.y.v.w.r.p.o.D.h j.k.d.e.0.6.a.2.1.}.8.<._./.(.^.'.>.",
"E.C.F.G.v.s.t.p.o.h l.j.g.d.c.0.6.a.2.1.}.8.3.5.:.(.^.'."};
