/* XPM */
static char * treasure_xpm[] = {
"64 64 426 2",
"  	c #FF000000",
". 	c #FFFFFF",
"+ 	c #FFFC89",
"@ 	c #FFFC95",
"# 	c #FFFDAC",
"$ 	c #FFFA81",
"% 	c #FFFDC9",
"& 	c #FFFDD4",
"* 	c #FFFEDE",
"= 	c #FFFEED",
"- 	c #FFFEE7",
"; 	c #FFFEE0",
"> 	c #FFFA70",
", 	c #FFFB70",
"' 	c #FFF871",
") 	c #FFF748",
"! 	c #FFF85C",
"~ 	c #FFF96D",
"{ 	c #FFFA8D",
"] 	c #FFFDDD",
"^ 	c #FFFAAC",
"/ 	c #FFFA88",
"( 	c #FFFB79",
"_ 	c #FFFA71",
": 	c #FFF96E",
"< 	c #FFF73B",
"[ 	c #FFF33B",
"} 	c #FFF33C",
"| 	c #FFF33F",
"1 	c #FFF448",
"2 	c #FFF66D",
"3 	c #FFFCD4",
"4 	c #FFF648",
"5 	c #FFF73D",
"6 	c #FFF83B",
"7 	c #FFF86E",
"8 	c #FFF66E",
"9 	c #FFF53B",
"0 	c #FFF43B",
"a 	c #F8D132",
"b 	c #FFEA3B",
"c 	c #FFEA40",
"d 	c #FFED5C",
"e 	c #FFF9C9",
"f 	c #F9D855",
"g 	c #FFF671",
"h 	c #FFF13C",
"i 	c #FFF13B",
"j 	c #FFF03B",
"k 	c #F7C932",
"l 	c #FFE13B",
"m 	c #FFE13D",
"n 	c #FFE348",
"o 	c #F8CF4B",
"p 	c #FFF148",
"q 	c #FFF13D",
"r 	c #FFF875",
"s 	c #FFF87E",
"t 	c #F6D03F",
"u 	c #FFE83B",
"v 	c #FFE839",
"w 	c #F6CD32",
"x 	c #FFF66C",
"y 	c #F6BF32",
"z 	c #F6C133",
"A 	c #F6CD33",
"B 	c #FFF86C",
"C 	c #FFF572",
"D 	c #FFF560",
"E 	c #FFFCCA",
"F 	c #F5C73C",
"G 	c #FFDF3B",
"H 	c #FFDF39",
"I 	c #FFF46B",
"J 	c #FFF139",
"K 	c #FFF56B",
"L 	c #F5C532",
"M 	c #FFE039",
"N 	c #FFDF3A",
"O 	c #FFDF3C",
"P 	c #F5C533",
"Q 	c #FFF339",
"R 	c #FFF439",
"S 	c #FFF374",
"T 	c #FFF360",
"U 	c #FFF688",
"V 	c #FFFCDC",
"W 	c #F4C13F",
"X 	c #F4BD33",
"Y 	c #FFEB39",
"Z 	c #FFED39",
"` 	c #FFEC39",
" .	c #FFF039",
"..	c #FFF36B",
"+.	c #F4BD34",
"@.	c #F5C54A",
"#.	c #FFF146",
"$.	c #FFEF39",
"%.	c #FFEC51",
"&.	c #FFF9CA",
"*.	c #FFFBDC",
"=.	c #FFFDED",
"-.	c #FFFDE5",
";.	c #FFFCD8",
">.	c #FFEE51",
",.	c #FFEC3C",
"'.	c #F3C830",
").	c #FFE439",
"!.	c #FFEA39",
"~.	c #FFEC3A",
"{.	c #FFEB43",
"].	c #FFEF60",
"^.	c #FFFACA",
"/.	c #FFEE60",
"(.	c #FFEC43",
"_.	c #FFEC3B",
":.	c #FFF569",
"<.	c #FFF56A",
"[.	c #F2CA3D",
"}.	c #FFE860",
"|.	c #FFF7A5",
"1.	c #FFF373",
"2.	c #FFE33A",
"3.	c #FFF169",
"4.	c #F2C030",
"5.	c #FFDA39",
"6.	c #FFDB39",
"7.	c #FFF573",
"8.	c #FFF787",
"9.	c #FFF9A5",
"0.	c #FFEE88",
"a.	c #FFE446",
"b.	c #FFE339",
"c.	c #F2C730",
"d.	c #FFF269",
"e.	c #FFEF38",
"f.	c #FFF038",
"g.	c #FFF070",
"h.	c #FFF05F",
"i.	c #FFEF5F",
"j.	c #FFED42",
"k.	c #FFED3A",
"l.	c #FFF069",
"m.	c #FFE838",
"n.	c #FFE738",
"o.	c #F1B930",
"p.	c #FFF37B",
"q.	c #FFFDE6",
"r.	c #FFFCE5",
"s.	c #FFF5CB",
"t.	c #FFDD50",
"u.	c #FFD93B",
"v.	c #F1BF30",
"w.	c #FFEF6A",
"x.	c #FFEC38",
"y.	c #FFEB38",
"z.	c #FFE63A",
"A.	c #FFE745",
"B.	c #FFE950",
"C.	c #FFE845",
"D.	c #FFE73A",
"E.	c #FFE638",
"F.	c #F0C330",
"G.	c #FFDF38",
"H.	c #FFEF69",
"I.	c #FFED45",
"J.	c #FFF388",
"K.	c #FFF287",
"L.	c #F1BC3D",
"M.	c #F0B831",
"N.	c #FFE53D",
"O.	c #FFE538",
"P.	c #EFC230",
"Q.	c #FFF369",
"R.	c #FFF36A",
"S.	c #FFDE38",
"T.	c #EFBC30",
"U.	c #FFD738",
"V.	c #FFE539",
"W.	c #FFE642",
"X.	c #FFEB5F",
"Y.	c #FFF8CA",
"Z.	c #FFEA5F",
"`.	c #FFE742",
" +	c #FFF168",
".+	c #FFF58E",
"++	c #FFF271",
"@+	c #FFF26B",
"#+	c #FFDD3A",
"$+	c #FFDD38",
"%+	c #FFF067",
"&+	c #FFED38",
"*+	c #EEBB2F",
"=+	c #EEC12F",
"-+	c #FFF267",
";+	c #FFF268",
">+	c #EEC132",
",+	c #FFDD39",
"'+	c #FFDF45",
")+	c #FFE150",
"!+	c #EEC131",
"~+	c #FFE938",
"{+	c #FFED67",
"]+	c #FFF26A",
"^+	c #FFF38B",
"/+	c #FFF06B",
"(+	c #FFEE5A",
"_+	c #FFEF71",
":+	c #FFD43A",
"<+	c #FFEC68",
"[+	c #FFEC67",
"}+	c #FFE238",
"|+	c #FFEE67",
"1+	c #FFEC45",
"2+	c #FFF079",
"3+	c #EEBE3C",
"4+	c #FFEE68",
"5+	c #EDBA2F",
"6+	c #FFD438",
"7+	c #FFD439",
"8+	c #FFD53B",
"9+	c #EDBA30",
"0+	c #FFE338",
"a+	c #FFD538",
"b+	c #FFEF5A",
"c+	c #FFF5A6",
"d+	c #FFFBE5",
"e+	c #FFFCE6",
"f+	c #FFFBDE",
"g+	c #FFF9D3",
"h+	c #FFF8C9",
"i+	c #FFEA50",
"j+	c #FFEB6A",
"k+	c #FFE244",
"l+	c #FFE34F",
"m+	c #FFE139",
"n+	c #FFE137",
"o+	c #FFE037",
"p+	c #FFEB66",
"q+	c #FFE737",
"r+	c #FFE741",
"s+	c #FFF9D6",
"t+	c #FFEF84",
"u+	c #FFE841",
"v+	c #FFE739",
"w+	c #FFE637",
"x+	c #ECB22E",
"y+	c #FFDB37",
"z+	c #ECBD2E",
"A+	c #FFE94F",
"B+	c #FFF8C8",
"C+	c #FFFCEC",
"D+	c #FFF6A5",
"E+	c #FFE86A",
"F+	c #FFE55A",
"G+	c #FFE146",
"H+	c #FFE142",
"I+	c #EEC957",
"J+	c #FFF4CA",
"K+	c #FFDF5F",
"L+	c #FFD941",
"M+	c #FFD939",
"N+	c #FFD937",
"O+	c #EABC2E",
"P+	c #FFE65F",
"Q+	c #FFEB87",
"R+	c #FFF9DC",
"S+	c #FFE55F",
"T+	c #FFE144",
"U+	c #FFE038",
"V+	c #FFDF37",
"W+	c #FFD337",
"X+	c #FFD237",
"Y+	c #EAB72E",
"Z+	c #FFE559",
"`+	c #FFF38C",
" @	c #FFED6E",
".@	c #FFED6A",
"+@	c #FFFAD3",
"@@	c #FFD83E",
"#@	c #FFDA46",
"$@	c #EDC857",
"%@	c #FFF3A2",
"&@	c #FBF2DA",
"*@	c #FFE287",
"=@	c #FFD95F",
"-@	c #FFD444",
";@	c #E9B52F",
">@	c #FFF064",
",@	c #E9BB2E",
"'@	c #FFD73A",
")@	c #FFDC50",
"!@	c #FFF4CB",
"~@	c #FFF8DC",
"{@	c #FCF6E5",
"]@	c #FBF3DA",
"^@	c #FFD737",
"/@	c #E9AE2E",
"(@	c #FFEC64",
"_@	c #FFD739",
":@	c #FFE844",
"<@	c #FFEE6A",
"[@	c #FFF08C",
"}@	c #FFE864",
"|@	c #FFE33C",
"1@	c #FFE759",
"2@	c #FFF6C8",
"3@	c #FFE867",
"4@	c #EABD46",
"5@	c #FFF7CA",
"6@	c #FFFADC",
"7@	c #FBF0DA",
"8@	c #F9E9C8",
"9@	c #EAB747",
"0@	c #FFE837",
"a@	c #FFEF65",
"b@	c #FFF06E",
"c@	c #FFF283",
"d@	c #FFFCE4",
"e@	c #F1D281",
"f@	c #ECC357",
"g@	c #FFD244",
"h@	c #FFCF38",
"i@	c #FFD037",
"j@	c #E8B42D",
"k@	c #FFEB64",
"l@	c #FFEF64",
"m@	c #FFE337",
"n@	c #FFE659",
"o@	c #FFF7C8",
"p@	c #FFE868",
"q@	c #FFDC37",
"r@	c #FFDC39",
"s@	c #FFDE44",
"t@	c #FFE050",
"u@	c #FFF06D",
"v@	c #FFF282",
"w@	c #FFEA87",
"x@	c #FFFBE4",
"y@	c #FFEF87",
"z@	c #FFE644",
"A@	c #FFEA64",
"B@	c #FFE237",
"C@	c #FFEA63",
"D@	c #FFE537",
"E@	c #FFE641",
"F@	c #FFEE82",
"G@	c #E7AC2F",
"H@	c #E7AD2D",
"I@	c #FFEA65",
"J@	c #FFDC38",
"K@	c #E5B62D",
"L@	c #FFD436",
"M@	c #FFD437",
"N@	c #FFEA62",
"O@	c #FFE436",
"P@	c #FFE540",
"Q@	c #FFEE81",
"R@	c #FFE65E",
"S@	c #FFE040",
"T@	c #FFE136",
"U@	c #FFE662",
"V@	c #FFDF36",
"W@	c #FFE343",
"X@	c #FFE975",
"Y@	c #FFE76C",
"Z@	c #FFE138",
"`@	c #FFE036",
" #	c #FFE243",
".#	c #FFE44E",
"+#	c #FFD336",
"@#	c #FFD339",
"##	c #E4B02D",
"$#	c #FFCB35",
"%#	c #FFE562",
"&#	c #FFDF35",
"*#	c #FFDE35",
"=#	c #FFE875",
"-#	c #FFDA42",
";#	c #FFD935",
">#	c #FFD835",
",#	c #FFD836",
"'#	c #FFD838",
")#	c #FFD936",
"!#	c #FFDA3F",
"~#	c #FFDF5D",
"{#	c #FFF4C9",
"]#	c #FFCE3F",
"^#	c #FFCB37",
"/#	c #FFCC35",
"(#	c #E4AF2D",
"_#	c #E3A82D",
":#	c #FFD735",
"<#	c #FFD736",
"[#	c #FFD136",
"}#	c #FFD135",
"|#	c #E3B32D",
"1#	c #FFD442",
"2#	c #FFDA5D",
"3#	c #FFE386",
"4#	c #FFF7DC",
"5#	c #EED181",
"6#	c #E8B957",
"7#	c #E4AD3B",
"8#	c #E3A82E",
"9#	c #E1B22D",
"0#	c #FFD035",
"a#	c #FFC935",
"b#	c #FFC835",
"c#	c #FFCA35",
"d#	c #E1AC2D",
"e#	c #E1A62D",
"f#	c #E1AD30",
"g#	c #FFD04D",
"h#	c #FFF0C9",
"i#	c #FFF5DC",
"j#	c #FBF4E5",
"k#	c #E0AB2C",
"l#	c #FFC735",
"m#	c #E0A52C",
"n#	c #DFA52C",
"o#	c #E1AB3A",
"p#	c #E6B756",
"q#	c #EBC981",
"r#	c #DEA42C",
"s#	c #DEA32C",
"                                                                                                                                ",
"                                                                                                                                ",
"                                                                                                                                ",
"                                                                                                                                ",
"                                                                                                                                ",
"                                                                                                                                ",
"                                                                                                                                ",
"                                                                                                                                ",
"                                                                                                                                ",
"                                                                                                                                ",
"                                                                                                                                ",
"                                                                                                                                ",
"                                                                                                                                ",
"                                                                                                                                ",
"                                                                                                                                ",
"                                                                                                                                ",
"                                                                                                                                ",
"                                                                                                                                ",
"                                                                                                                                ",
"                                                                                                                                ",
"                                                                                                                                ",
"                                                                                                                                ",
"                                                                                                                                ",
"                                                                                                                                ",
"                                                                                                                                ",
"                                                                                                                                ",
"                                                                                                                                ",
"                                                                                                                                ",
"                                                                                                                                ",
"                                                                                                                                ",
"                                                                                                                                ",
"                                                                                                                                ",
"                                                                                                                                ",
"                                                                                                                                ",
"                                                                                                                                ",
"                                                                  .                                                             ",
"                                                                  .                                                             ",
"                                                            + @ # .                                                             ",
"                                                          $ % & * = - ; .                                                       ",
"                                                    > , ' ) ! ~ { ] ^ ~ / ( _ ,                                                 ",
"                                                  : < < [ } | 1 2 3 2 4 ' 5 6 < 7                                               ",
"                                                8 9 9 0 a b b c d e f g 9 9 0 9 9 8                                             ",
"                                                h i j j j k l m n o p q i i i i j j                                             ",
"                                            r s t u v v w x y y z 8 A w v v v v v w B B                                         ",
"                                          C D E D F G H I J J J J J I K L M N O P Q R Q K                                       ",
"                                        S T U V U T W X Y Y Y Z Z ` Z  ...+.W @.#.j $. . ...                                    ",
"                                        %.&.*.=.-.;.>.,.'.).).).).).'.!.~.{.].^./.(._.!.!.!.                                    ",
"                                    :.<.[.}.|.V U T 1.2.3.4.5.5.6.4.:.<.7.8.9.-.0.}.a.2.b.c.:.:.                                ",
"                                  d.e.f.$.g.h.^.i.j.k.l.m.n.o.o.o.d.e.j p.^.V q.r.s.t.u.v.e.f.e.d.                              ",
"                                w.x.x.y.x.z.A.B.C.D.E.n.F.G.G.G.H.x.x.w.I.i.J.*.J.K.L.M.x.x.y.x.x.H.                            ",
"                            .   N.O.O.E.E.P.Q.R.Q.S.S.P.O.T.U.U.E.O.E.O.V.W.X.Y.Z.`.k. +O.E.E.O.O.O.    .                       ",
"                            . .+++@+#+$+$+%+x.&+x.%+*+=+$+-+-+;+>+,+$+=+$+#+'+)+'+!+~+~+{+$+$+$+;+]+++  .                       ",
"                            r.^+/+(+_+:+<+u v n.m.m.[+}+|+y.~.1+2+3+4+y.5+6+7+8+9+0+}+}+}+a+6+4+1+b+/+c+.                       ",
"                      . . d+e+f+g+h+i+j+k+l+k+m+n+o+n+p+q+n.r+X.s+t+u+v+w+x+x+x+y+y+y+y+z+x+p+D.A+B+g+f+C+. . .                 ",
"                          D+r.D+E+F+G+H+I+J+K+L+M+N+O+o+G.k+P+Q+R+Q+S+T+U+o+V+o+W+X+X+Y+o+V+o+G.k+Z+`+D+r.                      ",
"                         @.@+@.@ @@@#@$@%@&@*@=@-@;@>@,@'@)@!@~@{@]@!@)@'@^@^@,@/@/@/@^@^@(@,@^@_@<+:@<@g+[@                    ",
"                      }@|@1@2@1@|@3@4@5@6@C+7@8@9@p+w+0@a@b@c@*@d@e@f@g@h@i@j@w+k@l@l@l@}@m@m@j@}@m@|@n@o@1@p@                  ",
"                      q@r@s@t@s@r@l@u@v@w@x@y@X.z@A@B@C@D@n.E@F@Y.X.j+G@H@H@C@B@C@D@q+O.I@J@q@q@q@q@r@s@t@s@r@                  ",
"                      K@L@M@7+W+N@O@w+P@Q@5@R@S@U+T@U@T@T@V@U+W@X@Y@Z@T@V@T@`@U@T@T@G. #.#Y@6++#K@L@L@M@@#M@K@                  ",
"                        ##$#$#%#&#&#*#V+H+=#-#N+;#>#;#>#;#;#>#,#'#,#>#>#;#;#>#;#>#)#!#~#{#~#]#^#$###/#$#$#(#                    ",
"                          _#_#:#:#:#>#>#<#'#[#}#}#}#|#}#}#}#}#}#|#|#}#}#}#}#}#|#[#1#2#3#4#5#6#7#8#  _#_#_#                      ",
"                              9#0#0#0#0#0#9#a#b#c#d#e#d#c#b#a#d#c#a#d#b#a#c#d#e#f#g#h#i#j#. .                                   ",
"                                k#l#l#a#k#  m#n#n#      m#n#n#n#n#n#n#n#n#n#      o#p#q#.                                       ",
"                                  r#s#s#                                                .                                       "};
