/* XPM */
static char * west_xpm[] = {
"64 64 157 2",
"  	c None",
". 	c #FF0000",
"+ 	c #FF8A65",
"@ 	c #FF8A64",
"# 	c #FF8964",
"$ 	c #FF8965",
"% 	c #FF6C3E",
"& 	c #FF6B3E",
"* 	c #FF8865",
"= 	c #FF6C3F",
"- 	c #FF8864",
"; 	c #FF6B3F",
"> 	c #FF8763",
", 	c #FF8863",
"' 	c #FF6A3C",
") 	c #FF693D",
"! 	c #FF693C",
"~ 	c #FF6A3D",
"{ 	c #FF8662",
"] 	c #FF8762",
"^ 	c #FF8561",
"/ 	c #FF673A",
"( 	c #FF673B",
"_ 	c #FF683B",
": 	c #FF683A",
"< 	c #FF8562",
"[ 	c #FF8661",
"} 	c #FF8461",
"| 	c #FF8460",
"1 	c #FF6538",
"2 	c #FF6639",
"3 	c #FF8360",
"4 	c #FF6638",
"5 	c #FF6539",
"6 	c #FF835F",
"7 	c #FF825F",
"8 	c #FF825E",
"9 	c #FF6336",
"0 	c #FF6337",
"a 	c #FF6436",
"b 	c #FF6437",
"c 	c #FF805D",
"d 	c #FF805E",
"e 	c #FF815D",
"f 	c #FF815E",
"g 	c #FF6134",
"h 	c #FF6135",
"i 	c #FF6034",
"j 	c #FF6035",
"k 	c #FF7F5B",
"l 	c #FF7F5C",
"m 	c #FF5F33",
"n 	c #FF5E33",
"o 	c #FF7E5B",
"p 	c #FF7D5B",
"q 	c #FF7E5A",
"r 	c #FF7D5A",
"s 	c #FF5D31",
"t 	c #FF5C31",
"u 	c #FF5D32",
"v 	c #FF7C5A",
"w 	c #FF5C32",
"x 	c #FF7B59",
"y 	c #FF7C59",
"z 	c #FF7B58",
"A 	c #FF7C58",
"B 	c #FF5A30",
"C 	c #FF5B2F",
"D 	c #FF5A2F",
"E 	c #FF5B30",
"F 	c #FF7A57",
"G 	c #FF7A58",
"H 	c #FF7B57",
"I 	c #FF592D",
"J 	c #FF582D",
"K 	c #FF582E",
"L 	c #FF7957",
"M 	c #FF592E",
"N 	c #FF7856",
"O 	c #FF7857",
"P 	c #FF7757",
"Q 	c #FF7756",
"R 	c #FF562C",
"S 	c #FF572B",
"T 	c #FF562B",
"U 	c #FF572C",
"V 	c #FF7755",
"W 	c #FF7655",
"X 	c #FF7754",
"Y 	c #FF7654",
"Z 	c #FF542A",
"` 	c #FF552A",
" .	c #FF5429",
"..	c #FF7653",
"+.	c #FF7453",
"@.	c #FF7553",
"#.	c #FF7452",
"$.	c #FF5228",
"%.	c #FF5128",
"&.	c #FF5227",
"*.	c #FF7352",
"=.	c #FF7351",
"-.	c #FF5026",
";.	c #FF4F26",
">.	c #FF5025",
",.	c #FF7251",
"'.	c #FF7150",
").	c #FF714F",
"!.	c #FF7250",
"~.	c #FF724F",
"{.	c #FF4E24",
"].	c #FF4D24",
"^.	c #FF4E25",
"/.	c #FF4D25",
"(.	c #FF704F",
"_.	c #FF6F4F",
":.	c #FF6F4E",
"<.	c #FF4B22",
"[.	c #FF4C23",
"}.	c #FF4B23",
"|.	c #FF4C22",
"1.	c #FF6D4D",
"2.	c #FF6E4D",
"3.	c #FF4921",
"4.	c #FF4920",
"5.	c #FF4A20",
"6.	c #FF6D4C",
"7.	c #FF4A21",
"8.	c #FF6C4C",
"9.	c #FF6B4B",
"0.	c #FF6C4B",
"a.	c #FF6B4C",
"b.	c #FF471F",
"c.	c #FF471E",
"d.	c #FF481F",
"e.	c #FF481E",
"f.	c #FF6A4A",
"g.	c #FF6B4A",
"h.	c #FF6A4B",
"i.	c #FF451D",
"j.	c #FF451C",
"k.	c #FF441D",
"l.	c #FF6A49",
"m.	c #FF6849",
"n.	c #FF6848",
"o.	c #FF6949",
"p.	c #FF6948",
"q.	c #FF431B",
"r.	c #FF421B",
"s.	c #FF6748",
"t.	c #FF431A",
"u.	c #FF6747",
"v.	c #FF421A",
"w.	c #FF4119",
"x.	c #FF4019",
"y.	c #FF6746",
"z.	c #FF6647",
". . . . . . . . . . . . . . . . . . . . . . . . . . . . . . . . . . . . . . . . . . . . . . . . . . . . . . . . . . . . . . . . ",
". + @ + # # $ + . $ + $ $ # $ $ . @ # + + + + + . + # # # @ $ $ . # $ + + # @ + . + $ # @ @ $ # . + $ @ + $ + # . @ @ $ $ + + # ",
". # % % % % % & . # % & & & % % . # % % % % % % . * % % % % % % . # % % = % % & . # & & = % % % . - % % = ; & % . $ % % = & % % ",
". . . . . . . . . . . . . . . . . . . . . . . . . . . . . . . . . . . . . . . . . . . . . . . . . . . . . . . . . . . . . . . . ",
"> > > > . > > > , > > > . > > > > > > > . , > , > , , > . > > > , > > > . > > , > > , > . , > , > > > , . > > > > > > > . > > > ",
"' ) ' ' . > ' ' ' ' ' ! . > ' ! ! ' ) ' . > ! ~ ' ~ ' ~ . > ' ' ' ~ ' ' . > ~ ) ~ ! ' ! . > ! ! ' ) ! ! . > ' ! ! ~ ! ! . > ' ) ",
". . . . . . . . . . . . . . . . . . . . . . . . . . . . . . . . . . . . . . . . . . . . . . . . . . . . . . . . . . . . . . . . ",
". { { { { ] { { . { { { { { { { . ] ] { ] { ] { . { { { ] ] { { . { ] { { ] { { . { { { { { ] { . ] { { ] { ] { . { { ] { { { { ",
". ^ / / / ( _ : . < / / / / _ : . ^ / / / : : _ . [ : _ / _ _ ( . [ / _ _ / : / . ^ _ : _ ( : ( . [ ( ( _ ( : : . ^ / / ( _ : _ ",
". . . . . . . . . . . . . . . . . . . . . . . . . . . . . . . . . . . . . . . . . . . . . . . . . . . . . . . . . . . . . . . . ",
"} | | | . | | | | } | | . | | | | | } | . } | | | | | } . | | | } | | | . | | | } | | } . | | | | } | | . | | | | | | } . | | | ",
"1 2 2 1 . 3 1 4 2 5 5 4 . 3 5 5 5 5 1 5 . 3 4 4 5 5 1 2 . 3 1 4 2 2 4 4 . 3 1 5 4 5 5 1 . 6 5 2 1 5 5 4 . 3 1 1 5 5 1 4 . 3 5 1 ",
". . . . . . . . . . . . . . . . . . . . . . . . . . . . . . . . . . . . . . . . . . . . . . . . . . . . . . . . . . . . . . . . ",
". 6 6 6 6 6 6 6 . 6 6 6 6 6 6 6 . 7 6 6 6 6 6 6 . 6 6 6 6 6 6 6 . 6 6 7 6 6 6 6 . 6 6 7 6 6 6 6 . 6 7 6 6 6 6 7 . 6 7 6 6 7 6 6 ",
". 8 9 0 0 9 0 0 . 7 0 0 9 0 0 0 . 7 a 0 9 9 9 0 . 7 9 0 0 9 0 0 . 7 0 b 0 9 0 9 . 6 0 9 0 b 9 0 . 8 9 0 0 9 9 9 . 7 9 0 0 0 0 9 ",
". . . . . . . . . . . . . . . . . . . . . . . . . . . . . . . . . . . . . . . . . . . . . . . . . . . . . . . . . . . . . . . . ",
"c d e f . e f f e e f e . c d f d e f f . f f e f f e d . c f e e f e f . e f f e d c c . e c c d e f d . c c c e d f c . e f d ",
"g h h g . c h h g h h h . c g h h h h h . c h h h h h h . c h h h h i h . c h h h h h h . c h j h h g h . c h g h h h h . c h h ",
". . . . . . . . . . . . . . . . . . . . . . . . . . . . . . . . . . . . . . . . . . . . . . . . . . . . . . . . . . . . . . . . ",
". k k l l l l l . k l k l l l k . l l k l l l k . k l k k l k l . l k l k l l l . k k l l l l l . k l k k l l l . k l l k l l l ",
". k m m m m m n . k m m n m m m . k m m m m m n . k m m m n m m . k m m m m n m . k m m m m m n . o m n n m n m . k m m m m n m ",
". . . . . . . . . . . . . . . . . . . . . . . . . . . . . . . . . . . . . . . . . . . . . . . . . . . . . . . . . . . . . . . . ",
"p p o q . q r o o p o p . o o o p q p p . p p r r o o p . p r p p q q r . r r r o o r o . o q r q o p p . o p p q q o o . r r o ",
"s s s t . r s s s s t s . r t s s s s s . r s s t s s s . r s t s s s u . v t s s w u u . v s u u s s t . r s s s w s s . v s s ",
". . . . . . . . . . . . . . . . . . . . . . . . . . . . . . . . . . . . . . . . . . . . . . . . . . . . . . . . . . . . . . . . ",
". x x y y x x y . y x y y x x x . x x y y x x x . x x x x x z y . x x x y x x x . x y x y z x x . A x x x x x z . x x x x x x x ",
". z B C C D D B . z D D C D C D . z B D B D C C . z D D C B E D . x D B C D E B . z D E D C C E . z D C D D D D . x C C E D D C ",
". . . . . . . . . . . . . . . . . . . . . . . . . . . . . . . . . . . . . . . . . . . . . . . . . . . . . . . . . . . . . . . . ",
"F G F F . F F F F F F F . H F F F F F F . F F F F F F F . F F F F F F F . F F F F F G F . F G F F F F F . F F F F F F F . F F F ",
"I J J K . L J M I M K K . L K K I J I J . L K I J I J I . F I M K K J J . F J J M I K J . L J K K I K J . L K J J J J J . L J M ",
". . . . . . . . . . . . . . . . . . . . . . . . . . . . . . . . . . . . . . . . . . . . . . . . . . . . . . . . . . . . . . . . ",
". N N N N N N O . N O N P N N N . O N N N N N N . N N N Q N N N . N O O N N N O . N N N N N N Q . N N N N N N Q . N N N N N Q O ",
". Q R R R R S R . Q T S U R R T . Q T R R R R R . Q R T T T T S . Q R R U S R T . Q R R R T T U . N U R R R R R . V R T R T R R ",
". . . . . . . . . . . . . . . . . . . . . . . . . . . . . . . . . . . . . . . . . . . . . . . . . . . . . . . . . . . . . . . . ",
"V W X X . X Y Y X Y V V . Y V X X W V X . X X V Y V Y Y . X V Y X Y Y Y . X Y X X X X X . V Y X Y X Y Y . X X V V V X X . X W X ",
"Z Z Z Z . Y ` Z Z Z  .Z . ..Z Z Z  . .Z . Y Z Z  . .Z  .. Y  .Z  .Z Z  .. ..Z  .Z  . . .. ..Z  . .Z Z Z . Y Z Z  .Z  .Z . Y Z Z ",
". . . . . . . . . . . . . . . . . . . . . . . . . . . . . . . . . . . . . . . . . . . . . . . . . . . . . . . . . . . . . . . . ",
". +.@.+.@.@.+.+.. +.+.@.@.@.+.+.. @.@.@.@.@.@.@.. +.@.+.@.@.@.@.. @.@.@.+.+.@.@.. +.+.+.+.+.+.@.. @.+.+.@.+.@.@.. +.@.+.@.@.@.+.",
". #.$.$.$.$.%.$.. +.$.%.&.$.&.$.. +.$.$.&.$.$.$.. #.$.$.$.$.$.$.. +.$.$.$.&.$.$.. +.$.&.&.&.&.&.. *.$.$.%.%.$.$.. +.%.&.$.&.$.%.",
". . . . . . . . . . . . . . . . . . . . . . . . . . . . . . . . . . . . . . . . . . . . . . . . . . . . . . . . . . . . . . . . ",
"=.*.*.=.. =.*.*.*.=.*.=.. *.=.=.*.=.*.*.. =.=.=.*.*.=.*.. *.*.*.*.=.*.*.. *.*.=.*.=.=.=.. =.*.*.*.=.*.*.. =.*.=.*.*.=.*.. *.=.=.",
"-.;.-.-.. =.;.;.;.-.-.-.. =.-.-.-.-.-.>.. ,.;.;.-.;.-.;.. ,.>.;.-.-.-.-.. =.;.-.;.-.-.-.. ,.-.-.-.-.-.-.. =.;.-.-.-.;.;.. =.-.-.",
". . . . . . . . . . . . . . . . . . . . . . . . . . . . . . . . . . . . . . . . . . . . . . . . . . . . . . . . . . . . . . . . ",
". '.).'.'.!.'.'.. '.!.).'.).!.).. ).~.'.!.'.).).. !.!.!.'.'.).'.. '.'.'.).'.).).. !.'.'.!.'.'.'.. !.!.).'.'.'.'.. '.!.!.'.).!.'.",
". '.{.].{.].].{.. ).^.{.{./.].{.. (.{.].^.{./.{.. ).].].{.{.].{.. ).^.].^.].].{.. ).].{.{./.].{.. ).].].].].].{.. ).]./.].].{.].",
". . . . . . . . . . . . . . . . . . . . . . . . . . . . . . . . . . . . . . . . . . . . . . . . . . . . . . . . . . . . . . . . ",
"_._._._.. _.:._._._._.(.. _.(._._._.:.:.. _._._._._._._.. _._._._._._._.. (._._._._.:._.. _.(.(._._._._.. _._._._._._.:.. _._._.",
"<.[.<.<.. :.}.|.<.[.}.<.. :.}.}.<.|.<.|.. :.[.<.|.[.|.}.. :.<.<.}.<.}.|.. _.<.}.<.<.}.<.. :.<.<.<.|.|.<.. :.}.}.}.}.|.<.. _.|.<.",
". . . . . . . . . . . . . . . . . . . . . . . . . . . . . . . . . . . . . . . . . . . . . . . . . . . . . . . . . . . . . . . . ",
". 1.2.2.2.2.2.2.. 2.2.2.2.2.2.2.. 2.2.2.2.2.2.2.. 2.2.2.2.2.2.2.. 2.2.2.2.2.2.2.. 2.2.2.1.2.2.2.. 2.2.2.2.2.2.2.. 2.2.2.2.2.2.2.",
". 1.3.4.3.5.3.3.. 1.3.3.4.4.5.4.. 6.4.3.4.4.5.4.. 6.4.5.5.4.4.4.. 1.4.3.4.3.4.4.. 6.4.3.7.4.3.7.. 2.4.5.3.4.3.3.. 6.3.5.7.4.7.5.",
". . . . . . . . . . . . . . . . . . . . . . . . . . . . . . . . . . . . . . . . . . . . . . . . . . . . . . . . . . . . . . . . ",
"8.9.0.9.. 0.0.0.a.8.0.9.. 9.0.0.0.0.0.0.. 9.9.0.0.0.0.0.. 0.0.0.0.0.0.0.. 9.0.9.0.8.9.0.. 9.0.8.0.0.0.9.. 0.0.0.0.8.9.0.. 9.0.8.",
"b.c.b.c.. 9.c.c.b.c.c.c.. 9.c.b.b.b.b.b.. 9.c.b.b.b.c.b.. 9.d.b.c.c.d.c.. 9.e.b.c.c.c.b.. 9.b.d.b.b.c.b.. 9.d.b.e.c.b.c.. 9.b.c.",
". . . . . . . . . . . . . . . . . . . . . . . . . . . . . . . . . . . . . . . . . . . . . . . . . . . . . . . . . . . . . . . . ",
". f.f.f.9.g.h.f.. f.f.g.9.g.g.9.. 9.f.g.9.g.g.f.. g.9.9.f.g.g.f.. f.9.f.9.g.f.f.. g.h.9.g.f.g.g.. g.9.9.9.g.f.g.. g.g.9.g.g.h.g.",
". f.i.j.i.i.i.i.. f.j.i.j.j.i.i.. f.j.i.k.j.i.i.. f.i.j.j.i.i.i.. l.j.i.i.i.i.j.. f.j.i.i.i.i.i.. l.i.i.j.i.i.j.. l.j.j.k.j.i.i.",
". . . . . . . . . . . . . . . . . . . . . . . . . . . . . . . . . . . . . . . . . . . . . . . . . . . . . . . . . . . . . . . . ",
"m.n.o.m.. o.p.p.o.p.o.p.. p.p.o.n.m.n.o.. m.p.m.p.o.n.p.. o.o.o.o.p.p.m.. o.p.m.n.n.p.n.. n.p.n.n.p.m.m.. m.p.o.p.n.p.p.. n.m.p.",
"q.q.r.q.. s.q.r.q.q.q.q.. n.t.q.q.q.q.q.. u.t.r.q.q.q.q.. s.r.q.q.q.t.t.. n.q.r.q.t.v.q.. n.q.q.q.q.v.q.. n.q.q.q.q.r.q.. n.q.t.",
". . . . . . . . . . . . . . . . . . . . . . . . . . . . . . . . . . . . . . . . . . . . . . . . . . . . . . . . . . . . . . . . ",
". u.u.u.u.u.u.u.. u.u.u.u.u.u.u.. u.u.u.u.u.u.u.. u.u.u.u.u.u.u.. u.u.u.u.u.u.u.. u.u.u.u.u.u.u.. u.u.u.u.u.u.u.. u.u.u.u.u.u.u.",
". u.w.x.x.w.w.w.. u.w.x.w.w.w.w.. u.w.w.x.w.w.w.. u.x.w.w.x.x.x.. y.w.x.w.w.w.w.. z.w.w.w.w.x.w.. z.w.w.w.x.w.w.. u.w.x.x.w.w.x.",
". . . . . . . . . . . . . . . . . . . . . . . . . . . . . . . . . . . . . . . . . . . . . . . . . . . . . . . . . . . . . . . . "};
